<svg width="1005" height="1042" viewBox="0 0 1005 1042" fill="none" xmlns="http://www.w3.org/2000/svg">
<g clip-path="url(#clip0_140_68)">
<path d="M424.01 -156.358C445.162 -160.965 466.291 -163.844 487.352 -164.95C508.459 -165.342 529.566 -163.867 550.672 -160.55C571.846 -156.427 593.088 -150.484 614.397 -142.813C635.885 -134.406 657.531 -124.385 679.312 -112.891C701.363 -100.844 723.638 -87.4834 746.139 -72.9714C768.931 -58.1599 791.993 -42.3809 815.19 -25.7958C838.679 -9.11847 862.281 8.2038 885.838 26.0559C909.484 43.8158 932.884 61.9904 955.811 80.5105C978.468 98.8003 1000.32 117.389 1021.06 136.255C1040.98 154.798 1059.39 173.618 1075.91 192.668C1091.08 211.418 1103.98 230.468 1114.3 249.817C1122.89 268.89 1128.66 288.332 1131.54 308.119C1132.64 327.699 1130.91 347.716 1126.48 368.171C1120.8 388.488 1112.89 409.311 1103.08 430.619C1093.08 451.857 1082.02 473.625 1070.36 495.946C1059.79 518.244 1049.57 541.117 1040.08 564.544C1032.86 587.97 1027.16 611.42 1023.04 634.824C1021.54 658.227 1021.49 681.561 1022.75 704.735C1026.12 727.885 1030.23 750.828 1034.71 773.448C1040.37 795.953 1045.63 818.067 1050.17 839.627C1054.8 860.958 1058.04 881.597 1059.59 901.384C1060.42 920.803 1059.16 939.23 1055.72 956.461C1051.12 973.138 1044.22 988.479 1035.09 1002.32C1024.71 1015.48 1012.23 1027.02 997.844 1036.85C982.402 1045.95 965.319 1053.35 946.797 1058.99C927.556 1064.03 907.169 1067.51 885.883 1069.45C864.192 1071.2 841.849 1071.77 819.034 1071.34C796.062 1071.29 772.797 1070.71 749.398 1069.86C725.976 1070.12 702.509 1070.58 679.087 1071.5C655.711 1074.15 632.424 1077.65 609.294 1082.12C586.232 1088.59 563.305 1096.14 540.58 1104.71C517.9 1115.1 495.377 1126.18 473.079 1137.7C450.781 1150.3 429.18 1162.32 408.276 1173.43C387.326 1184.48 367.052 1193.88 347.429 1201.32C327.716 1207.75 308.61 1211.71 290.133 1213.07C271.521 1212.89 253.472 1209.89 235.984 1204.18C218.294 1196.78 201.121 1186.76 184.443 1174.35C167.494 1160.5 150.973 1144.59 134.902 1126.85C118.493 1108.17 102.466 1088.06 86.8217 1066.82C70.8176 1045.1 55.1731 1022.62 39.8883 999.605C24.2438 976.524 8.98135 953.144 -5.83147 929.648C-20.959 906.336 -35.6145 883.048 -49.708 859.852C-63.9589 836.955 -77.5804 814.174 -90.4601 791.576C-103.317 769.255 -115.343 747.073 -126.38 725.005C-137.259 703.191 -147.037 681.4 -155.623 659.655C-163.85 638.072 -170.818 616.465 -176.392 594.789C-181.495 573.228 -185.181 551.529 -187.384 529.761C-189.07 508.039 -189.25 486.179 -187.901 464.227C-186.125 442.274 -182.911 420.76 -178.371 399.729C-173.56 378.698 -167.559 358.151 -160.478 338.179C-153.353 318.208 -145.261 298.859 -136.337 280.131C-127.548 261.473 -118.04 243.506 -107.903 226.299C-98.0801 209.161 -87.6954 192.806 -76.8161 177.28C-66.364 161.824 -55.4623 147.197 -44.1335 133.445C-33.2543 119.716 -21.9255 106.793 -10.1921 94.7461C1.13665 82.6067 12.9374 71.2274 25.2328 60.6313C37.1909 49.7819 49.711 39.6004 62.7931 30.0179C75.6503 20.0438 89.1594 10.5534 103.275 1.50062C117.279 -8.12799 131.979 -17.4111 147.332 -26.3947C162.639 -36.0464 178.666 -45.4907 195.322 -54.6816C212 -64.5636 229.331 -74.2153 247.29 -83.5444C265.25 -93.4494 283.817 -102.94 302.968 -111.877C322.096 -121.16 341.787 -129.706 361.972 -137.331C382.157 -144.91 402.836 -151.336 423.988 -156.358" stroke="url(#paint0_linear_140_68)" stroke-width="2" stroke-linecap="round" stroke-dasharray="4 8"/>
<path opacity="0.96" d="M474.474 -132.656C495.214 -135.727 515.862 -137.142 536.439 -136.877C557.016 -135.941 577.515 -133.234 597.96 -128.752C618.442 -123.506 638.895 -116.529 659.369 -107.889C679.926 -98.5032 700.579 -87.5636 721.267 -75.1666C742.143 -62.2249 763.13 -47.9589 784.198 -32.5786C805.487 -16.8128 826.867 -0.070641 848.257 17.5036C869.817 35.2288 891.309 53.6186 912.582 72.57C933.835 91.4737 954.676 110.809 974.885 130.469C994.727 149.917 1013.62 169.643 1031.34 189.561C1048.19 209.162 1063.48 228.928 1076.92 248.79C1089.05 268.303 1098.99 287.912 1106.49 307.621C1112.38 327.007 1115.71 346.483 1116.34 366.111C1115.41 385.419 1111.93 404.934 1105.97 424.639C1098.99 444.155 1090.01 463.942 1079.3 484.019C1068.5 504.043 1056.73 524.459 1044.38 545.296C1033.08 566.184 1022 587.597 1011.52 609.492C1003.13 631.539 996.02 653.631 990.331 675.688C986.996 697.916 984.971 720.1 984.13 742.115C985.241 764.249 987.045 786.132 989.282 807.631C992.668 829.121 995.796 850.108 998.408 870.41C1001.26 890.522 1002.97 909.813 1003.29 928.102C1003.16 945.989 1001.24 962.731 997.473 978.138C992.776 992.992 986.107 1006.39 977.473 1018.21C967.826 1029.36 956.287 1038.87 943.042 1046.64C928.873 1053.76 913.198 1059.21 896.194 1062.99C878.502 1066.31 859.72 1068.11 840.086 1068.54C819.985 1068.88 799.213 1068.17 777.94 1066.56C756.431 1065.41 734.546 1063.85 712.407 1062.04C690.148 1061.33 667.738 1060.84 645.253 1060.79C622.658 1062.34 600.032 1064.65 577.439 1067.79C554.786 1072.8 532.136 1078.74 509.584 1085.54C486.964 1093.99 464.438 1103.03 442.071 1112.38C419.633 1122.76 397.886 1132.6 376.872 1141.6C355.812 1150.63 335.485 1158.17 315.89 1163.93C296.261 1168.86 277.37 1171.58 259.228 1171.95C241.021 1170.96 223.531 1167.43 206.728 1161.43C189.83 1153.88 173.548 1143.93 157.894 1131.74C142.083 1118.21 126.795 1102.67 112.032 1085.4C97.0212 1067.13 82.4918 1047.44 68.3794 1026.61C53.9672 1005.22 39.9723 983.007 26.382 960.155C12.4874 937.142 -0.996013 913.721 -14.0615 890.121C-27.3576 866.598 -40.1525 842.995 -52.4109 819.454C-64.8196 796.133 -76.5812 772.906 -87.6109 749.846C-98.6131 727.043 -108.792 704.392 -118.015 681.925C-127.051 659.703 -135.038 637.603 -141.863 615.656C-148.317 593.897 -153.563 572.25 -157.442 550.724C-160.878 529.3 -162.9 507.955 -163.485 486.69C-163.58 465.508 -162.214 444.385 -159.346 423.371C-156.031 402.412 -151.381 382.011 -145.466 362.234C-139.304 342.474 -132.015 323.35 -123.733 304.875C-115.364 286.43 -106.117 268.648 -96.1078 251.591C-86.2127 234.55 -75.6701 218.248 -64.5519 202.749C-53.7268 187.252 -42.4158 172.553 -30.7102 158.667C-19.3649 144.779 -7.64752 131.702 4.41807 119.459C16.0368 107.16 28.0293 95.651 40.3507 84.9274C52.2989 74.0613 64.6255 63.9153 77.3323 54.4666C89.7425 44.7423 102.606 35.6283 115.948 27.103C129.096 18.1249 142.751 9.62231 156.984 1.57716C171.099 -7.0538 185.821 -15.3406 201.128 -23.2849C216.414 -31.9004 232.334 -40.2391 248.865 -48.2795C265.417 -56.965 282.58 -65.3522 300.326 -73.374C318.086 -81.9259 336.444 -89.9957 355.324 -97.4735C374.225 -105.25 393.636 -112.251 413.523 -118.316C433.385 -124.338 453.705 -129.171 474.451 -132.657" stroke="url(#paint1_linear_140_68)" stroke-width="2" stroke-linecap="round" stroke-dasharray="5 2"/>
<path opacity="0.92" d="M522.974 -104.921C543.199 -106.538 563.318 -106.566 583.283 -104.988C603.209 -102.81 623.033 -98.9022 642.699 -93.3655C662.375 -87.0829 681.957 -79.1388 701.432 -69.6049C720.968 -59.3641 740.455 -47.6182 759.886 -34.4846C779.438 -20.7516 798.953 -5.76768 818.424 10.3499C838.026 26.8356 857.537 44.3083 876.93 62.6249C896.369 81.1108 915.554 100.281 934.392 119.983C953.094 139.688 971.218 159.797 988.595 180.217C1005.55 200.435 1021.44 220.872 1036.06 241.401C1049.87 261.652 1062.09 281.926 1072.46 302.163C1081.65 322.042 1088.73 341.849 1093.54 361.579C1096.94 380.92 1097.95 400.192 1096.48 419.358C1093.73 438.199 1088.62 457.023 1081.34 475.832C1073.2 494.425 1063.26 513.103 1051.8 531.933C1040.32 550.713 1027.94 569.736 1015.03 589.075C1003.09 608.534 991.324 628.413 979.996 648.728C970.556 669.341 962.252 689.956 955.177 710.541C950.195 731.43 946.401 752.26 943.672 772.941C942.733 793.814 942.487 814.438 942.641 834.632C943.968 854.881 945.17 874.552 945.997 893.495C947.189 912.258 947.51 930.103 946.729 946.88C945.662 963.267 943.158 978.398 939.12 992.142C931.17 1011.18 905.662 1040.44 888.318 1050.43C875.454 1055.93 861.226 1059.82 845.785 1062.13C829.718 1064.05 812.616 1064.59 794.671 1063.84C776.271 1063.1 757.143 1061.38 737.486 1058.9C717.512 1056.9 697.092 1054.51 676.354 1051.96C655.363 1050.41 634.092 1049.09 612.654 1048.16C591.013 1048.68 569.191 1049.86 547.287 1051.79C525.178 1055.37 503.006 1059.73 480.823 1064.83C458.484 1071.38 436.143 1078.43 413.929 1085.72C391.567 1093.91 369.903 1101.65 348.938 1108.6C327.942 1115.62 307.717 1121.33 288.256 1125.46C268.846 1128.89 250.207 1130.37 232.401 1129.76C214.649 1127.94 197.664 1123.86 181.491 1117.53C165.305 1109.83 149.853 1099.92 135.1 1087.94C120.291 1074.71 106.107 1059.59 92.5157 1042.82C78.8093 1025.07 65.5913 1005.93 52.8936 985.659C40.011 964.753 27.5695 942.958 15.5567 920.526C3.35916 897.789 -8.43817 874.622 -19.7462 851.2C-31.2291 827.729 -42.2194 804.144 -52.6661 780.568C-63.1985 757.119 -73.0823 733.741 -82.2667 710.558C-91.3842 687.548 -99.6877 664.726 -107.098 642.174C-114.282 619.794 -120.452 597.631 -125.528 575.767C-130.239 554.049 -133.757 532.575 -135.994 511.357C-137.773 490.275 -138.22 469.41 -137.274 448.818C-135.864 428.316 -133.033 408.044 -128.765 388.052C-124.074 368.121 -118.143 348.905 -111.023 330.444C-103.657 312.019 -95.2546 294.303 -85.9138 277.351C-76.5061 260.41 -66.2937 244.214 -55.3939 228.792C-44.5831 213.357 -33.1741 198.684 -21.2875 184.826C-9.6458 170.931 2.42893 157.844 14.8477 145.552C26.8913 133.182 39.2788 121.606 51.9436 110.815C64.1951 99.8941 76.7523 89.7158 89.5899 80.2995C102.052 70.6425 114.83 61.6595 127.923 53.3506C140.723 44.6966 153.918 36.6352 167.494 29.0946C180.883 21.1079 194.73 13.5834 209.064 6.47865C223.292 -1.17651 238.064 -8.49664 253.352 -15.4393C268.613 -23.014 284.469 -30.2927 300.866 -37.2136C317.304 -44.7567 334.279 -51.9192 351.833 -58.6717C369.384 -65.89 387.501 -72.6072 406.095 -78.6733C424.701 -84.9935 443.786 -90.4997 463.284 -95.0616C482.776 -99.5779 502.672 -102.919 522.952 -104.924" stroke="url(#paint2_linear_140_68)" stroke-width="2" stroke-linecap="round" stroke-dasharray="4 7"/>
<path opacity="0.89" d="M568.898 -73.2506C588.537 -73.4991 608.015 -72.2049 627.273 -69.4274C646.475 -66.0498 665.483 -61.0892 684.297 -54.5457C703.014 -47.3168 721.585 -38.5178 739.977 -28.2033C758.324 -17.2389 776.55 -4.8169 794.591 8.93067C812.654 23.2252 830.573 38.7602 848.292 55.3584C866.035 72.3863 883.563 90.3326 900.807 109.088C917.986 128.041 934.773 147.662 951.063 167.787C967.124 187.907 982.5 208.443 997.005 229.187C1011.01 249.798 1023.93 270.524 1035.54 291.267C1046.34 311.714 1055.58 332.102 1063.05 352.333C1069.42 372.182 1073.83 391.836 1076.11 411.233C1077.18 430.247 1076.06 448.989 1072.73 467.506C1068.28 485.658 1061.78 503.64 1053.29 521.422C1044.16 538.991 1033.43 556.514 1021.33 574.017C1009.29 591.513 996.45 609.137 983.105 626.957C970.667 644.952 958.295 663.292 946.305 681.999C935.964 701.069 926.614 720.121 918.35 739.153C911.98 758.578 906.617 777.919 902.235 797.075C899.489 816.544 897.399 835.733 895.73 854.449C895.183 873.295 894.649 891.531 893.888 908.986C893.587 926.331 892.616 942.703 890.823 957.953C887.398 979.675 873.731 1015.49 863.098 1029.15C850.057 1040.37 816.346 1053.9 796.067 1056.43C781.581 1057.32 766.147 1056.92 749.879 1055.34C733.164 1053.8 715.718 1051.38 697.703 1048.26C679.311 1045.63 660.394 1042.64 641.08 1039.48C621.42 1037.29 601.406 1035.27 581.124 1033.54C560.488 1033.17 539.606 1033.31 518.548 1034.07C497.179 1036.31 475.63 1039.21 454.01 1042.65C432.113 1047.42 410.184 1052.56 388.314 1057.85C366.275 1063.96 344.854 1069.63 324.148 1074.64C303.405 1079.71 283.433 1083.63 264.255 1086.18C245.13 1088.14 226.875 1088.36 209.465 1086.75C192.153 1084.11 175.707 1079.43 160.118 1072.75C144.615 1064.89 129.908 1054.98 115.984 1043.2C102.095 1030.27 88.9168 1015.59 76.3864 999.36C63.8251 982.177 51.8641 963.665 40.4875 944.01C28.9652 923.733 17.9755 902.561 7.47589 880.695C-3.15543 858.471 -13.2952 835.766 -22.9324 812.747C-32.6873 789.632 -41.9194 766.325 -50.5784 743.027C-59.2861 719.742 -67.3471 696.552 -74.6828 673.521C-81.9542 650.623 -88.4392 627.921 -94.02 605.512C-99.3874 583.292 -103.802 561.352 -107.137 539.743C-110.121 518.33 -111.977 497.236 -112.626 476.525C-112.823 455.961 -111.764 435.767 -109.401 415.932C-106.546 396.275 -102.382 376.953 -96.8572 358.048C-90.9415 339.253 -83.8425 321.284 -75.7014 304.157C-67.2919 287.066 -57.9502 270.792 -47.747 255.343C-37.4778 239.91 -26.4523 225.255 -14.8212 211.44C-3.26849 197.561 8.82387 184.508 21.3288 172.229C33.614 159.901 46.2897 148.342 59.2414 137.551C71.8949 126.648 84.8024 116.506 97.9419 107.123C110.736 97.5227 123.75 88.6301 136.983 80.4455C149.907 71.9809 163.069 64.1341 176.492 56.9101C189.646 49.3207 203.129 42.2512 216.939 35.7014C230.548 28.6834 244.597 22.092 259.015 15.935C273.365 9.22144 288.186 2.89413 303.488 -3.09186C318.749 -9.65222 334.534 -15.8616 350.816 -21.7023C367.097 -28.0853 383.937 -34.0625 401.229 -39.5633C418.566 -45.5017 436.408 -50.8817 454.658 -55.5825C472.93 -60.4908 491.648 -64.5704 510.719 -67.7007C529.754 -70.7681 549.165 -72.669 568.876 -73.2554" stroke="url(#paint3_linear_140_68)" stroke-width="2" stroke-linecap="round" stroke-dasharray="2 1"/>
<path opacity="0.85" d="M611.592 -37.9412C630.549 -36.8686 649.291 -34.3729 667.768 -30.4449C686.123 -26.0017 704.237 -20.0469 722.053 -12.6219C739.759 -4.55825 757.215 4.96632 774.364 15.9104C791.451 27.4839 808.278 40.3947 824.812 54.586C841.274 69.2832 857.475 85.1502 873.345 102.022C889.146 119.305 904.582 137.463 919.593 156.382C934.455 175.496 948.814 195.229 962.508 215.412C975.911 235.628 988.544 256.168 1000.22 276.877C1011.37 297.433 1021.4 318.064 1030.1 338.632C1038.04 358.881 1044.45 378.989 1049.18 398.836C1052.97 418.307 1054.9 437.467 1054.88 456.261C1053.82 474.631 1050.81 492.658 1045.8 510.285C1039.91 527.577 1032.16 544.535 1022.67 561.215C1012.69 577.652 1001.29 593.957 988.72 610.106C976.237 626.281 963.043 642.484 949.383 658.765C936.558 675.318 923.742 692.089 911.222 709.14C900.163 726.649 889.962 744.101 880.72 761.478C873.139 779.348 866.464 797.079 860.678 814.643C856.358 832.57 852.644 850.174 849.417 867.298C847.229 884.636 845.152 901.334 842.973 917.235C841.34 933.106 839.242 947.976 836.545 961.733C832.105 981.327 818.018 1013.02 807.98 1024.77C796.034 1034.24 765.654 1044.77 747.5 1046.07C734.532 1046.24 720.669 1045.2 706.045 1043.04C690.942 1041 675.116 1038.12 658.703 1034.59C641.847 1031.55 624.458 1028.16 606.569 1024.55C588.304 1021.86 569.572 1019.25 550.472 1016.86C530.984 1015.68 511.143 1014.92 491.013 1014.6C470.508 1015.61 449.772 1017.11 428.847 1019.02C407.64 1022.1 386.292 1025.43 364.969 1028.83C343.44 1032.97 322.486 1036.72 302.22 1039.87C281.886 1043.09 262.337 1045.27 243.561 1046.29C224.879 1046.81 207.071 1045.81 190.138 1043.21C173.364 1039.71 157.467 1034.44 142.469 1027.39C127.628 1019.29 113.65 1009.39 100.502 997.785C87.4419 985.129 75.1807 970.888 63.6381 955.181C52.148 938.627 41.3048 920.777 31.117 901.852C20.876 882.287 11.2342 861.844 2.14133 840.701C-7.00878 819.182 -15.6167 797.152 -23.6831 774.779C-31.792 752.226 -39.332 729.482 -46.2914 706.67C-53.2355 683.887 -59.5312 661.129 -65.102 638.538C-70.5773 616.023 -75.2817 593.761 -79.1288 571.778C-82.748 549.982 -85.4452 528.485 -87.1157 507.411C-88.4658 486.529 -88.7553 466.034 -87.867 446.009C-86.581 426.149 -84.111 406.738 -80.411 387.859C-76.2792 369.108 -70.9049 350.847 -64.2574 333.131C-57.2151 315.509 -49.1264 298.82 -40.0993 283.034C-30.8131 267.325 -20.6749 252.493 -9.77095 238.512C1.21934 224.556 12.8674 211.419 25.0527 199.113C37.2011 186.772 49.8004 175.236 62.7859 164.487C75.568 153.629 88.6931 143.545 102.047 134.224C115.167 124.738 128.485 115.958 141.979 107.878C155.187 99.5692 168.578 91.9381 182.149 84.9121C195.425 77.6065 208.914 70.868 222.596 64.6904C236.063 58.1133 249.785 52.0434 263.789 46.465C277.647 40.4115 291.827 34.7895 306.364 29.5612C320.81 23.8263 335.69 18.4601 350.955 13.4719C366.212 7.93002 381.925 2.76323 398.081 -1.98421C414.261 -7.22833 430.877 -12.0309 447.933 -16.3193C465.031 -21.003 482.537 -25.0618 500.432 -28.4294C518.313 -31.9931 536.583 -34.698 555.146 -36.4524C573.69 -38.1405 592.498 -38.6948 611.57 -37.9476" stroke="url(#paint4_linear_140_68)" stroke-width="2" stroke-linecap="round" stroke-dasharray="10 7"/>
<path opacity="0.81" d="M650.426 0.653016C668.62 2.94746 686.531 6.55935 704.104 11.5161C721.535 16.9348 738.632 23.7494 755.375 31.9522C771.944 40.7033 788.188 50.8288 804.03 62.2753C819.727 74.2565 835.08 87.5313 850 101.944C864.813 116.856 879.224 132.82 893.173 149.738C906.99 167.023 920.307 185.102 933.062 203.877C945.618 222.872 957.534 242.386 968.683 262.298C979.519 282.215 989.465 302.411 998.434 322.728C1006.87 342.868 1014.15 363.015 1020.13 383.041C1025.39 402.746 1029.22 422.23 1031.45 441.38C1032.85 460.147 1032.56 478.517 1030.5 496.446C1027.57 513.946 1022.88 531.004 1016.45 547.599C1009.27 563.843 1000.5 579.679 990.206 595.139C979.528 610.405 967.649 625.414 954.702 640.193C941.933 655.014 928.51 669.785 914.661 684.543C901.572 699.587 888.47 714.798 875.583 730.213C863.961 746.104 853.11 761.919 843.066 777.62C834.506 793.857 826.748 809.929 819.778 825.807C814.118 842.106 809.079 858.075 804.503 873.555C800.886 889.299 797.474 904.408 794.085 918.716C789.69 939.763 779.283 976.289 772.554 991.227C764.759 1004.27 744.194 1022.46 731.304 1027.54C716.822 1030.72 682.789 1030.18 663.448 1027.01C649.864 1024.69 635.578 1021.58 620.686 1017.83C605.317 1014.54 589.376 1010.91 572.923 1007.04C555.998 1003.95 538.574 1000.91 520.726 997.989C502.407 996.113 483.673 994.523 464.581 993.264C445.086 993.129 425.266 993.363 405.225 993.882C384.826 995.395 364.281 997.049 343.665 998.701C322.845 1000.99 302.541 1002.9 282.887 1004.28C263.172 1005.76 244.181 1006.35 225.983 1005.87C207.874 1005.01 190.616 1002.85 174.254 999.254C158.077 994.946 142.793 989.085 128.417 981.628C114.26 973.295 100.99 963.359 88.5843 951.882C76.3546 939.515 64.9371 925.687 54.3059 910.535C43.7988 894.571 33.9949 877.448 24.9188 859.299C15.8681 840.547 7.46189 820.932 -0.340683 800.637C-8.10346 779.964 -15.2959 758.77 -21.8801 737.217C-28.4578 715.444 -34.4394 693.48 -39.7927 671.433C-45.0883 649.359 -49.7157 627.291 -53.6369 605.391C-57.4183 583.569 -60.438 561.96 -62.6428 540.683C-64.6099 519.545 -65.6988 498.762 -65.8273 478.44C-65.6127 458.296 -64.4088 438.599 -62.1546 419.445C-59.4862 400.472 -55.7097 382.015 -50.8062 364.154C-45.5096 346.466 -39.0361 329.37 -31.4067 312.856C-23.4265 296.499 -14.4801 281.121 -4.73071 266.707C5.30847 252.354 16.0874 238.942 27.5161 226.389C39.0713 213.884 51.1919 202.206 63.7914 191.395C76.3719 180.504 89.3547 170.426 102.634 161.124C115.81 151.709 129.257 143.009 142.886 135.066C156.331 126.906 169.953 119.451 183.705 112.634C197.237 105.562 210.908 99.1065 224.703 93.2383C238.259 87.0345 252.005 81.3688 265.899 76.2251C279.62 70.6971 293.561 65.6205 307.703 60.9875C321.737 55.9212 336.065 51.2358 350.651 46.9667C365.203 42.1936 380.09 37.8174 395.323 33.8164C410.562 29.3275 426.188 25.2296 442.165 21.5583C458.204 17.4444 474.598 13.8081 491.375 10.7086C508.155 7.26665 525.299 4.47755 542.771 2.37657C560.24 0.151592 577.99 -1.25559 595.987 -1.68564C613.92 -2.06676 632.075 -1.33308 650.398 0.666661" stroke="url(#paint5_linear_140_68)" stroke-width="2" stroke-linecap="round"/>
<path opacity="0.77" d="M684.775 42.0357C702.123 45.4173 719.117 50.0507 735.698 55.9077C752.115 62.1942 768.119 69.7557 783.69 78.5827C799.049 87.8928 813.976 98.4684 828.436 110.218C842.715 122.491 856.517 135.907 869.795 150.346C882.891 165.256 895.492 181.124 907.512 197.811C919.324 214.857 930.551 232.618 941.118 250.984C951.39 269.516 960.966 288.511 969.679 307.841C978.051 327.164 985.495 346.691 991.914 366.25C997.804 385.666 1002.56 405.016 1006.07 424.139C1008.93 442.991 1010.41 461.559 1010.42 479.704C1009.71 497.488 1007.46 514.841 1003.65 531.65C999.108 548.098 992.999 564.023 985.369 579.424C977.164 594.509 967.562 609.126 956.633 623.283C945.457 637.275 933.223 650.981 920.08 664.343C907.133 677.821 893.606 691.157 879.695 704.418C866.469 717.969 853.217 731.635 840.09 745.409C828.1 759.682 816.75 773.846 806.137 787.845C796.795 802.431 788.18 816.821 780.289 830.965C773.535 845.608 767.36 859.886 761.681 873.711C754.609 894.574 742.072 932.872 735.878 949.718C722.162 977.569 695.241 1005.52 683.454 1009.68C670.381 1012.11 639.882 1010.72 622.534 1007.34C610.315 1004.91 597.412 1001.73 583.912 997.952C569.965 994.573 555.39 990.829 540.279 986.787C524.675 983.477 508.555 980.106 491.942 976.735C474.823 974.293 457.267 972.002 439.306 969.904C420.891 968.784 402.101 967.844 383.056 967.09C363.633 967.197 344 967.333 324.304 967.39C304.347 967.983 284.889 968.225 265.995 967.97C247.055 967.82 228.799 966.899 211.321 965.049C193.901 962.897 177.331 959.597 161.639 955.084C146.134 949.977 131.542 943.521 117.851 935.688C104.392 927.103 91.8526 917.099 80.1957 905.758C68.7594 893.635 58.1872 880.218 48.4128 865.603C38.8219 850.29 30.0123 833.872 21.9418 816.557C13.979 798.66 6.7092 779.971 0.118033 760.636C-6.39824 740.905 -12.2707 720.664 -17.5118 700.107C-22.6515 679.319 -27.1761 658.31 -31.0591 637.243C-34.8253 616.079 -37.9253 594.969 -40.3161 573.985C-42.5635 553.067 -44.0175 532.363 -44.7133 512.009C-45.1631 491.768 -44.7428 471.904 -43.4484 452.519C-41.8446 433.327 -39.2958 414.621 -35.7592 396.473C-31.8517 378.546 -26.9357 361.186 -20.9683 344.462C-14.6208 327.939 -7.22181 312.053 1.23984 296.833C10.0499 281.775 19.6951 267.734 30.0523 254.652C40.6556 241.684 51.9094 229.648 63.7616 218.494C75.7162 207.388 88.1872 197.126 101.054 187.704C113.918 178.229 127.155 169.534 140.654 161.59C154.057 153.527 167.69 146.175 181.49 139.508C195.132 132.641 208.931 126.427 222.843 120.797C236.585 114.936 250.438 109.606 264.385 104.85C278.167 99.7406 292.07 95.1412 306.112 91.0103C320.007 86.4834 334.081 82.3924 348.323 78.7583C362.477 74.6536 376.878 70.9408 391.516 67.6409C406.115 63.8682 420.991 60.4758 436.155 57.4942C451.321 54.0588 466.805 51.0226 482.579 48.4486C498.407 45.4703 514.557 42.9941 530.96 41.064C547.412 38.8536 564.151 37.2808 581.119 36.4201C598.083 35.4565 615.261 35.2985 632.586 36.0932C649.855 36.9624 667.266 38.9082 684.754 42.0262" stroke="url(#paint6_linear_140_68)" stroke-width="2" stroke-linecap="round" stroke-dasharray="1 7"/>
<path opacity="0.73" d="M714.115 85.5214C730.54 89.9211 746.53 95.4411 762.035 102.08C777.368 109.095 792.205 117.249 806.516 126.551C820.603 136.28 834.194 147.147 847.191 159.047C860.005 171.396 872.225 184.777 883.866 199.068C895.263 213.774 906.053 229.297 916.168 245.571C926.063 262.117 935.246 279.291 943.7 296.978C951.828 314.799 959.18 333.03 965.631 351.47C971.719 369.919 976.859 388.473 980.964 407.006C984.58 425.4 987.074 443.646 988.369 461.65C989.087 479.388 988.519 496.757 986.627 513.684C984.11 530.292 980.22 546.405 974.919 561.949C969.054 577.156 961.806 591.836 953.219 605.909C944.207 619.721 933.972 633.042 922.626 645.855C911.112 658.549 898.683 670.896 885.5 682.879C872.485 694.981 858.983 706.893 845.173 718.662C831.926 730.767 818.649 742.881 805.451 755.04C793.234 767.712 781.585 780.227 770.594 792.556C760.693 805.486 751.421 818.187 742.81 830.651C735.221 843.6 728.165 856.214 721.596 868.339C713.062 886.783 697.946 920.535 690.756 935.3C676.022 959.768 649.649 983.993 638.788 987.421C626.833 989.384 599.311 987.55 583.701 984.175C566.83 980.236 529.414 969.73 508.931 963.773C494.59 960.313 479.722 956.693 464.321 953.015C448.436 950.116 432.057 947.233 415.264 944.409C397.995 942.395 380.341 940.483 362.394 938.592C344.064 937.432 325.515 936.203 306.85 934.806C287.93 933.896 269.452 932.628 251.49 930.912C233.486 929.278 216.115 926.972 199.471 923.864C182.905 920.511 167.151 916.194 152.233 910.82C137.52 904.958 123.676 897.927 110.751 889.729C98.0559 880.899 86.2813 870.85 75.3755 859.632C64.7405 847.752 54.9836 834.735 46.062 820.661C37.3594 805.976 29.4497 790.315 22.3282 773.834C15.3725 756.842 9.16258 739.11 3.66335 720.803C-1.70508 702.149 -6.38559 683.011 -10.4024 663.533C-14.2732 643.873 -17.4833 623.977 -20.0281 604.028C-22.4299 584.002 -24.1482 563.986 -25.1569 544.126C-25.986 524.313 -26.0675 504.729 -25.374 485.467C-24.4735 466.346 -22.7293 447.611 -20.1645 429.355C-17.3027 411.263 -13.5517 393.713 -8.90221 376.737C-3.9071 359.978 2.01539 343.835 8.89413 328.35C16.1292 313.061 24.3099 298.451 33.4651 284.56C42.9371 270.845 53.1037 258.14 63.9252 246.424C74.9751 234.808 86.5811 224.126 98.6943 214.326C110.937 204.571 123.597 195.673 136.606 187.57C149.636 179.426 162.976 172.054 176.556 165.39C190.089 158.622 203.804 152.529 217.64 147.079C231.402 141.431 245.277 136.395 259.246 131.907C273.092 127.169 287.013 122.969 301.03 119.266C314.915 115.229 328.919 111.65 343.019 108.517C357.01 105.009 371.16 101.929 385.419 99.2228C399.649 96.1347 414.059 93.4334 428.64 91.0878C443.232 88.3303 458.035 85.9504 473.047 83.9993C488.081 81.6161 503.385 79.6431 518.896 78.1505C534.467 76.2991 550.275 74.9703 566.278 74.1936C582.309 73.1705 598.542 72.7822 614.935 73.11C631.331 73.3348 647.834 74.3771 664.432 76.3086C680.957 78.3306 697.542 81.3542 714.095 85.5105" stroke="url(#paint7_linear_140_68)" stroke-width="2" stroke-linecap="round" stroke-dasharray="2 5"/>
<path opacity="0.7" d="M738.015 130.388C753.429 135.666 768.33 141.947 782.699 149.219C796.864 156.821 810.472 165.454 823.511 175.052C836.31 185.04 848.496 196.021 860.055 207.931C871.366 220.198 882.044 233.363 892.029 247.306C901.778 261.586 910.821 276.58 919.143 292.225C927.183 308.068 934.463 324.454 940.947 341.224C947.084 358.124 952.406 375.312 956.814 392.643C960.86 409.959 963.921 427.317 965.971 444.592C967.587 461.749 968.114 478.69 967.517 495.34C966.421 511.72 964.139 527.74 960.66 543.284C956.644 558.534 951.407 573.265 944.934 587.413C938.005 601.265 929.878 614.558 920.627 627.259C911.022 639.758 900.388 651.726 888.807 663.162C877.118 674.555 864.653 685.526 851.556 696.143C838.629 706.87 825.28 717.377 811.646 727.7C798.544 738.367 785.378 748.966 772.261 759.57C759.974 770.684 748.193 781.581 736.994 792.31C726.712 803.58 717.005 814.65 707.903 825.43C695.785 842.215 675.013 874.268 665.924 889.118C657.774 903.569 642.095 928.321 634.119 938.223C616.941 952.736 586.662 963.006 574.596 962.516C561.516 961.041 532.037 954.031 515.624 948.95C504.062 945.706 491.916 942.028 479.23 937.974C466.09 934.443 452.376 930.676 438.173 926.756C423.492 923.479 408.316 920.1 392.708 916.686C376.63 913.949 360.183 911.163 343.423 908.283C326.277 906.026 308.885 903.608 291.393 900.963C273.631 898.714 256.258 896.092 239.388 893.086C222.439 890.166 206.099 886.604 190.41 882.375C174.83 877.97 159.99 872.71 145.965 866.561C132.119 860.037 119.14 852.494 107.037 843.966C95.1649 834.933 84.2037 824.855 74.1106 813.759C64.292 802.133 55.3483 789.52 47.2625 775.991C39.4202 761.939 32.3878 747.048 26.155 731.423C20.1367 715.364 14.889 698.66 10.3899 681.432C6.06413 663.881 2.44574 645.916 -0.456179 627.653C-3.18792 609.2 -5.25635 590.577 -6.60956 571.874C-7.79568 553.114 -8.27663 534.376 -8.08655 515.8C-7.67745 497.258 -6.53336 478.946 -4.6713 460.937C-2.56231 443.087 0.328594 425.609 3.99832 408.635C7.93397 391.833 12.6985 375.542 18.3127 359.856C24.2189 344.387 30.9937 329.535 38.6013 315.36C46.5508 301.406 55.364 288.121 65.0428 275.589C75.0376 263.233 85.6228 251.861 96.7484 241.465C108.095 231.186 119.918 221.815 132.167 213.348C144.548 204.884 157.279 197.274 170.308 190.43C183.411 183.552 196.744 177.422 210.274 171.965C223.801 166.426 237.48 161.502 251.28 157.201C265.019 152.698 278.871 148.786 292.785 145.378C306.619 141.754 320.539 138.594 334.514 135.907C348.437 132.913 362.409 130.36 376.471 128.219C390.468 125.71 404.587 123.606 418.79 121.884C432.978 119.798 447.324 118.06 461.772 116.715C476.268 114.992 490.91 113.637 505.704 112.68C520.553 111.376 535.573 110.484 550.741 110.042C565.966 109.337 581.345 109.113 596.861 109.442C612.398 109.566 628.074 110.326 643.816 111.755C659.544 113.121 675.308 115.246 691.087 118.252C706.779 121.312 722.438 125.332 737.984 130.395" stroke="url(#paint8_linear_140_68)" stroke-width="2" stroke-linecap="round" stroke-dasharray="4 6"/>
<path opacity="0.66" d="M756.165 175.831C770.496 181.837 784.268 188.737 797.445 196.504C810.422 204.55 822.773 213.467 834.479 223.243C845.941 233.32 856.745 244.274 866.872 255.976C876.728 268.017 885.888 280.792 894.309 294.21C902.466 307.916 909.86 322.218 916.489 337.002C922.81 351.982 928.356 367.379 933.06 383.056C937.41 398.837 940.934 414.797 943.536 430.834C945.766 446.846 947.06 462.84 947.369 478.69C947.271 494.406 946.161 509.901 943.999 525.032C941.404 539.951 937.723 554.479 932.971 568.514C927.795 582.286 921.513 595.538 914.196 608.21C906.49 620.646 897.737 632.52 888.043 643.799C878.087 654.938 867.246 665.523 855.622 675.604C843.944 685.643 831.597 695.293 818.725 704.546C806.021 713.955 792.955 723.09 779.648 732.016C766.777 741.269 753.827 750.436 740.945 759.509C728.737 769.121 716.99 778.479 705.74 787.612C690.279 802.063 663.11 830.364 651.274 844.003C640.725 857.755 621.836 882.806 613.133 893.716C596.495 911.942 570.287 929.813 560.556 932.168C538.535 932.517 499.936 924.935 484.915 920.124C468.773 915.24 433.249 904 413.901 897.984C400.365 894.408 386.369 890.657 371.98 886.752C357.111 883.4 341.893 879.872 326.365 876.194C310.471 872.985 294.369 869.561 278.094 865.835C261.61 862.438 245.461 858.692 229.797 854.541C214.023 850.506 198.805 845.89 184.225 840.697C169.721 835.361 155.916 829.322 142.877 822.489C130.007 815.382 117.962 807.439 106.754 798.64C95.7945 789.457 85.6814 779.367 76.4423 768.449C67.4734 757.078 59.3473 744.883 52.0864 731.911C45.0825 718.503 38.8907 704.393 33.5206 689.643C28.3723 674.547 24.0237 658.88 20.4131 642.77C17.0386 626.408 14.3801 609.672 12.4387 592.675C10.7163 575.529 9.68051 558.243 9.34091 540.882C9.20799 523.505 9.75417 506.154 10.9985 488.958C12.4591 471.81 14.614 454.901 17.491 438.307C20.6119 421.84 24.4644 405.754 29.0314 390.149C33.8833 374.731 39.4859 359.821 45.8535 345.518C52.4926 331.419 59.9149 317.94 68.1432 305.126C76.6297 292.536 85.9088 280.629 95.9721 269.457C106.302 258.458 117.149 248.449 128.466 239.339C139.952 230.383 151.853 222.286 164.122 215.038C176.513 207.853 189.212 201.443 202.169 195.801C215.171 190.136 228.403 185.159 241.799 180.849C255.212 176.437 268.747 172.633 282.4 169.403C295.997 166.017 309.702 163.142 323.483 160.781C337.213 158.182 351.01 156.034 364.842 154.341C378.649 152.372 392.514 150.79 406.435 149.594C420.328 148.09 434.309 146.967 448.36 146.213C462.409 145.112 476.573 144.357 490.794 143.987C505.093 143.276 519.481 142.947 533.958 142.999C548.486 142.747 563.139 142.904 577.872 143.493C592.671 143.874 607.536 144.706 622.47 146.104C637.424 147.317 652.42 149.134 667.416 151.609C682.403 154.02 697.352 157.146 712.213 161.092C727.003 165.099 741.665 169.983 756.147 175.817" stroke="url(#paint9_linear_140_68)" stroke-width="2" stroke-linecap="round" stroke-dasharray="5 6"/>
<path opacity="0.62" d="M768.434 220.93C781.63 227.538 794.216 234.916 806.159 243.033C817.909 251.346 828.987 260.433 839.37 270.215C859.449 290.57 876.654 313.712 890.82 338.983C903.893 365.145 913.787 393.073 920.371 421.895C925.683 450.968 927.476 480.299 925.585 509.019C922.285 537.266 915.127 564.296 904.091 589.456C891.694 613.731 875.535 635.996 855.921 655.882C835.615 675.286 812.55 692.859 787.382 708.627C775.039 716.737 762.371 724.563 749.492 732.145C736.99 740.055 724.397 747.826 711.86 755.494C699.854 763.625 688.261 771.542 677.143 779.207C666.641 787.41 656.614 795.362 647.076 803.044C629.786 819.846 614.123 835.223 599.919 848.667C587.286 863.238 575.256 875.13 563.508 883.909C552.148 892.967 540.289 898.504 527.669 900.443C514.432 902.45 499.845 901.071 483.853 896.621C466.525 892.821 447.382 886.621 426.523 878.471C403.912 871.756 379.445 863.757 353.444 854.691C339.812 850.847 325.84 846.738 311.594 842.389C296.978 838.414 282.182 834.16 267.26 829.524C252.09 825.186 237.274 820.492 222.843 815.407C208.356 810.425 194.389 804.959 180.986 798.956C154.398 786.686 130.61 771.686 109.928 754.011C90.1565 735.133 73.6879 713.238 60.558 688.78C48.489 663.009 39.6181 634.915 33.8258 605.211C28.9717 574.662 27.0178 543.073 27.8865 511.284C29.5765 479.394 34.0056 447.867 41.1889 417.502C49.2445 387.686 60.1044 359.469 73.7538 333.472C80.971 320.802 88.8728 308.728 97.4961 297.314C106.376 286.123 115.946 275.595 126.257 265.774C136.759 256.149 147.715 247.435 159.059 239.604C170.575 231.922 182.442 225.061 194.611 219.008C219.268 207.089 244.932 198.044 271.165 191.584C297.534 184.818 324.362 180.236 351.374 177.6C378.356 174.183 405.613 172.426 432.909 172.185C460.261 170.845 487.914 170.885 515.642 172.292C543.588 172.618 571.84 174.391 600.14 177.809C628.665 180.425 657.279 184.994 685.579 191.86C699.732 195.22 713.779 199.274 727.658 204.029C741.462 208.839 755.073 214.449 768.417 220.915" stroke="url(#paint10_linear_140_68)" stroke-width="2" stroke-linecap="round" stroke-dasharray="4 8"/>
<path opacity="0.58" d="M774.829 264.821C798.713 279.144 819.95 296.003 838.348 315.072C855.879 335.013 870.427 357.118 881.86 380.867C892.234 405.294 899.425 430.975 903.298 457.161C905.998 483.522 905.295 509.852 901.12 535.37C895.716 560.46 886.772 584.283 874.424 606.234C860.942 627.496 844.23 646.802 824.603 663.891C804.465 680.658 782.006 695.641 757.813 708.915C734.215 722.85 709.782 735.882 685.166 748.117C662.363 762.142 641.046 775.207 621.515 787.261C603.94 801.185 587.879 813.758 573.232 824.623C559.9 836.68 547.293 846.401 535.217 853.461C517.507 863.216 479.37 867.67 457.452 862.743C441.268 859.093 423.568 853.178 404.403 845.275C383.643 838.543 361.28 830.297 337.585 820.745C312.33 812.593 286.013 803.148 259.142 792.243C231.405 782.243 205.132 770.647 180.845 757.403C156.732 744.011 135.219 728.296 116.61 710.369C98.8356 691.603 84.1845 670.362 72.7243 647.037C62.2723 622.757 54.9492 596.557 50.6501 569.104C47.2832 541.072 46.8172 512.213 49.1006 483.309C52.2422 454.398 58.0583 425.915 66.4924 398.612C75.7422 371.838 87.6455 346.634 102.128 323.57C117.477 301.345 135.439 281.423 155.923 264.261C177.209 247.873 199.958 234.825 223.705 224.879C247.916 215.238 272.964 208.309 298.48 203.785C324.201 199.048 350.323 196.392 376.572 195.51C402.896 193.992 429.441 194.052 455.983 195.497C482.661 196.076 509.509 197.925 536.306 201.11C563.365 203.396 590.533 207.05 617.54 212.252C644.732 216.834 671.767 223.225 698.265 231.723C724.699 240.124 750.362 251.042 774.781 264.806" stroke="url(#paint11_linear_140_68)" stroke-width="2" stroke-linecap="round" stroke-dasharray="1 6"/>
<path opacity="0.54" d="M775.508 306.654C797.028 321.555 815.819 338.441 831.723 357.023C846.79 376.271 858.88 397.145 867.861 419.147C875.872 441.659 880.731 464.971 882.378 488.458C882.971 512.009 880.316 535.277 874.453 557.61C867.545 579.568 857.449 600.234 844.325 619.064C830.34 637.382 813.551 653.846 794.306 668.23C774.705 682.446 753.131 695.004 730.128 705.907C707.638 717.544 684.411 728.189 660.995 737.989C638.995 749.428 618.31 759.888 599.196 769.385C581.652 780.596 565.471 790.569 550.62 799.06C536.829 808.742 523.84 816.434 511.482 821.832C493.429 829.535 455.881 832.221 435.025 827.332C419.791 823.771 403.332 818.03 385.716 810.323C366.659 803.554 346.265 795.169 324.799 785.264C301.962 776.449 278.21 766.156 254.074 754.274C229.18 743.111 205.632 730.449 183.97 716.322C162.405 702.168 143.266 686.061 126.812 668.162C111.078 649.672 98.2807 629.195 88.4915 607.126C79.6352 584.365 73.7816 560.11 70.8473 534.961C68.7967 509.409 69.549 483.314 73.0042 457.29C77.2487 431.38 84.0907 405.974 93.4261 381.752C103.528 358.035 116.087 335.841 131.024 315.705C146.709 296.367 164.797 279.217 185.166 264.674C206.191 250.89 228.45 240.202 251.558 232.373C275.075 224.88 299.303 219.912 323.924 217.171C348.744 214.311 373.942 213.385 399.215 214.144C424.646 214.391 450.245 216.117 475.78 219.161C501.486 221.497 527.293 225.063 552.932 229.859C578.818 233.969 604.645 239.365 630.115 246.19C655.791 252.523 681.08 260.528 705.574 270.393C730.023 280.206 753.483 292.21 775.508 306.654Z" stroke="url(#paint12_linear_140_68)" stroke-width="2" stroke-linecap="round" stroke-dasharray="10 10"/>
<path opacity="0.51" d="M770.879 345.644C789.991 360.815 806.38 377.457 819.904 395.305C832.692 413.645 842.547 433.1 849.396 453.233C855.333 473.735 858.252 494.634 858.144 515.386C857.101 536.176 853.032 556.442 846.065 575.675C838.192 594.604 827.49 612.215 814.141 628.104C800.104 643.604 783.658 657.397 765.151 669.269C746.405 681.126 725.985 691.425 704.37 700.166C683.176 709.621 661.306 718.097 639.248 725.677C618.283 734.72 598.469 742.8 580.021 749.982C562.753 758.703 546.719 766.309 531.877 772.631C517.9 780.072 504.702 785.828 492.167 789.669C473.865 795.342 436.777 796.009 416.809 790.975C402.398 787.35 387.045 781.708 370.817 774.14C353.338 767.323 334.826 758.822 315.511 748.717C294.981 739.45 273.792 728.582 252.414 716.063C230.306 704.118 209.532 690.776 190.507 676.176C171.544 661.585 154.809 645.389 140.55 627.769C126.898 609.789 115.963 590.254 107.831 569.504C100.521 548.339 96.0278 526.094 94.3108 503.205C93.4192 480.133 95.1813 456.746 99.5222 433.625C104.598 410.653 112.129 388.277 122.043 367.076C132.609 346.408 145.487 327.203 160.557 309.904C176.247 293.396 194.111 278.923 214.051 266.883C234.551 255.593 256.066 247.134 278.304 241.27C300.879 235.781 324.099 232.63 347.6 231.521C371.344 230.395 395.39 231.036 419.488 233.261C443.78 235.102 468.181 238.337 492.469 242.822C516.954 246.775 541.45 251.879 565.671 258.13C590.12 263.852 614.366 270.78 638.126 278.989C662.027 286.855 685.372 296.174 707.771 307.107C730.089 318.045 751.272 330.834 770.879 345.644Z" stroke="url(#paint13_linear_140_68)" stroke-width="2" stroke-linecap="round" stroke-dasharray="9 3"/>
<path opacity="0.47" d="M761.392 381.105C778.128 396.251 792.211 412.42 803.554 429.312C814.241 446.565 822.07 464.482 827.086 482.674C831.321 501.118 832.689 519.626 831.265 537.732C829.037 555.803 824.051 573.228 816.463 589.543C808.127 605.619 797.273 620.418 784.15 633.577C770.492 646.492 754.764 657.826 737.274 667.426C719.627 677.078 700.577 685.304 680.512 692.121C660.773 699.571 640.428 706.08 619.844 711.674C600.102 718.575 581.311 724.528 563.696 729.631C546.992 736.105 531.321 741.548 516.733 745.872C496.178 753.268 458.633 761.258 440.635 761.127C428.361 760.848 415.809 758.55 402.928 754.32C389.266 750.509 374.952 744.848 360.027 737.364C344.047 730.457 327.326 721.897 310.069 711.713C291.781 702.144 273.083 690.976 254.372 678.159C235.011 665.755 216.965 652.13 200.569 637.388C184.173 622.729 169.809 606.75 157.756 589.676C146.159 572.432 137.055 553.998 130.553 534.713C124.726 515.221 121.502 494.96 120.873 474.379C120.936 453.743 123.53 433.023 128.529 412.691C134.164 392.591 142.114 373.16 152.279 354.908C163.009 337.157 175.858 320.814 190.733 306.276C206.116 292.443 223.467 280.535 242.703 270.884C262.373 261.907 282.936 255.527 304.068 251.494C325.53 247.846 347.493 246.315 369.717 246.651C392.152 247.065 414.861 249.115 437.558 252.609C460.461 255.88 483.427 260.461 506.233 266.173C529.258 271.514 552.179 277.948 574.728 285.435C597.515 292.539 619.985 300.74 641.809 310.07C663.759 319.176 685.017 329.551 705.216 341.249C725.328 352.98 744.192 366.244 761.392 381.105Z" stroke="url(#paint14_linear_140_68)" stroke-width="2" stroke-linecap="round" stroke-dasharray="6 3"/>
<path opacity="0.43" d="M747.633 412.498C762.088 427.339 774.006 442.773 783.323 458.545C792.089 474.582 798.191 490.888 801.684 507.141C804.49 523.553 804.688 539.726 802.341 555.306C799.339 570.868 793.863 585.637 786.068 599.287C777.68 612.749 767.089 624.973 754.533 635.687C741.587 646.256 726.871 655.388 710.65 662.957C694.345 670.653 676.809 677.051 658.395 682.132C640.262 687.817 621.551 692.593 602.564 696.445C584.194 701.42 566.617 705.489 550.017 708.755C534.068 713.205 518.981 716.735 504.833 719.299C484.648 723.975 447.522 727.777 429.818 726.314C417.799 725.242 405.668 722.465 393.424 717.981C380.514 713.881 367.19 708.09 353.536 700.666C339.007 693.667 324.007 685.063 308.744 674.946C292.594 665.235 276.299 653.994 260.14 641.169C243.462 628.668 228.04 615.073 214.185 600.573C200.293 586.147 188.264 570.699 178.331 554.463C168.736 538.138 161.415 520.975 156.433 503.281C152.001 485.508 149.942 467.263 150.256 448.971C151.155 430.71 154.365 412.57 159.793 394.946C165.759 377.594 173.852 360.969 183.986 345.52C194.585 330.542 207.13 316.9 221.52 304.968C236.302 293.656 252.872 284.141 271.152 276.705C289.764 269.872 309.142 265.371 328.996 263.002C349.098 260.992 369.647 260.918 390.378 262.538C411.306 264.281 432.448 267.54 453.563 272.111C474.866 276.599 496.195 282.262 517.294 289.01C538.602 295.478 559.738 302.997 580.457 311.445C601.336 319.669 621.819 328.861 641.583 338.997C661.431 349.005 680.506 360.095 698.415 372.254C716.245 384.458 732.805 397.872 747.633 412.498Z" stroke="url(#paint15_linear_140_68)" stroke-width="2" stroke-linecap="round" stroke-dasharray="5 7"/>
<path opacity="0.39" d="M730.337 439.416C742.592 453.704 752.49 468.219 760.004 482.744C767.032 497.455 771.668 512.104 773.927 526.454C775.622 540.875 774.962 554.884 772.066 568.145C768.627 581.363 762.984 593.74 755.353 604.992C747.242 616.12 737.244 626.074 725.566 634.653C713.577 643.153 700.067 650.353 685.298 656.175C670.466 662.131 654.581 666.94 637.908 670.527C621.464 674.665 604.435 677.915 587.143 680.272C570.284 683.567 554.026 686.009 538.598 687.716C523.592 690.391 509.326 692.247 495.812 693.254C476.331 695.503 440.186 695.445 423 692.653C405.578 689.084 369.969 675.179 351.43 664.784C338.324 657.691 324.996 649.15 311.627 639.176C297.568 629.487 283.529 618.386 269.841 605.839C255.676 593.499 242.766 580.269 231.309 566.307C219.799 552.448 209.995 537.811 202.051 522.627C194.38 507.439 188.72 491.707 185.138 475.679C181.997 459.692 181.003 443.504 182.106 427.444C183.66 411.496 187.31 395.83 192.968 380.795C199.072 366.028 207.091 352.064 216.947 339.221C227.155 326.819 239.157 315.713 252.806 306.177C266.755 297.184 282.299 289.863 299.383 284.42C316.706 279.549 334.702 276.722 353.06 275.809C371.652 275.241 390.601 276.412 409.669 279.131C428.916 281.968 448.335 286.199 467.678 291.664C487.194 297.072 506.666 303.623 525.897 311.106C545.272 318.468 564.437 326.774 583.132 335.894C601.95 344.903 620.309 354.748 637.867 365.389C655.517 375.96 672.314 387.429 687.948 399.719C703.501 412.048 717.737 425.296 730.337 439.416Z" stroke="url(#paint16_linear_140_68)" stroke-width="2" stroke-linecap="round" stroke-dasharray="1 4"/>
<path opacity="0.35" d="M710.213 461.678C720.413 475.155 728.446 488.584 734.362 501.771C741.583 521.557 744.79 559.121 741.022 576.281C734.682 592.515 712.556 619.886 697.341 630.62C686.512 637.349 674.374 642.921 661.156 647.243C647.904 651.728 633.746 655.165 618.888 657.522C604.18 660.339 588.932 662.308 573.371 663.388C558.09 665.272 543.318 666.334 529.152 666.708C508.637 668.088 470.84 668.122 453.385 666.449C436.332 664.565 403.423 655.894 387.197 648.833C375.984 643.971 364.772 637.847 353.642 630.479C341.938 623.316 330.256 614.883 318.719 605.18C306.638 595.695 294.763 584.916 283.362 572.909C271.575 561.031 261.005 548.419 251.784 535.293C242.495 522.243 234.759 508.647 228.666 494.739C222.752 480.858 218.632 466.681 216.323 452.447C214.331 438.283 214.218 424.111 215.964 410.258C218.05 396.54 221.979 383.223 227.672 370.611C233.712 358.279 241.458 346.749 250.831 336.324C260.481 326.307 271.698 317.494 284.381 310.121C297.294 303.226 311.613 297.869 327.305 294.214C343.155 291.04 359.558 289.697 376.306 290.021C393.177 290.666 410.373 292.864 427.629 296.421C445.043 300.139 462.554 305.128 479.977 311.215C497.521 317.303 515.003 324.431 532.206 332.411C549.513 340.35 566.556 349.112 583.099 358.592C599.748 368.031 615.856 378.205 631.191 389.01C646.547 399.806 661.075 411.28 674.437 423.368C687.716 435.49 699.741 448.311 710.213 461.678Z" stroke="url(#paint17_linear_140_68)" stroke-width="2" stroke-linecap="round" stroke-dasharray="7 1"/>
<path opacity="0.32" d="M688.034 479.17C704.299 504.212 712.894 528.105 714.353 549.664C714.419 571.283 707.487 590.09 694.562 604.897C680.609 619.574 661.366 630.243 638.233 636.315C614.959 643.084 588.738 646.352 560.983 645.961C533.984 647.982 508.373 647.052 484.957 643.662C461.944 642.531 440.29 638.12 420.308 630.377C399.513 623.835 379.219 613.201 360.001 598.436C339.071 584.314 318.739 565.803 300.558 543.133C281.126 520.838 266.663 496.38 257.742 471.336C249.229 446.549 247.093 421.442 251.283 397.791C256.471 374.788 267.971 353.97 285.202 337.139C303.208 321.701 326.598 310.891 354.694 306.204C383.257 303.129 413.673 306.315 444.261 314.488C475.191 323.323 506.449 336.493 536.428 352.821C566.77 369.178 595.874 388.438 621.982 409.69C648.103 430.987 670.832 454.451 688.034 479.17Z" stroke="url(#paint18_linear_140_68)" stroke-width="2" stroke-linecap="round" stroke-dasharray="3 5"/>
<path opacity="0.28" d="M664.517 492.035C677.35 514.64 683.657 535.576 683.965 553.913C683.258 572.257 676.697 587.73 665.196 599.495C652.972 611.222 636.347 619.372 616.466 623.503C596.474 628.252 573.881 629.819 549.791 627.984C526.155 628.027 503.451 625.29 482.484 620.359C461.634 617.152 441.902 611.166 423.744 602.482C404.93 594.76 386.87 583.686 370.212 569.363C352.288 555.463 335.46 537.987 321.042 517.231C305.684 496.702 294.858 474.797 288.841 452.915C283.001 431.298 282.598 409.932 287.498 390.34C293.033 371.399 303.896 354.747 319.576 341.88C335.743 330.125 356.514 322.632 381.257 320.571C406.293 319.788 432.826 324.417 459.399 333.345C486.181 342.884 513.081 356.252 538.701 372.295C564.526 388.525 589.096 407.235 610.8 427.44C632.437 447.757 650.918 469.615 664.517 492.035Z" stroke="url(#paint19_linear_140_68)" stroke-width="2" stroke-linecap="round" stroke-dasharray="6 6"/>
<path opacity="0.24" d="M640.301 500.534C650.09 520.401 654.5 538.361 654.006 553.68C652.807 569.001 646.868 581.561 636.967 590.811C626.568 600.074 612.576 606.201 595.891 608.83C579.133 612.008 560.093 612.275 539.681 609.479C519.478 608.002 499.881 604.021 481.567 598.076C463.289 593.363 445.89 586.287 429.908 577.085C413.424 568.597 397.838 557.439 383.824 543.828C368.921 530.503 355.401 514.406 344.372 495.912C332.651 477.509 324.95 458.462 321.308 439.885C317.724 421.532 318.646 403.878 323.882 388.167C329.474 372.981 339.439 360.103 353.298 350.686C367.478 342.148 385.422 337.396 406.637 337.352C427.992 338.335 450.502 343.886 472.921 353.046C495.445 362.725 517.94 375.676 539.172 390.866C560.488 406.3 580.554 423.761 598.016 442.331C615.382 461.01 629.954 480.737 640.301 500.534Z" stroke="url(#paint20_linear_140_68)" stroke-width="2" stroke-linecap="round" stroke-dasharray="3 2"/>
<path opacity="0.2" d="M616.001 504.974C624.56 529.369 620.96 566.893 610.139 579.066C601.565 586.266 590.16 590.791 576.573 592.326C562.936 594.305 547.4 593.707 530.583 590.337C513.87 587.906 497.497 583.176 482.126 576.758C466.671 571.18 451.922 563.617 438.447 554.387C424.586 545.632 411.675 534.869 400.348 522.341C388.446 509.958 377.996 495.614 369.955 479.659C361.399 463.752 356.31 447.756 354.543 432.562C353.658 410.486 369.522 374.857 385.797 363.614C397.807 357.761 412.792 355.195 430.319 356.626C447.931 358.766 466.351 364.694 484.6 373.552C502.863 382.824 520.958 394.796 537.879 408.564C554.839 422.514 570.571 438.15 584.086 454.501C597.475 470.955 608.465 488.094 616.001 504.974Z" stroke="url(#paint21_linear_140_68)" stroke-width="2" stroke-linecap="round" stroke-dasharray="6 2"/>
<path opacity="0.16" d="M592.069 505.858C601.496 533.363 597.973 553.754 584.982 564.543C571.231 575.555 549.066 578.027 522.573 570.494C496.125 565.31 470.267 552.143 448.977 534.483C426.72 518.018 407.715 495.221 397.052 468.917C385.174 442.613 384.792 417.854 394.341 399.899C404.135 382.953 424.179 374.188 451.843 378.288C479.519 384.254 509.263 401.928 534.889 425.329C560.416 449.424 581.561 478.329 592.069 505.858Z" stroke="url(#paint22_linear_140_68)" stroke-width="2" stroke-linecap="round" stroke-dasharray="8 1"/>
<path opacity="0.13" d="M568.83 503.637C573.107 532.115 543.379 556.002 515.752 549.898C496.194 544.448 476.935 532.554 461.213 517.432C444.919 502.926 431.561 484.168 424.916 463.939C418.201 434.71 442.674 399.732 470.597 402.137C490.873 408.087 512.181 422.67 530.184 441.256C548.009 460.271 562.332 482.7 568.83 503.637Z" stroke="url(#paint23_linear_140_68)" stroke-width="2" stroke-linecap="round" stroke-dasharray="2 3"/>
<path opacity="0.09" d="M546.557 498.858C552.496 526.937 535.817 539.401 510.376 528.467C484.693 519.755 459.407 492.318 452.769 464.777C444.949 437.089 459.682 419.671 486.1 427.919C512.28 438.156 539.529 470.596 546.557 498.858Z" stroke="url(#paint24_linear_140_68)" stroke-width="2" stroke-linecap="round" stroke-dasharray="4 1"/>
</g>
<defs>
<linearGradient id="paint0_linear_140_68" x1="471.534" y1="-165.012" x2="471.534" y2="1213.07" gradientUnits="userSpaceOnUse">
<stop stop-color="#FFEECF" stop-opacity="0"/>
<stop offset="1" stop-color="#4A62A2" stop-opacity="0.28"/>
</linearGradient>
<linearGradient id="paint1_linear_140_68" x1="514.772" y1="-138.574" x2="419.077" y2="1183.55" gradientUnits="userSpaceOnUse">
<stop stop-color="#FFEECF" stop-opacity="0"/>
<stop offset="1" stop-color="#4A62A2" stop-opacity="0.28"/>
</linearGradient>
<linearGradient id="paint2_linear_140_68" x1="554.367" y1="-109.419" x2="371.123" y2="1150.12" gradientUnits="userSpaceOnUse">
<stop stop-color="#FFEECF" stop-opacity="0"/>
<stop offset="1" stop-color="#4A62A2" stop-opacity="0.28"/>
</linearGradient>
<linearGradient id="paint3_linear_140_68" x1="590.127" y1="-77.934" x2="327.974" y2="1113.29" gradientUnits="userSpaceOnUse">
<stop stop-color="#FFEECF" stop-opacity="0"/>
<stop offset="1" stop-color="#4A62A2" stop-opacity="0.28"/>
</linearGradient>
<linearGradient id="paint4_linear_140_68" x1="621.901" y1="-44.5468" x2="289.855" y2="1073.63" gradientUnits="userSpaceOnUse">
<stop stop-color="#FFEECF" stop-opacity="0"/>
<stop offset="1" stop-color="#4A62A2" stop-opacity="0.28"/>
</linearGradient>
<linearGradient id="paint5_linear_140_68" x1="649.703" y1="-9.65165" x2="257.047" y2="1031.74" gradientUnits="userSpaceOnUse">
<stop stop-color="#FFEECF" stop-opacity="0"/>
<stop offset="1" stop-color="#4A62A2" stop-opacity="0.28"/>
</linearGradient>
<linearGradient id="paint6_linear_140_68" x1="673.505" y1="26.3611" x2="229.673" y2="988.247" gradientUnits="userSpaceOnUse">
<stop stop-color="#FFEECF" stop-opacity="0"/>
<stop offset="1" stop-color="#4A62A2" stop-opacity="0.28"/>
</linearGradient>
<linearGradient id="paint7_linear_140_68" x1="693.312" y1="63.0953" x2="207.784" y2="943.742" gradientUnits="userSpaceOnUse">
<stop stop-color="#FFEECF" stop-opacity="0"/>
<stop offset="1" stop-color="#4A62A2" stop-opacity="0.28"/>
</linearGradient>
<linearGradient id="paint8_linear_140_68" x1="709.118" y1="100.154" x2="191.304" y2="898.824" gradientUnits="userSpaceOnUse">
<stop stop-color="#FFEECF" stop-opacity="0"/>
<stop offset="1" stop-color="#4A62A2" stop-opacity="0.28"/>
</linearGradient>
<linearGradient id="paint9_linear_140_68" x1="721.012" y1="137.142" x2="180.139" y2="854.064" gradientUnits="userSpaceOnUse">
<stop stop-color="#FFEECF" stop-opacity="0"/>
<stop offset="1" stop-color="#4A62A2" stop-opacity="0.28"/>
</linearGradient>
<linearGradient id="paint10_linear_140_68" x1="728.949" y1="173.606" x2="174.001" y2="809.893" gradientUnits="userSpaceOnUse">
<stop stop-color="#FFEECF" stop-opacity="0"/>
<stop offset="1" stop-color="#4A62A2" stop-opacity="0.28"/>
</linearGradient>
<linearGradient id="paint11_linear_140_68" x1="733.404" y1="209.559" x2="173.082" y2="767.12" gradientUnits="userSpaceOnUse">
<stop stop-color="#FFEECF" stop-opacity="0"/>
<stop offset="1" stop-color="#4A62A2" stop-opacity="0.28"/>
</linearGradient>
<linearGradient id="paint12_linear_140_68" x1="734.24" y1="244.182" x2="176.676" y2="725.879" gradientUnits="userSpaceOnUse">
<stop stop-color="#FFEECF" stop-opacity="0"/>
<stop offset="1" stop-color="#4A62A2" stop-opacity="0.28"/>
</linearGradient>
<linearGradient id="paint13_linear_140_68" x1="731.673" y1="277.385" x2="184.631" y2="686.695" gradientUnits="userSpaceOnUse">
<stop stop-color="#FFEECF" stop-opacity="0"/>
<stop offset="1" stop-color="#4A62A2" stop-opacity="0.28"/>
</linearGradient>
<linearGradient id="paint14_linear_140_68" x1="725.952" y1="308.887" x2="196.584" y2="650.014" gradientUnits="userSpaceOnUse">
<stop stop-color="#FFEECF" stop-opacity="0"/>
<stop offset="1" stop-color="#4A62A2" stop-opacity="0.28"/>
</linearGradient>
<linearGradient id="paint15_linear_140_68" x1="717.268" y1="338.409" x2="212.143" y2="616.148" gradientUnits="userSpaceOnUse">
<stop stop-color="#FFEECF" stop-opacity="0"/>
<stop offset="1" stop-color="#4A62A2" stop-opacity="0.28"/>
</linearGradient>
<linearGradient id="paint16_linear_140_68" x1="705.899" y1="365.73" x2="230.947" y2="585.402" gradientUnits="userSpaceOnUse">
<stop stop-color="#FFEECF" stop-opacity="0"/>
<stop offset="1" stop-color="#4A62A2" stop-opacity="0.28"/>
</linearGradient>
<linearGradient id="paint17_linear_140_68" x1="692.045" y1="390.658" x2="252.609" y2="558.015" gradientUnits="userSpaceOnUse">
<stop stop-color="#FFEECF" stop-opacity="0"/>
<stop offset="1" stop-color="#4A62A2" stop-opacity="0.28"/>
</linearGradient>
<linearGradient id="paint18_linear_140_68" x1="675.908" y1="413.251" x2="276.775" y2="534.411" gradientUnits="userSpaceOnUse">
<stop stop-color="#FFEECF" stop-opacity="0"/>
<stop offset="1" stop-color="#4A62A2" stop-opacity="0.28"/>
</linearGradient>
<linearGradient id="paint19_linear_140_68" x1="658.224" y1="432.736" x2="302.834" y2="514.331" gradientUnits="userSpaceOnUse">
<stop stop-color="#FFEECF" stop-opacity="0"/>
<stop offset="1" stop-color="#4A62A2" stop-opacity="0.28"/>
</linearGradient>
<linearGradient id="paint20_linear_140_68" x1="638.923" y1="449.381" x2="330.435" y2="498.137" gradientUnits="userSpaceOnUse">
<stop stop-color="#FFEECF" stop-opacity="0"/>
<stop offset="1" stop-color="#4A62A2" stop-opacity="0.28"/>
</linearGradient>
<linearGradient id="paint21_linear_140_68" x1="614.783" y1="463.4" x2="359.244" y2="485.918" gradientUnits="userSpaceOnUse">
<stop stop-color="#FFEECF" stop-opacity="0"/>
<stop offset="1" stop-color="#4A62A2" stop-opacity="0.28"/>
</linearGradient>
<linearGradient id="paint22_linear_140_68" x1="596.26" y1="474.031" x2="388.545" y2="477.993" gradientUnits="userSpaceOnUse">
<stop stop-color="#FFEECF" stop-opacity="0"/>
<stop offset="1" stop-color="#4A62A2" stop-opacity="0.28"/>
</linearGradient>
<linearGradient id="paint23_linear_140_68" x1="570.721" y1="480.339" x2="422.781" y2="472.976" gradientUnits="userSpaceOnUse">
<stop stop-color="#FFEECF" stop-opacity="0"/>
<stop offset="1" stop-color="#4A62A2" stop-opacity="0.28"/>
</linearGradient>
<linearGradient id="paint24_linear_140_68" x1="550.893" y1="485.429" x2="447.749" y2="473.142" gradientUnits="userSpaceOnUse">
<stop stop-color="#FFEECF" stop-opacity="0"/>
<stop offset="1" stop-color="#4A62A2" stop-opacity="0.28"/>
</linearGradient>
<clipPath id="clip0_140_68">
<rect width="1005" height="1042" fill="white"/>
</clipPath>
</defs>
</svg>
