<svg width="775" height="583" viewBox="0 0 775 583" fill="none" xmlns="http://www.w3.org/2000/svg">
<g clip-path="url(#clip0_119_376)">
<path d="M658.843 350.763C656.719 350.763 654.642 351.392 652.875 352.571C651.109 353.749 649.732 355.425 648.919 357.385C648.106 359.345 647.893 361.502 648.307 363.583C648.722 365.664 649.745 367.576 651.247 369.076C652.75 370.576 654.664 371.598 656.747 372.012C658.831 372.426 660.991 372.214 662.954 371.402C664.917 370.59 666.594 369.215 667.775 367.45C668.955 365.686 669.585 363.612 669.585 361.49C669.585 358.645 668.453 355.917 666.439 353.905C664.424 351.893 661.692 350.763 658.843 350.763ZM658.843 368.687C657.427 368.687 656.042 368.267 654.864 367.482C653.687 366.696 652.769 365.579 652.227 364.272C651.685 362.965 651.543 361.527 651.819 360.14C652.096 358.752 652.778 357.478 653.779 356.478C654.781 355.478 656.057 354.797 657.446 354.521C658.835 354.245 660.275 354.386 661.584 354.928C662.892 355.469 664.011 356.386 664.797 357.562C665.584 358.738 666.004 360.121 666.004 361.535C666.004 363.432 665.25 365.251 663.907 366.592C662.564 367.933 660.742 368.687 658.843 368.687Z" fill="#2F2E41"/>
<path d="M568.592 469.027L577.839 572.39H584.446L580.48 469.027H568.592Z" fill="#2F2E41"/>
<path d="M590.175 469.027L599.431 572.39H606.037L602.072 469.027H590.175Z" fill="#2F2E41"/>
<path d="M508.912 475.616L499.664 572.39H493.058L497.015 475.616H508.912Z" fill="#2F2E41"/>
<path d="M487.32 475.616L478.073 572.39H471.467L475.432 475.616H487.32Z" fill="#2F2E41"/>
<path d="M611.31 292.627H490.185V446.141H611.31V292.627Z" fill="#2F2E41"/>
<path opacity="0.08" d="M611.31 292.627H490.185V446.141H611.31V292.627Z" fill="white"/>
<path d="M365.891 402.158L310.829 572.39H324.489L379.103 402.158L433.279 572.39H446.053L392.316 402.158H365.891Z" fill="#FFEECF"/>
<path d="M420.944 521.361H335.5L331.973 534.118H425.786L420.944 521.361Z" fill="#FFEECF"/>
<path d="M460.555 575.232C461.19 579.416 458.352 581.49 455.792 582.509C454.17 583.127 452.444 583.43 450.708 583.403H411.195C387.921 583.698 391.018 572.854 391.018 572.854C391.018 572.854 391.743 578.683 402.082 579.944C402.082 579.944 419.09 582.795 431.023 581.159C431.023 581.186 456.884 582.697 460.555 575.232Z" fill="#3F3D56"/>
<path opacity="0.2" d="M460.555 575.232C461.19 579.416 458.352 581.49 455.792 582.509C454.17 583.127 452.444 583.43 450.708 583.403H411.195C387.921 583.698 391.018 572.854 391.018 572.854C391.018 572.854 391.743 578.683 402.082 579.944C402.082 579.944 419.09 582.795 431.023 581.159C431.023 581.186 456.884 582.697 460.555 575.232Z" fill="#231F20"/>
<path d="M337.344 537.73C337.344 537.73 334.363 546.58 352.884 547.564C364.551 548.405 376.278 547.653 387.742 545.329C387.742 545.329 413.702 541.842 409.781 534.163L404.472 536.55L366.123 544.783L337.344 537.73Z" fill="#3F3D56"/>
<path opacity="0.2" d="M337.344 537.73C337.344 537.73 334.363 546.58 352.884 547.564C364.551 548.405 376.278 547.653 387.742 545.329C387.742 545.329 413.702 541.842 409.781 534.163L404.472 536.55L366.123 544.783L337.344 537.73Z" fill="#231F20"/>
<path d="M392.567 484.994C392.567 484.994 381.762 520.297 375.487 522.702C375.487 522.702 380.571 528.96 381.467 539.411C381.467 539.411 386.381 537.927 389.72 538.159C391.428 538.305 393.146 538.281 394.849 538.087C400.731 537.319 410.613 534.512 403.425 524.052C403.425 524.052 398.645 517.481 404.625 505.994L412.063 493.138L392.567 484.994Z" fill="#F9B499"/>
<path d="M435.248 532.554C435.248 532.554 435.185 551.202 431.533 559.874C431.533 559.874 435.74 566.865 434.801 577.306L448.3 577.244C448.3 577.244 453.787 576.994 453.223 569.663C453.086 568.03 452.697 566.429 452.068 564.916C451.021 562.288 448.792 555.574 450.188 548.368L453.259 533.251L435.15 531.919L435.248 532.554Z" fill="#F9B499"/>
<path d="M133.049 27.0876H26.658C22.792 27.0876 19.658 30.2216 19.658 34.0876V127.651C19.658 131.517 22.792 134.651 26.658 134.651H133.049C136.915 134.651 140.049 131.517 140.049 127.651V34.0876C140.049 30.2216 136.915 27.0876 133.049 27.0876Z" fill="#FAFAFA"/>
<path d="M65.8215 63.3218C65.8215 63.5006 59.4838 63.6437 51.669 63.6437C43.8541 63.6437 37.5164 63.5006 37.5164 63.3218C37.5164 63.143 43.8452 63 51.669 63C59.4927 63 65.8215 63.143 65.8215 63.3218Z" fill="#C9A690"/>
<path d="M116.828 71.4034C116.828 71.5733 99.4174 71.7253 77.9512 71.7253C56.4851 71.7253 39.0652 71.5733 39.0652 71.4034C39.0652 71.2336 56.4762 71.0816 77.9512 71.0816C99.4263 71.0816 116.828 71.2246 116.828 71.4034Z" fill="#C9A690"/>
<path d="M116.828 81.4427C116.828 81.6126 99.4174 81.7645 77.9512 81.7645C56.4851 81.7645 39.0652 81.6126 39.0652 81.4427C39.0652 81.2728 56.4762 81.1209 77.9512 81.1209C99.4263 81.1209 116.828 81.2639 116.828 81.4427Z" fill="#C9A690"/>
<path d="M116.828 93.4427C116.828 93.6126 99.4174 93.7645 77.9512 93.7645C56.4851 93.7645 39.0652 93.6126 39.0652 93.4427C39.0652 93.2728 56.4762 93.1209 77.9512 93.1209C99.4263 93.1209 116.828 93.2639 116.828 93.4427Z" fill="#C9A690"/>
<path d="M116.828 104.443C116.828 104.613 99.4174 104.765 77.9512 104.765C56.4851 104.765 39.0652 104.613 39.0652 104.443C39.0652 104.273 56.4762 104.121 77.9512 104.121C99.4263 104.121 116.828 104.264 116.828 104.443Z" fill="#C9A690"/>
<path d="M116.828 117.443C116.828 117.613 99.4174 117.765 77.9512 117.765C56.4851 117.765 39.0652 117.613 39.0652 117.443C39.0652 117.273 56.4762 117.121 77.9512 117.121C99.4263 117.121 116.828 117.264 116.828 117.443Z" fill="#C9A690"/>
<path d="M559.883 29.2779H488.6C484.734 29.2779 481.6 32.4119 481.6 36.2779V107.448C481.6 111.314 484.734 114.448 488.6 114.448H559.883C563.749 114.448 566.883 111.314 566.883 107.448V36.2779C566.883 32.4119 563.749 29.2779 559.883 29.2779Z" fill="white"/>
<path d="M566.525 51.0821C566.525 51.2609 547.511 51.4039 524.067 51.4039C500.622 51.4039 481.6 51.2609 481.6 51.0821C481.6 50.9033 500.613 50.7513 524.067 50.7513C547.52 50.7513 566.525 50.9033 566.525 51.0821Z" fill="#C9A690"/>
<path d="M489.898 42.1512C491.233 42.1512 492.315 41.0706 492.315 39.7375C492.315 38.4044 491.233 37.3237 489.898 37.3237C488.563 37.3237 487.481 38.4044 487.481 39.7375C487.481 41.0706 488.563 42.1512 489.898 42.1512Z" fill="#C9A690"/>
<path d="M497.274 42.1512C498.609 42.1512 499.691 41.0706 499.691 39.7375C499.691 38.4044 498.609 37.3237 497.274 37.3237C495.94 37.3237 494.857 38.4044 494.857 39.7375C494.857 41.0706 495.94 42.1512 497.274 42.1512Z" fill="#C9A690"/>
<path d="M507.068 39.7375C507.068 40.2149 506.926 40.6816 506.66 41.0785C506.395 41.4754 506.017 41.7848 505.576 41.9675C505.134 42.1502 504.648 42.198 504.179 42.1049C503.71 42.0117 503.28 41.7818 502.942 41.4443C502.604 41.1067 502.373 40.6766 502.28 40.2084C502.187 39.7402 502.235 39.2548 502.418 38.8138C502.601 38.3727 502.91 37.9957 503.308 37.7305C503.705 37.4653 504.173 37.3237 504.651 37.3237C504.968 37.3226 505.283 37.3842 505.577 37.5051C505.871 37.6259 506.138 37.8037 506.362 38.0281C506.587 38.2524 506.765 38.519 506.886 38.8124C507.007 39.1058 507.069 39.4202 507.068 39.7375Z" fill="#C9A690"/>
<path d="M498.886 76.1225C502.712 76.1225 505.814 73.0246 505.814 69.2031C505.814 65.3816 502.712 62.2837 498.886 62.2837C495.059 62.2837 491.957 65.3816 491.957 69.2031C491.957 73.0246 495.059 76.1225 498.886 76.1225Z" fill="#C9A690"/>
<path d="M505.814 94.619C505.816 95.9901 505.41 97.3308 504.649 98.4716C503.887 99.6123 502.804 100.502 501.536 101.027C500.268 101.553 498.872 101.691 497.526 101.424C496.179 101.157 494.942 100.497 493.971 99.527C493 98.5575 492.339 97.3222 492.072 95.9774C491.805 94.6326 491.943 93.2388 492.469 91.9724C492.995 90.7061 493.886 89.6241 495.028 88.8635C496.17 88.1029 497.513 87.6978 498.886 87.6996C500.723 87.702 502.484 88.4317 503.782 89.7289C505.081 91.026 505.812 92.7846 505.814 94.619Z" fill="#C9A690"/>
<path d="M554.162 68.6399C554.162 68.8187 544.683 68.9617 532.983 68.9617C521.283 68.9617 511.812 68.8187 511.812 68.6399C511.812 68.4611 521.292 68.3091 532.983 68.3091C544.674 68.3091 554.162 68.4611 554.162 68.6399Z" fill="#C9A690"/>
<path d="M527.066 94.4938C527.066 94.6726 523.691 94.8246 519.537 94.8246C515.384 94.8246 512.009 94.6726 512.009 94.4938C512.009 94.315 515.384 94.172 519.537 94.172C523.691 94.172 527.066 94.315 527.066 94.4938Z" fill="#C9A690"/>
<path d="M554.162 127.392C569.009 127.392 581.044 115.373 581.044 100.546C581.044 85.7193 569.009 73.6999 554.162 73.6999C539.316 73.6999 527.28 85.7193 527.28 100.546C527.28 115.373 539.316 127.392 554.162 127.392Z" fill="#D36582"/>
<path d="M556.687 90.3637H554.18V110.299H556.687V90.3637Z" fill="white"/>
<path d="M565.414 99.08H545.452V101.583H565.414V99.08Z" fill="white"/>
<path d="M63.4453 324.298C77.1176 318.519 83.5102 302.765 77.7236 289.111C71.9369 275.457 56.1623 269.073 42.49 274.852C28.8177 280.631 22.4251 296.384 28.2118 310.039C33.9985 323.693 49.773 330.077 63.4453 324.298Z" fill="#D36582"/>
<path d="M55.5004 289.391H52.9939V309.327H55.5004V289.391Z" fill="white"/>
<path d="M64.2283 298.107H44.2661V300.61H64.2283V298.107Z" fill="white"/>
<path d="M451.414 70.4457H95.5332C90.0104 70.4457 85.5332 74.9229 85.5332 80.4457V391.183C85.5332 396.706 90.0104 401.183 95.5332 401.183H451.414C456.937 401.183 461.414 396.706 461.414 391.183V80.4457C461.414 74.9229 456.937 70.4457 451.414 70.4457Z" fill="#FFEECF"/>
<path d="M461.414 271.815H85.5332V327.698H461.414V271.815Z" fill="white"/>
<path d="M461.414 207.878H85.5332V271.815H461.414V207.878Z" fill="#F5F5F5"/>
<path d="M454.414 336.825H92.5332C88.6672 336.825 85.5332 339.959 85.5332 343.825V393.763C85.5332 397.629 88.6672 400.763 92.5332 400.763H454.414C458.28 400.763 461.414 397.629 461.414 393.763V343.825C461.414 339.959 458.28 336.825 454.414 336.825Z" fill="#F5F5F5"/>
<path d="M312.485 227.795C312.485 227.974 268.156 228.117 213.488 228.117C158.821 228.117 114.483 227.974 114.483 227.795C114.483 227.617 158.803 227.465 213.488 227.465C268.174 227.465 312.485 227.617 312.485 227.795Z" fill="#1A2E35"/>
<path d="M198.065 245.586C198.065 245.764 179.266 245.916 155.992 245.916C132.717 245.916 113.919 245.764 113.919 245.586C113.919 245.407 132.717 245.264 155.992 245.264C179.266 245.264 198.065 245.407 198.065 245.586Z" fill="#1A2E35"/>
<path d="M312.485 290.857C312.485 291.036 268.156 291.179 213.488 291.179C158.821 291.179 114.483 291.036 114.483 290.857C114.483 290.678 158.803 290.526 213.488 290.526C268.174 290.526 312.485 290.678 312.485 290.857Z" fill="#1A2E35"/>
<path d="M198.065 308.647C198.065 308.835 179.266 308.978 155.992 308.978C132.717 308.978 113.919 308.835 113.919 308.647C113.919 308.459 132.717 308.325 155.992 308.325C179.266 308.325 198.065 308.468 198.065 308.647Z" fill="#1A2E35"/>
<path d="M312.485 353.918C312.485 354.097 268.156 354.249 213.488 354.249C158.821 354.249 114.483 354.097 114.483 353.918C114.483 353.74 158.803 353.596 213.488 353.596C268.174 353.596 312.485 353.74 312.485 353.918Z" fill="#1A2E35"/>
<path d="M198.065 371.717C198.065 371.896 179.266 372.039 155.992 372.039C132.717 372.039 113.919 371.896 113.919 371.717C113.919 371.539 132.717 371.387 155.992 371.387C179.266 371.387 198.065 371.539 198.065 371.717Z" fill="#1A2E35"/>
<path d="M454.359 70.1496H92.478C88.612 70.1496 85.478 73.2836 85.478 77.1496V94.6982C85.478 98.5642 88.612 101.698 92.478 101.698H454.359C458.225 101.698 461.359 98.5642 461.359 94.6982V77.1496C461.359 73.2836 458.225 70.1496 454.359 70.1496Z" fill="#C9A690"/>
<path d="M461.414 98.5972H85.5332V130.146H461.414V98.5972Z" fill="#F5F5F5"/>
<path d="M108.172 84.821C108.172 85.606 107.939 86.3734 107.502 87.0262C107.065 87.6789 106.445 88.1877 105.718 88.4881C104.992 88.7885 104.193 88.8671 103.422 88.714C102.651 88.5608 101.943 88.1828 101.387 87.6277C100.831 87.0726 100.453 86.3653 100.299 85.5953C100.146 84.8254 100.225 84.0273 100.525 83.302C100.826 82.5767 101.336 81.9568 101.989 81.5206C102.643 81.0845 103.411 80.8517 104.197 80.8517C104.72 80.8505 105.237 80.9524 105.72 81.1514C106.203 81.3505 106.641 81.6428 107.011 82.0116C107.38 82.3805 107.673 82.8185 107.872 83.3006C108.071 83.7827 108.173 84.2994 108.172 84.821Z" fill="#FFEECF"/>
<path d="M122.718 84.821C122.718 85.6064 122.485 86.3742 122.048 87.0271C121.611 87.68 120.99 88.1888 120.263 88.489C119.536 88.7891 118.736 88.8672 117.965 88.7133C117.194 88.5594 116.486 88.1805 115.93 87.6245C115.375 87.0685 114.997 86.3604 114.845 85.5898C114.692 84.8193 114.772 84.0209 115.074 83.2958C115.377 82.5707 115.887 81.9514 116.542 81.5163C117.197 81.0812 117.966 80.8499 118.753 80.8517C119.274 80.8517 119.791 80.9544 120.272 81.154C120.754 81.3536 121.192 81.6461 121.56 82.0148C121.928 82.3835 122.22 82.8211 122.419 83.3027C122.618 83.7842 122.72 84.3001 122.718 84.821Z" fill="#FFEECF"/>
<path d="M137.274 84.821C137.274 85.6064 137.04 86.3742 136.603 87.0271C136.166 87.68 135.545 88.1888 134.818 88.489C134.091 88.7891 133.292 88.8672 132.521 88.7133C131.749 88.5594 131.041 88.1805 130.486 87.6245C129.93 87.0685 129.552 86.3604 129.4 85.5898C129.248 84.8193 129.328 84.0209 129.63 83.2958C129.932 82.5707 130.443 81.9514 131.098 81.5163C131.752 81.0812 132.522 80.8499 133.308 80.8517C133.83 80.8517 134.346 80.9544 134.828 81.154C135.31 81.3536 135.747 81.6461 136.115 82.0148C136.484 82.3835 136.776 82.8211 136.975 83.3027C137.173 83.7842 137.275 84.3001 137.274 84.821Z" fill="#FFEECF"/>
<path d="M414.838 148.759H321.741C318.888 148.759 316.576 151.068 316.576 153.917V178.537C316.576 181.386 318.888 183.695 321.741 183.695H414.838C417.691 183.695 420.004 181.386 420.004 178.537V153.917C420.004 151.068 417.691 148.759 414.838 148.759Z" fill="#D36582"/>
<path d="M345.794 167.622H339.412V173.879H336.467V167.622H330.084V164.859H336.467V158.601H339.412V164.859H345.794V167.622Z" fill="white"/>
<path d="M431.578 232.382H370.322C365.946 232.382 362.399 235.924 362.399 240.293V246.632C362.399 251.001 365.946 254.543 370.322 254.543H431.578C435.953 254.543 439.5 251.001 439.5 246.632V240.293C439.5 235.924 435.953 232.382 431.578 232.382Z" fill="#C9A690"/>
<path d="M428.4 318.552H373.491C370.548 318.55 367.727 317.381 365.647 315.302C363.568 313.224 362.399 310.406 362.399 307.467C362.399 304.529 363.568 301.712 365.648 299.635C367.728 297.558 370.549 296.391 373.491 296.391H428.4C429.86 296.386 431.306 296.669 432.655 297.223C434.005 297.778 435.232 298.593 436.266 299.622C437.3 300.651 438.12 301.874 438.679 303.22C439.239 304.566 439.527 306.009 439.527 307.467C439.527 308.925 439.239 310.369 438.68 311.715C438.12 313.062 437.3 314.285 436.266 315.315C435.233 316.345 434.006 317.161 432.656 317.716C431.306 318.272 429.86 318.556 428.4 318.552Z" fill="#C9A690"/>
<path d="M479.64 307.798C478.471 305.843 477.775 303.643 477.607 301.373C477.439 299.102 477.804 296.824 478.673 294.719C479.739 292.08 480.245 289.249 480.159 286.405C480.124 284.349 479.596 282.332 478.619 280.522C478.619 280.522 471.368 271.475 476.417 263.823C476.968 263.021 477.614 262.288 478.342 261.642L483.032 257.395C483.032 257.395 483.229 257.243 483.542 256.948C485.897 254.737 487.35 251.733 487.619 248.516C487.888 245.299 486.956 242.096 485.002 239.524C484.312 238.63 483.462 237.54 482.415 236.297C480.974 234.627 479.898 232.675 479.255 230.567C477.867 225.864 477.992 218.319 488.564 211.596C488.564 211.596 497.23 208.316 501.714 207.717C501.714 207.717 501.983 207.27 502.404 206.635C503.871 204.42 505.072 202.04 505.984 199.546C506.933 196.864 509.234 192.993 514.838 189.828C518.577 187.77 522.731 186.572 526.994 186.324C537.673 185.617 560.939 187.137 566.381 212.785C566.381 212.785 569.228 216.218 568.324 223.379C568.324 223.379 568.628 236.655 576.694 238.899C576.694 238.899 585.52 239.605 592.574 243.681C596.052 245.717 598.606 249.018 599.702 252.892C600.798 256.766 600.352 260.914 598.455 264.467L598.392 264.592C597.713 265.794 597.283 267.12 597.129 268.492C596.976 269.864 597.101 271.253 597.497 272.575C598.392 275.471 600.496 279.253 605.017 283.607C608.131 286.569 610.573 290.163 612.178 294.147C614.577 300.226 615.598 308.737 609.242 317.667C609.242 317.667 605.16 324.14 593.952 326.67L593.496 325.409C593.496 325.409 614.479 321.958 611.793 298.688C611.793 298.688 610.325 319.294 592.842 323.916C592.842 323.916 582.1 300.771 577.132 292.269C577.132 292.269 574.894 287.2 565.925 284.224L550.089 278.86C546.878 277.612 543.511 276.809 540.081 276.473C540.081 276.473 537.843 266.925 538.586 263.197C538.586 263.197 542.024 258.727 542.328 256.394C542.328 256.394 543.957 245.988 540.019 239.364C540.019 239.364 511.552 229.029 502.422 217.541C502.422 217.541 498.241 222.905 497.489 234.402C496.737 245.899 504.069 270.957 518.553 272.298C518.553 272.298 516.762 276.92 516.019 277.662C516.019 277.662 499.28 283.33 496.746 284.072C496.746 284.072 488.358 285.582 484.321 295.434L479.64 307.798Z" fill="#2F2E41"/>
<path opacity="0.2" d="M481.994 288.756C481.994 288.756 486.174 284.125 482.889 276.964C482.889 276.964 476.229 267.569 483.068 259.979C483.068 259.979 474.465 263.403 476.318 272.655C476.741 274.677 477.602 276.582 478.843 278.234C481.123 281.25 482.241 284.985 481.994 288.756Z" fill="#231F20"/>
<path d="M520.361 272.423C520.361 272.423 529.312 272.494 538.604 263.215C538.348 265.981 538.52 268.77 539.114 271.484C539.114 271.484 527.799 280.442 520.361 272.423Z" stroke="#ED1C24" stroke-width="0.5" stroke-miterlimit="10"/>
<path opacity="0.37" d="M500.005 255.562C500.005 255.562 490.892 275.847 500.774 282.811L516.055 277.689L518.588 272.325C518.588 272.325 507.846 272.432 501.652 255.571C501.652 255.562 501.365 255.929 500.005 255.562Z" fill="#231F20"/>
<path opacity="0.37" d="M561.708 282.811C561.708 282.811 562.362 269.249 552.399 264.735C552.399 264.735 544.19 262.607 545.318 256.895C545.318 256.895 543.187 256.287 542.632 255.366C542.632 255.366 541.308 260.792 538.64 263.215C538.64 263.215 538.058 268.346 540.135 276.491C540.135 276.491 546.356 277.134 550.143 278.878L561.708 282.811Z" fill="#231F20"/>
<path d="M466.597 357.101L479.237 368.419H488.188L495.43 346.704L496.558 347.41C496.558 347.41 497.65 365.29 497.256 368.419H505.313C505.313 368.419 511.579 359.89 529.214 366.899C530.519 367.508 531.99 367.666 533.394 367.346L562.675 361.83C562.675 361.83 563.472 338.256 565.665 332.329L579.791 357.593C579.791 357.593 602.6 351.433 604.99 361.776C604.99 361.776 607.872 362.17 597.121 334.126C597.121 334.126 588.259 311.642 577.15 292.35C577.15 292.35 575.252 287.451 565.943 284.304C565.943 284.304 544.136 276.258 540.099 276.544L506.083 281.086C506.083 281.086 489.003 283.768 485.494 292.484L479.98 306.895C479.379 308.476 478.862 310.087 478.431 311.722L466.597 357.101Z" fill="#2B59C3"/>
<path d="M461.754 355.858L464.261 368.419H479.237L466.597 357.101L461.754 355.858Z" fill="#F9B499"/>
<path d="M459.355 446.141H611.319V453.812C611.319 456.964 610.697 460.085 609.489 462.997C608.281 465.91 606.511 468.556 604.279 470.785C602.047 473.014 599.397 474.782 596.481 475.988C593.565 477.194 590.44 477.815 587.283 477.815H483.39C477.016 477.815 470.902 475.286 466.395 470.785C461.887 466.283 459.355 460.178 459.355 453.812V446.141Z" fill="#2F2E41"/>
<path opacity="0.2" d="M459.355 446.141H611.319V453.812C611.319 456.964 610.697 460.085 609.489 462.997C608.281 465.91 606.511 468.556 604.279 470.785C602.047 473.014 599.397 474.782 596.481 475.988C593.565 477.194 590.44 477.815 587.283 477.815H483.39C477.016 477.815 470.902 475.286 466.395 470.785C461.887 466.283 459.355 460.178 459.355 453.812V446.141Z" fill="black"/>
<path d="M689.717 389.4H631.576V402.158H689.717V389.4Z" fill="#FFEECF"/>
<path opacity="0.2" d="M689.717 395.775H631.576V402.149H689.717V395.775Z" fill="#231F20"/>
<path d="M647.43 402.158L592.377 572.39H606.037L660.642 402.158L714.827 572.39H727.601L673.864 402.158H647.43Z" fill="#FFEECF"/>
<path d="M702.491 521.361H617.039L613.521 534.118H707.334L702.491 521.361Z" fill="#FFEECF"/>
<path d="M408.169 389.4H350.028V402.158H408.169V389.4Z" fill="#FFEECF"/>
<path opacity="0.2" d="M408.169 395.775H350.028V402.149H408.169V395.775Z" fill="#231F20"/>
<path d="M750.293 376.804H288.79C285.819 376.804 283.41 379.21 283.41 382.177V384.019C283.41 386.986 285.819 389.392 288.79 389.392H750.293C753.265 389.392 755.673 386.986 755.673 384.019V382.177C755.673 379.21 753.265 376.804 750.293 376.804Z" fill="#FFEECF"/>
<path opacity="0.2" d="M750.293 376.804H288.79C285.819 376.804 283.41 379.21 283.41 382.177V384.019C283.41 386.986 285.819 389.392 288.79 389.392H750.293C753.265 389.392 755.673 386.986 755.673 384.019V382.177C755.673 379.21 753.265 376.804 750.293 376.804Z" fill="#231F20"/>
<path d="M390.991 484.341L412.063 493.138C412.063 493.138 439.814 442.405 444.468 429.978C444.468 429.978 542.507 475.571 570.893 442.744C570.893 442.744 586.012 428.253 568.592 389.4H429.501C427.929 389.393 426.374 389.738 424.954 390.411C423.533 391.085 422.282 392.068 421.293 393.289C418.786 396.427 415.689 401.943 413.433 411.41L390.991 484.341Z" fill="#2F2E41"/>
<path d="M454.127 535.549C454.127 535.549 469.9 466.31 468.45 450.2C480.05 451.064 491.699 451.064 503.299 450.2C503.299 450.2 470.178 442.279 444.504 429.978L434.12 451.693V532.813L454.127 535.549Z" fill="#2F2E41"/>
<g opacity="0.2">
<path d="M434.29 451.729L433.879 451.666L434.111 449.995L434.532 450.057L434.29 451.729ZM434.765 448.385L434.344 448.323L434.586 446.651L434.998 446.714L434.765 448.385ZM435.239 445.042L434.819 444.979L435.051 443.308L435.472 443.37L435.239 445.042ZM435.705 441.698L435.284 441.636L435.526 439.964L435.938 440.027L435.705 441.698ZM436.179 438.355L435.759 438.292L435.991 436.621L436.412 436.683L436.179 438.355ZM436.645 435.011L436.233 434.949L436.466 433.286L436.886 433.34L436.645 435.011ZM437.119 431.677L436.707 431.605C436.788 431.051 436.886 430.497 436.985 429.943L437.406 430.014C437.298 430.568 437.209 431.123 437.119 431.677ZM437.737 428.369L437.325 428.28C437.45 427.725 437.576 427.18 437.719 426.626L438.131 426.733C437.987 427.323 437.862 427.824 437.737 428.369ZM438.587 425.115L438.175 424.999C438.319 424.525 438.471 424.105 438.632 423.595L438.704 423.381L439.097 423.524L439.026 423.729C438.874 424.194 438.722 424.641 438.632 425.115H438.587ZM541.218 422.907H539.974V422.487H541.657V422.907H541.218ZM543.367 422.907V422.487L545.049 422.397V422.817L543.367 422.907ZM538.282 422.907L536.59 422.817V422.397L538.273 422.487L538.282 422.907ZM546.75 422.692V422.272C547.323 422.21 547.887 422.138 548.415 422.058L548.478 422.478C547.896 422.496 547.332 422.567 546.75 422.63V422.692ZM534.889 422.648L533.224 422.362L533.296 421.95L534.961 422.236L534.889 422.648ZM550.107 422.183L550.027 421.763C550.582 421.655 551.137 421.53 551.656 421.387L551.763 421.798C551.235 421.87 550.671 422.004 550.107 422.12V422.183ZM531.559 422.075L529.894 421.789L529.966 421.378L531.631 421.664L531.559 422.075ZM439.679 421.959L439.285 421.807C439.5 421.262 439.715 420.743 439.939 420.243L440.324 420.413C440.109 420.886 439.894 421.405 439.679 421.959ZM528.229 421.468L526.564 421.181L526.636 420.761L528.301 421.047L528.229 421.468ZM553.392 421.271L553.258 420.869C553.795 420.69 554.323 420.493 554.825 420.279L554.986 420.672C554.476 420.869 553.947 421.065 553.392 421.253V421.271ZM524.89 420.895L523.225 420.609L523.297 420.189L524.962 420.475L524.89 420.895ZM521.56 420.323L519.895 420.037L519.967 419.617L521.632 419.903L521.56 420.323ZM556.534 419.939L556.329 419.563C556.821 419.291 557.3 418.992 557.761 418.669L557.994 419.018C557.523 419.344 557.036 419.645 556.534 419.921V419.939ZM518.23 419.751L516.565 419.465L516.637 419.054L518.302 419.277L518.23 419.751ZM514.9 419.179L513.235 418.893L513.307 418.482L514.972 418.768L514.9 419.179ZM441.031 418.893L440.655 418.705C440.906 418.187 441.174 417.686 441.452 417.203L441.819 417.418C441.55 417.865 441.317 418.383 441.031 418.875V418.893ZM511.57 418.607L509.905 418.321L509.977 417.91L511.642 418.196L511.57 418.607ZM508.24 418.035L506.575 417.749L506.647 417.337L508.312 417.623L508.24 418.035ZM559.354 418.035L559.077 417.722C559.495 417.357 559.893 416.969 560.267 416.56L560.581 416.837C560.198 417.25 559.788 417.639 559.354 417.999V418.035ZM504.874 417.489L503.209 417.212L503.281 416.792L504.946 417.078L504.874 417.489ZM501.544 416.926L499.87 416.64L499.942 416.22L501.616 416.506L501.544 416.926ZM498.205 416.354L496.54 416.068L496.612 415.648L498.277 415.934L498.205 416.354ZM442.651 416.014L442.302 415.782C442.615 415.299 442.947 414.834 443.278 414.387L443.618 414.646C443.323 415.031 443 415.496 442.687 415.97L442.651 416.014ZM494.875 415.782L493.21 415.496L493.282 415.076L494.947 415.362L494.875 415.782ZM561.601 415.496L561.252 415.263C561.557 414.803 561.835 414.326 562.084 413.833L562.46 414.021C562.217 414.515 561.942 414.993 561.637 415.451L561.601 415.496ZM491.545 415.21L489.88 414.924L489.952 414.512L491.617 414.798L491.545 415.21ZM488.215 414.638L486.55 414.351L486.622 413.94L488.287 414.226L488.215 414.638ZM484.885 414.065L483.22 413.779L483.292 413.368L484.957 413.654L484.885 414.065ZM481.555 413.493L479.89 413.207L479.962 412.796L481.627 413.082L481.555 413.493ZM444.683 413.359L444.37 413.082C444.755 412.653 445.158 412.242 445.57 411.866L445.856 412.179C445.459 412.539 445.079 412.917 444.719 413.314L444.683 413.359ZM478.225 412.921L476.56 412.644L476.632 412.224L478.297 412.51L478.225 412.921ZM563.114 412.429L562.72 412.295C562.897 411.771 563.043 411.236 563.159 410.695L563.57 410.784C563.458 411.325 563.318 411.859 563.15 412.385L563.114 412.429ZM474.895 412.358L473.221 412.072L473.293 411.652L474.967 411.938L474.895 412.358ZM471.556 411.786L469.891 411.5L469.963 411.079L471.628 411.366L471.556 411.786ZM468.226 411.214L466.561 410.928L466.633 410.516L468.298 410.793L468.226 411.214ZM447.145 411.124L446.894 410.784C447.355 410.456 447.836 410.157 448.336 409.891L448.542 410.257C448.071 410.502 447.616 410.776 447.181 411.079L447.145 411.124ZM464.896 410.641L463.231 410.355L463.303 409.944L464.968 410.23L464.896 410.641ZM461.566 410.069L459.901 409.783L459.973 409.372L461.638 409.658L461.566 410.069ZM450.081 409.444L449.929 409.05C450.464 408.843 451.015 408.679 451.576 408.558L451.666 408.97C451.127 409.089 450.597 409.248 450.081 409.444ZM458.272 409.444L456.607 409.157L456.679 408.746L458.344 409.032L458.272 409.444ZM563.902 409.041L563.481 408.997C563.542 408.444 563.574 407.889 563.579 407.334H563.955C563.955 407.933 563.955 408.55 563.875 409.05L563.902 409.041ZM454.969 408.871H454.861C454.356 408.786 453.842 408.759 453.331 408.791V408.371C453.875 408.34 454.422 408.37 454.96 408.46H455.058L454.969 408.871ZM563.544 405.662C563.544 405.126 563.454 404.562 563.382 403.999L563.803 403.946C563.875 404.518 563.929 405.09 563.964 405.635L563.544 405.662ZM563.114 402.345C563.007 401.809 562.89 401.255 562.756 400.709L563.168 400.602C563.302 401.165 563.427 401.72 563.526 402.265L563.114 402.345ZM562.317 399.082C562.156 398.537 561.977 398.001 561.807 397.482L562.201 397.348C562.38 397.875 562.559 398.412 562.72 398.966L562.317 399.082ZM561.225 395.9C561.019 395.354 560.804 394.836 560.599 394.344L560.983 394.174C561.198 394.675 561.413 395.202 561.619 395.748L561.225 395.9ZM559.909 392.807C559.641 392.243 559.39 391.734 559.166 391.296L559.542 391.108C559.775 391.546 560.026 392.056 560.294 392.628L559.909 392.807ZM558.37 389.812L558.191 389.499L558.37 389.392V389.177C558.495 389.177 558.495 389.177 558.737 389.606L558.37 389.812Z" fill="#231F20"/>
</g>
<path opacity="0.2" d="M434.084 459.846C434.084 459.846 441.022 436.397 456.356 441.269L489.03 450.853L503.263 450.2C503.263 450.2 486.255 447.652 444.468 429.978L434.084 451.693V459.846Z" fill="#231F20"/>
<path d="M371.763 518.509C371.495 518.311 371.189 518.169 370.864 518.092C370.54 518.015 370.203 518.005 369.874 518.062C364.047 519.108 334.587 525.116 337.55 539.375C337.55 539.375 337.845 547.134 367.574 545.499C367.574 545.499 412.386 541.619 409.7 532.983C409.7 532.983 409.816 531.043 405.931 530.73C405.931 530.73 406.782 538.034 391.233 538.213C387.931 537.925 384.605 538.327 381.467 539.393C381.467 539.393 380.536 524.973 371.763 518.509Z" fill="#0071F2"/>
<path d="M390.964 569.877C391.689 565.89 394.634 560.786 404.025 557.469C404.025 557.469 425.276 552.57 427.872 555.386C427.872 555.386 435.884 560.428 434.801 577.306L447.163 577.137C448.117 577.208 449.074 577.029 449.938 576.618C451.182 575.894 453.778 574.562 453.134 568.831C453.134 568.831 461.369 570.745 460.555 575.232C460.432 575.827 460.171 576.384 459.793 576.859C459.416 577.334 458.931 577.714 458.379 577.968C455.622 579.309 448.21 582.143 436 581.338C436 581.338 408.545 583.6 395.852 578.558C394.157 577.899 392.744 576.674 391.853 575.091C390.962 573.508 390.648 571.666 390.964 569.877Z" fill="#0071F2"/>
<path d="M370.948 376.804L358.335 312.768C358.191 312.038 358.211 311.285 358.393 310.563C358.575 309.841 358.915 309.168 359.388 308.593C359.861 308.018 360.456 307.554 361.13 307.236C361.804 306.918 362.54 306.752 363.286 306.752H443.761C444.812 306.749 445.831 307.108 446.647 307.77C447.463 308.431 448.024 309.354 448.237 310.381L461.772 376.804H370.948Z" fill="#2F2E41"/>
<path d="M368.451 302.684H446.787C448.162 302.684 449.494 303.163 450.554 304.037C451.614 304.912 452.336 306.128 452.597 307.476L464.234 368.419H505.268C505.268 368.419 502.869 368.463 496.155 376.804H461.754L448.219 310.381C448.219 310.381 447.593 305.625 440.422 306.752H363.286C362.311 306.773 361.362 307.068 360.547 307.602C359.731 308.137 359.083 308.889 358.676 309.774L360.636 306.85C361.494 305.567 362.657 304.515 364.02 303.788C365.383 303.061 366.905 302.682 368.451 302.684Z" fill="#2F2E41"/>
<path opacity="0.08" d="M368.451 302.684H446.787C448.162 302.684 449.494 303.163 450.554 304.037C451.614 304.912 452.336 306.128 452.597 307.476L464.234 368.419H505.268C505.268 368.419 502.869 368.463 496.155 376.804H461.754L448.219 310.381C448.219 310.381 447.593 305.625 440.422 306.752H363.286C362.311 306.773 361.362 307.068 360.547 307.602C359.731 308.137 359.083 308.889 358.676 309.774L360.636 306.85C361.494 305.567 362.657 304.515 364.02 303.788C365.383 303.061 366.905 302.682 368.451 302.684Z" fill="white"/>
<path opacity="0.08" d="M408.357 348.751C412.48 348.751 415.823 345.413 415.823 341.295C415.823 337.178 412.48 333.84 408.357 333.84C404.234 333.84 400.892 337.178 400.892 341.295C400.892 345.413 404.234 348.751 408.357 348.751Z" fill="white"/>
<path d="M632.633 343.03H657.527V367.167C657.527 369.725 656.51 372.179 654.698 373.988C652.887 375.797 650.43 376.813 647.868 376.813H642.291C639.73 376.813 637.273 375.797 635.462 373.988C633.65 372.179 632.633 369.725 632.633 367.167V343.03Z" fill="#2F2E41"/>
<path d="M506.119 281.032C506.119 281.032 507.238 304.088 524.264 305.169C524.264 305.169 541.451 307.708 550.107 278.913C546.901 277.65 543.531 276.846 540.099 276.526C540.099 276.526 538.157 266.693 538.604 262.553L519.287 271.01L516.055 277.724L506.119 281.032Z" fill="#F9B499"/>
<path opacity="0.37" d="M487.866 237.334C487.866 237.334 478.53 226.723 488.994 215.959C488.958 215.959 473.346 224.157 487.866 237.334Z" fill="#231F20"/>
<path opacity="0.37" d="M557.215 205.5C557.215 205.5 536.205 180.995 514.721 196.497C514.721 196.497 536.617 176.409 557.215 205.5Z" fill="#231F20"/>
<path opacity="0.37" d="M581.044 243.646C581.044 243.646 591.544 245.532 596.011 253.685C596.011 253.685 594.203 243.646 581.044 243.646Z" fill="#231F20"/>
<g opacity="0.37">
<path d="M589.611 315.754L588.716 315.084C593.899 308.111 589.611 295.881 587.552 290.946C587.092 289.917 586.537 288.933 585.896 288.005C581.796 281.747 586.791 272.539 586.97 272.155C588.841 268.659 589.101 265.7 587.749 263.34C584.392 257.511 572.325 256.975 572.209 256.975C567.599 256.85 564.313 255.464 562.434 252.872C559.65 249.01 560.992 243.878 561.171 243.261C563.964 216.764 548.075 209.29 547.914 209.227L548.371 208.199C548.541 208.271 565.191 216.04 562.29 243.431V243.538C562.29 243.583 560.795 248.652 563.383 252.219C565.039 254.517 568.028 255.732 572.272 255.849C572.8 255.849 585.09 256.421 588.752 262.786C590.309 265.468 590.05 268.829 587.991 272.691C587.937 272.781 583.139 281.694 586.872 287.388C587.559 288.374 588.158 289.418 588.662 290.508C590.73 295.622 595.143 308.316 589.611 315.754Z" fill="#231F20"/>
</g>
<path d="M408.357 158.557H353.52V173.897H408.357V158.557Z" fill="white"/>
<path d="M167.745 161.346H112.907V176.687H167.745V161.346Z" fill="#D36582"/>
<path d="M496.182 376.804H595.59C595.59 376.804 612.097 373.514 604.99 361.732C604.99 361.732 604.766 351.8 579.791 357.548L560.992 362.143L533.367 367.346C533.367 367.346 531.89 367.882 529.187 366.899C529.196 366.899 511.427 356.278 496.182 376.804Z" fill="#F9B499"/>
<path d="M516.055 277.688L518.588 272.325C518.588 272.325 534.54 271.752 538.604 262.491C538.604 262.518 538.354 275.588 516.055 277.688Z" fill="#F4A48E"/>
<path d="M502.457 217.559C502.457 217.559 493.756 227.894 499.217 248.241C499.217 248.241 504.248 270.975 518.588 272.316C518.588 272.316 527.701 274.104 538.604 263.215C538.604 263.215 547.422 254.713 540.395 239.194C540.403 239.194 513.36 230.093 502.457 217.559Z" fill="#F9B499"/>
<circle cx="79.5" cy="45.5" r="12.25" fill="#FFEECF" stroke="#C9A690" stroke-width="0.5"/>
</g>
<defs>
<clipPath id="clip0_119_376">
<rect width="775" height="583" fill="white"/>
</clipPath>
</defs>
</svg>
