<svg width="622" height="570" viewBox="0 0 622 570" fill="none" xmlns="http://www.w3.org/2000/svg">
<g clip-path="url(#clip0_119_72)">
<path d="M259.098 99.5742L61.3374 570H571.205L383.609 99.5742H259.098Z" fill="#4A62A2"/>
<path d="M425.205 357.384C427.931 351.426 429.365 344.877 429.398 338.233C429.432 331.589 428.065 325.023 425.4 319.033C422.736 313.043 418.843 307.784 414.017 303.656C409.192 299.527 403.559 296.637 397.545 295.202C394.955 294.591 392.591 293.164 390.753 291.103V291.069C387.232 287.097 386.629 283.534 381.634 272.737C381.099 271.57 380.652 270.63 380.39 270.094L338.785 287.499L350.062 324.693C347.742 332.546 347.523 340.946 349.428 348.928C351.333 356.91 355.287 364.151 360.834 369.819C366.381 375.487 373.297 379.353 380.789 380.973C388.28 382.593 396.043 381.901 403.187 378.977C403.528 382.661 404.811 386.169 406.893 389.112C408.975 392.055 411.774 394.316 414.977 395.643C418.181 396.97 421.663 397.311 425.035 396.628C428.408 395.945 431.538 394.265 434.077 391.775C436.617 389.285 438.465 386.083 439.415 382.526C440.366 378.969 440.383 375.197 439.463 371.631C438.543 368.064 436.722 364.844 434.205 362.328C431.688 359.813 428.572 358.101 425.205 357.384Z" fill="black"/>
<path d="M302.789 380.031C314.002 380.031 323.091 370.225 323.091 358.129C323.091 346.033 314.002 336.228 302.789 336.228C291.577 336.228 282.487 346.033 282.487 358.129C282.487 370.225 291.577 380.031 302.789 380.031Z" fill="black"/>
<path d="M368.087 300.282C368.106 296.43 366.717 292.724 364.223 289.968C361.728 287.212 358.328 285.626 354.758 285.553L353.918 275.69C353.671 272.562 352.855 269.517 351.516 266.73C350.176 263.942 348.34 261.468 346.113 259.448C343.885 257.427 341.31 255.901 338.535 254.956C335.759 254.012 332.839 253.667 329.94 253.942L296.258 257.331C291.849 257.803 287.793 260.142 284.979 263.835C282.166 267.528 280.825 272.274 281.25 277.032L284.982 321.412C285.276 325.138 286.249 328.766 287.845 332.086C289.441 335.406 291.629 338.354 294.282 340.761C296.936 343.167 300.004 344.986 303.311 346.111C306.617 347.236 310.096 347.647 313.55 347.319L315.111 347.158L317.22 371.757L361.712 367.288L359.224 338.153H359.186L357.208 314.729C360.288 314.044 363.054 312.232 365.037 309.599C367.019 306.966 368.097 303.674 368.087 300.282Z" fill="#FFDCC2"/>
<path d="M354.428 307.301C353.384 307.301 352.363 306.967 351.494 306.341C350.626 305.715 349.949 304.825 349.549 303.784C349.15 302.743 349.045 301.597 349.249 300.492C349.453 299.387 349.956 298.372 350.694 297.576C351.433 296.779 352.374 296.236 353.398 296.016C354.422 295.797 355.484 295.909 356.449 296.341C357.414 296.772 358.239 297.502 358.819 298.439C359.399 299.376 359.709 300.477 359.709 301.604C359.707 303.114 359.151 304.562 358.161 305.63C357.171 306.698 355.828 307.299 354.428 307.301ZM354.428 298.578C353.876 298.578 353.336 298.754 352.877 299.085C352.417 299.416 352.059 299.887 351.848 300.437C351.637 300.988 351.581 301.594 351.689 302.178C351.797 302.763 352.063 303.299 352.453 303.721C352.844 304.142 353.342 304.429 353.883 304.545C354.425 304.662 354.987 304.602 355.497 304.374C356.007 304.146 356.443 303.76 356.75 303.264C357.057 302.769 357.221 302.186 357.221 301.59C357.216 300.794 356.92 300.032 356.397 299.471C355.874 298.909 355.166 298.593 354.428 298.591V298.578Z" fill="black"/>
<path d="M315.018 347.198L341.509 343.649C341.679 343.626 341.852 343.669 341.995 343.77C342.139 343.872 342.244 344.026 342.292 344.204C342.34 344.381 342.328 344.572 342.257 344.741C342.187 344.91 342.062 345.046 341.907 345.125L315.976 358.491L315.018 347.198Z" fill="black"/>
<path d="M350.535 304.08C350.243 304.086 349.958 303.981 349.731 303.783C349.503 303.586 349.347 303.308 349.291 302.999C349.005 301.477 349.095 299.901 349.551 298.427C350.007 296.954 350.814 295.636 351.891 294.605C352.93 293.658 354.166 292.994 355.492 292.669C356.819 292.343 358.199 292.365 359.516 292.733C359.834 292.828 360.103 293.056 360.265 293.365C360.427 293.675 360.469 294.041 360.381 294.384C360.292 294.726 360.081 295.016 359.795 295.191C359.508 295.366 359.168 295.411 358.851 295.316C357.936 295.068 356.979 295.055 356.059 295.279C355.138 295.503 354.279 295.957 353.551 296.605C352.802 297.323 352.241 298.241 351.924 299.266C351.608 300.292 351.547 301.39 351.747 302.449C351.78 302.622 351.781 302.801 351.749 302.974C351.718 303.148 351.655 303.313 351.564 303.46C351.473 303.607 351.357 303.733 351.22 303.832C351.084 303.93 350.932 303.998 350.771 304.033C350.693 304.055 350.614 304.07 350.535 304.08Z" fill="black"/>
<path d="M289.186 304.737C290.639 304.737 291.817 303.467 291.817 301.899C291.817 300.332 290.639 299.061 289.186 299.061C287.733 299.061 286.555 300.332 286.555 301.899C286.555 303.467 287.733 304.737 289.186 304.737Z" fill="black"/>
<path d="M317.258 301.228C318.711 301.228 319.889 299.957 319.889 298.39C319.889 296.822 318.711 295.551 317.258 295.551C315.804 295.551 314.626 296.822 314.626 298.39C314.626 299.957 315.804 301.228 317.258 301.228Z" fill="black"/>
<path d="M300.588 313.219C300.489 313.219 300.391 313.205 300.295 313.178C298.311 312.662 296.258 311.883 296.115 310.092C296.101 309.412 296.335 308.754 296.769 308.26C296.893 308.086 297.036 307.884 297.191 307.623C297.772 306.618 298.066 305.451 298.037 304.268L297.981 291.894C297.981 291.538 298.112 291.197 298.346 290.945C298.579 290.694 298.895 290.552 299.225 290.552C299.555 290.552 299.872 290.694 300.105 290.945C300.338 291.197 300.469 291.538 300.469 291.894L300.525 304.268C300.542 305.949 300.11 307.601 299.281 309.025C299.082 309.354 298.921 309.595 298.778 309.797C299.438 310.143 300.136 310.398 300.855 310.555C301.155 310.628 301.418 310.819 301.596 311.09C301.773 311.361 301.851 311.693 301.814 312.022C301.778 312.351 301.63 312.654 301.399 312.873C301.168 313.091 300.87 313.21 300.563 313.205L300.588 313.219Z" fill="black"/>
<path d="M304.867 325.035C303.186 325.01 301.53 324.588 300.016 323.801C299.722 323.638 299.5 323.356 299.399 323.017C299.298 322.678 299.327 322.309 299.478 321.992C299.629 321.676 299.89 321.436 300.204 321.328C300.519 321.219 300.86 321.249 301.154 321.412C301.191 321.412 304.059 322.982 306.646 322.083C307.352 321.806 307.999 321.377 308.546 320.822C309.094 320.268 309.531 319.598 309.831 318.855C309.898 318.688 309.996 318.537 310.119 318.411C310.243 318.286 310.388 318.189 310.547 318.127C310.706 318.065 310.876 318.038 311.045 318.048C311.214 318.059 311.379 318.107 311.53 318.189C311.681 318.27 311.816 318.385 311.925 318.524C312.034 318.664 312.115 318.826 312.164 319.001C312.212 319.176 312.228 319.36 312.208 319.541C312.189 319.723 312.136 319.898 312.051 320.056C311.609 321.123 310.969 322.08 310.17 322.869C309.37 323.657 308.429 324.26 307.405 324.639C306.584 324.915 305.727 325.048 304.867 325.035Z" fill="black"/>
<path d="M360.463 353.216L315.447 357.695L317.358 380.045L362.374 375.566L360.463 353.216Z" fill="#C9A690"/>
<path d="M296.899 259.035C300.855 258.7 304.631 262.209 306.851 265.329C310.583 270.59 312.157 277.005 315.031 282.775C320.734 294.183 334.624 295.612 344.744 290.861L382.872 275.515C381.927 272.234 377.038 253.681 359.553 244.703C351.463 240.621 342.44 239.193 333.604 240.596L301.515 242.408C297.779 242.589 294.145 243.772 290.941 245.85C285.137 249.708 278.793 257.928 281.038 275.287C281.55 271.019 283.409 267.072 286.302 264.11C289.196 261.147 292.947 259.35 296.924 259.022L296.899 259.035Z" fill="black"/>
<path d="M283.762 374.099C283.762 374.099 269.332 376.28 259.853 407.528C257.508 415.258 255.02 422.908 252.146 430.45L232.696 478.051L246.859 543.735L278.612 521.458L268.007 491.873C262.048 476.44 260.294 459.048 264.791 443.065L283.762 374.099Z" fill="#FFDCC2"/>
<path d="M408.169 501.066L276.013 517.767C270.085 501.911 268.947 500.455 263.025 484.613C258.181 471.665 257.551 457.327 261.24 443.944L279.732 377.078C280.138 375.593 280.967 374.283 282.101 373.335C283.235 372.386 284.617 371.846 286.052 371.791L402.639 367.006C405.482 422.062 405.358 446.01 408.169 501.066Z" fill="#C9A690"/>
<path d="M265.364 323.968C269.494 326.518 271.913 331.175 274.072 335.563C276.571 340.605 278.759 345.819 280.621 351.171C284.35 361.848 286.745 373.013 287.743 384.372C288.725 395.487 288.23 406.696 286.275 417.66C284.419 427.954 281.252 437.921 276.865 447.279C272.478 456.667 266.832 465.307 260.108 472.918C259.279 473.87 258.416 474.805 257.52 475.722C255.791 477.527 258.429 480.372 260.158 478.567C267.407 470.965 273.566 462.24 278.432 452.68C283.327 443.124 286.962 432.877 289.23 422.237C291.585 411.046 292.442 399.549 291.774 388.096C291.089 376.253 288.92 364.565 285.324 353.352C283.507 347.664 281.344 342.111 278.849 336.731C276.603 331.886 274.202 326.699 270.427 323.015C269.463 322.064 268.406 321.229 267.273 320.526C265.183 319.238 263.305 322.714 265.407 324.002L265.364 323.968Z" fill="white"/>
<path d="M359.074 557.108C358.609 541.867 361.35 526.71 367.092 512.775C372.792 498.769 381.305 486.304 392.015 476.279C397.613 471.092 404.032 465.912 411.409 464.335C414.679 463.619 418.071 463.912 421.193 465.181C422.473 465.748 423.697 466.454 424.844 467.288C426 468.142 427.073 469.12 428.048 470.207C432.346 474.904 435.226 481.211 437.278 487.384C440.015 495.651 441.819 504.367 443.274 512.99C446.362 531.29 447.147 549.956 445.607 568.482C445.416 570.803 445.188 573.121 444.923 575.433C444.798 576.514 445.868 577.446 446.789 577.446C447.28 577.434 447.748 577.219 448.096 576.844C448.443 576.469 448.644 575.964 448.655 575.433C450.824 556.189 450.522 536.715 447.759 517.559C446.455 508.272 444.541 499.096 442.03 490.102C440.059 483.11 437.334 476.219 433.154 470.421C429.068 464.738 423.401 460.611 416.64 459.981C408.436 459.222 400.686 463.96 394.36 469.093C382.541 478.749 372.912 491.178 366.202 505.441C359.423 519.674 355.699 535.369 355.305 551.365C355.261 553.277 355.305 555.183 355.342 557.095C355.423 559.678 359.155 559.692 359.074 557.095V557.108Z" fill="white"/>
<path d="M290.717 522.988C288.981 512.091 289.019 500.951 290.829 490.069C292.477 480.158 295.444 470.321 300.333 461.698C302.53 457.765 305.222 454.179 308.332 451.043C309.837 449.551 311.46 448.204 313.183 447.017C314.791 445.894 316.495 444.939 318.271 444.165C321.796 442.678 325.559 441.962 329.343 442.058C332.926 442.105 336.459 442.967 339.712 444.588C343.089 446.281 345.938 448.997 347.91 452.405C350.217 456.465 351.132 461.437 349.776 465.906C349.177 467.857 348.158 469.628 346.802 471.072C345.484 472.468 343.649 473.756 341.708 473.938C340.899 474 340.088 473.858 339.339 473.521C338.591 473.184 337.926 472.663 337.398 471.998C336.153 470.542 335.241 468.79 334.736 466.885C331.949 456.988 335.911 446.171 340.632 437.757C345.259 429.651 351.205 422.513 358.185 416.688C365.468 410.604 373.588 405.787 382.25 402.409C391.83 398.685 401.807 396.28 411.945 395.249C414.433 394.981 416.921 394.779 419.409 394.645C419.899 394.632 420.367 394.415 420.714 394.041C421.061 393.666 421.262 393.162 421.275 392.632C421.275 392.098 421.078 391.586 420.728 391.209C420.378 390.831 419.903 390.619 419.409 390.619C408.518 391.128 397.725 393.055 387.264 396.356C377.465 399.462 368.182 404.218 359.759 410.447C351.855 416.321 344.995 423.68 339.506 432.174C333.815 441.126 329.1 452.264 330.301 463.376C330.836 468.348 332.509 473.555 336.521 476.461C340.813 479.547 346.212 477.413 349.552 473.777C351.221 471.905 352.486 469.659 353.257 467.199C354.028 464.738 354.286 462.125 354.011 459.545C353.423 454.251 351.147 449.344 347.574 445.661C341.565 439.428 332.758 437.214 324.641 438.354C315.622 439.622 307.803 444.991 301.975 452.405C295.755 460.343 291.712 470.052 289.118 480.01C286.134 491.48 285.08 503.434 286.008 515.305C286.238 518.251 286.63 521.196 287.066 524.115C287.198 524.629 287.514 525.066 287.944 525.329C288.374 525.592 288.884 525.66 289.361 525.518C289.833 525.367 290.233 525.025 290.477 524.564C290.72 524.102 290.788 523.556 290.667 523.042L290.717 522.988Z" fill="white"/>
<path d="M476.968 494.866H477.037L467.576 471.113L447.672 421.089C444.807 413.896 441.942 406.699 439.076 399.496C435.17 389.693 431.985 379.085 423.75 372.401C413.176 363.833 397.191 362.068 386.293 370.918C377.019 378.447 374.475 392.122 374.643 404.026C374.867 417.52 378.997 430.644 384.434 442.655C390.032 455.029 394.634 467.912 399.778 480.52L408.175 501.093L282.226 516.982C278.048 517.505 273.97 518.721 270.135 520.586C264.848 523.167 259.47 525.94 254 528.906C250.795 530.642 247.664 532.391 244.608 534.153L252.514 568.374H432.172C467.495 568.374 490.833 529.295 476.968 494.866Z" fill="#FFDCC2"/>
<path d="M597.742 369.509H463.334C460.365 369.509 457.517 368.237 455.417 365.972C453.318 363.707 452.138 360.635 452.138 357.431V244.166C452.138 240.963 453.318 237.891 455.417 235.625C457.517 233.36 460.365 232.088 463.334 232.088H597.742C600.712 232.088 603.559 233.36 605.659 235.625C607.759 237.891 608.938 240.963 608.938 244.166V357.445C608.935 360.646 607.754 363.714 605.655 365.976C603.555 368.239 600.709 369.509 597.742 369.509ZM463.334 234.785C461.025 234.785 458.81 235.775 457.177 237.537C455.544 239.299 454.626 241.688 454.626 244.179V357.445C454.626 359.936 455.544 362.326 457.177 364.087C458.81 365.849 461.025 366.839 463.334 366.839H597.742C600.052 366.839 602.267 365.849 603.9 364.087C605.533 362.326 606.45 359.936 606.45 357.445V244.166C606.45 241.674 605.533 239.285 603.9 237.523C602.267 235.762 600.052 234.772 597.742 234.772L463.334 234.785Z" fill="#2E2E2E"/>
<path d="M524.221 258.626H476.203C473.098 258.626 470.58 261.342 470.58 264.692V343.716C470.58 347.066 473.098 349.782 476.203 349.782H524.221C527.327 349.782 529.844 347.066 529.844 343.716V264.692C529.844 261.342 527.327 258.626 524.221 258.626Z" fill="#D36582"/>
<path d="M563.588 261.444H551.079C549.355 261.444 547.957 262.952 547.957 264.813V278.307C547.957 280.167 549.355 281.675 551.079 281.675H563.588C565.312 281.675 566.71 280.167 566.71 278.307V264.813C566.71 262.952 565.312 261.444 563.588 261.444Z" fill="#FFEECF"/>
<path d="M591.037 261.444H578.529C576.804 261.444 575.406 262.952 575.406 264.813V278.307C575.406 280.167 576.804 281.675 578.529 281.675H591.037C592.762 281.675 594.16 280.167 594.16 278.307V264.813C594.16 262.952 592.762 261.444 591.037 261.444Z" fill="#FFEECF"/>
<path d="M594.153 298.343H549.151C548.821 298.343 548.505 298.201 548.272 297.95C548.038 297.698 547.907 297.357 547.907 297.001C547.907 296.645 548.038 296.303 548.272 296.052C548.505 295.8 548.821 295.659 549.151 295.659H594.153C594.483 295.659 594.799 295.8 595.033 296.052C595.266 296.303 595.397 296.645 595.397 297.001C595.397 297.357 595.266 297.698 595.033 297.95C594.799 298.201 594.483 298.343 594.153 298.343Z" fill="#2E2E2E"/>
<path d="M594.153 311.997H549.151C548.821 311.997 548.505 311.856 548.272 311.604C548.038 311.353 547.907 311.011 547.907 310.655C547.907 310.3 548.038 309.958 548.272 309.707C548.505 309.455 548.821 309.313 549.151 309.313H594.153C594.483 309.313 594.799 309.455 595.033 309.707C595.266 309.958 595.397 310.3 595.397 310.655C595.397 311.011 595.266 311.353 595.033 311.604C594.799 311.856 594.483 311.997 594.153 311.997Z" fill="#2E2E2E"/>
<path d="M580.693 326.585H549.151C548.821 326.585 548.505 326.444 548.272 326.192C548.038 325.94 547.907 325.599 547.907 325.243C547.907 324.887 548.038 324.546 548.272 324.294C548.505 324.043 548.821 323.901 549.151 323.901H580.693C581.023 323.901 581.339 324.043 581.572 324.294C581.806 324.546 581.937 324.887 581.937 325.243C581.937 325.599 581.806 325.94 581.572 326.192C581.339 326.444 581.023 326.585 580.693 326.585Z" fill="#2E2E2E"/>
<path d="M432.912 488.351C432.912 485.11 422.263 482.479 409.12 482.479C395.978 482.479 385.329 485.11 385.329 488.351L382.772 517.311C388.731 516.264 397.078 516.197 404.443 521.136C407.068 522.949 409.967 524.255 413.008 524.994C418.127 526.155 425.834 526.43 435.108 522.189L432.912 488.351Z" fill="white"/>
<path d="M419.719 527.074C417.377 527.077 415.041 526.821 412.747 526.309C409.568 525.534 406.538 524.172 403.79 522.283C396.637 517.506 388.52 517.667 382.972 518.64L381.379 518.922L384.091 488.284C384.228 482.64 400.5 481.144 409.121 481.144C417.741 481.144 434.05 482.627 434.156 488.297L436.408 523.055L435.587 523.424C430.581 525.785 425.183 527.027 419.719 527.074ZM389.117 515.399C394.739 515.291 400.276 516.883 405.102 519.995C407.602 521.724 410.361 522.971 413.257 523.679C417.81 524.712 425.019 525.115 433.783 521.317L431.668 488.351C431.668 487.264 424.888 483.821 409.121 483.821C393.353 483.821 386.573 487.264 386.573 488.351V488.478L384.16 515.741C385.804 515.515 387.46 515.401 389.117 515.399Z" fill="black"/>
<path d="M436.75 519.814C426.879 524.055 418.668 523.779 413.22 522.619C410.008 521.881 406.932 520.578 404.114 518.76C396.233 513.815 387.382 513.889 381.037 514.929L378.444 542.487C378.112 545.997 378.467 549.543 379.485 552.896C380.503 556.249 382.162 559.334 384.354 561.952C386.547 564.57 389.224 566.663 392.213 568.095C395.202 569.527 398.436 570.267 401.706 570.267H415.036C418.253 570.267 421.436 569.551 424.385 568.164C427.334 566.777 429.986 564.749 432.175 562.206C434.364 559.662 436.043 556.659 437.108 553.384C438.172 550.109 438.599 546.632 438.361 543.171L436.75 519.814Z" fill="#FFBB45"/>
<path d="M407.23 552.854H407.118C406.789 552.822 406.487 552.65 406.276 552.377C406.064 552.104 405.962 551.752 405.992 551.398L413.736 458.934C413.847 457.529 414.444 456.221 415.409 455.269C416.373 454.318 417.635 453.794 418.942 453.801H437.365C437.695 453.801 438.012 453.942 438.245 454.194C438.478 454.445 438.609 454.787 438.609 455.143C438.609 455.499 438.478 455.84 438.245 456.092C438.012 456.343 437.695 456.485 437.365 456.485H418.942C418.258 456.483 417.599 456.758 417.093 457.255C416.588 457.751 416.273 458.434 416.211 459.169L408.467 551.633C408.439 551.966 408.297 552.276 408.068 552.502C407.839 552.728 407.54 552.854 407.23 552.854Z" fill="black"/>
<path d="M409.071 495.376C408.356 495.376 407.64 495.376 406.931 495.336C399.274 495.024 391.752 493.064 384.807 489.572C384.658 489.497 384.525 489.392 384.415 489.262C384.304 489.132 384.218 488.98 384.162 488.814C384.106 488.649 384.081 488.473 384.088 488.296C384.095 488.12 384.134 487.947 384.203 487.787C384.272 487.627 384.37 487.483 384.49 487.364C384.611 487.245 384.752 487.152 384.906 487.092C385.059 487.032 385.222 487.004 385.386 487.012C385.549 487.019 385.71 487.062 385.858 487.136C392.496 490.477 399.686 492.353 407.006 492.652C415.745 492.991 424.436 491.101 432.371 487.136C432.519 487.061 432.68 487.018 432.844 487.01C433.008 487.002 433.172 487.029 433.326 487.089C433.48 487.149 433.622 487.242 433.742 487.362C433.863 487.482 433.961 487.626 434.03 487.787C434.099 487.947 434.138 488.121 434.144 488.298C434.15 488.475 434.124 488.651 434.067 488.817C434.01 488.983 433.923 489.135 433.811 489.265C433.7 489.394 433.565 489.499 433.416 489.572C425.784 493.379 417.479 495.359 409.071 495.376Z" fill="black"/>
<path d="M330.438 372.281C330.12 372.281 329.815 372.151 329.583 371.916C329.352 371.682 329.213 371.361 329.194 371.019L328.46 357.371C328.441 357.015 328.553 356.665 328.773 356.399C328.993 356.133 329.302 355.972 329.632 355.952C329.962 355.931 330.286 356.053 330.533 356.29C330.779 356.527 330.929 356.861 330.948 357.216L331.682 370.858C331.692 371.034 331.669 371.211 331.616 371.378C331.563 371.545 331.479 371.699 331.371 371.831C331.262 371.963 331.13 372.071 330.983 372.148C330.836 372.225 330.676 372.27 330.512 372.281H330.438Z" fill="black"/>
<path d="M343.052 371.287C342.734 371.288 342.429 371.158 342.198 370.923C341.966 370.689 341.827 370.368 341.808 370.026L341.074 356.378C341.064 356.201 341.087 356.025 341.141 355.858C341.195 355.692 341.279 355.538 341.388 355.406C341.497 355.274 341.628 355.167 341.776 355.09C341.923 355.013 342.083 354.969 342.246 354.959C342.41 354.948 342.573 354.973 342.728 355.031C342.882 355.089 343.025 355.18 343.147 355.297C343.269 355.414 343.369 355.557 343.44 355.716C343.511 355.875 343.552 356.047 343.562 356.223L344.296 369.898C344.306 370.075 344.284 370.251 344.23 370.418C344.177 370.585 344.094 370.739 343.985 370.872C343.876 371.004 343.745 371.111 343.597 371.189C343.45 371.266 343.29 371.311 343.126 371.321L343.052 371.287Z" fill="black"/>
<path d="M214.211 373.985H82.2471C79.9376 373.985 77.7226 372.995 76.0896 371.233C74.4565 369.472 73.5391 367.082 73.5391 364.591V273.724C73.5391 271.232 74.4565 268.843 76.0896 267.081C77.7226 265.319 79.9376 264.33 82.2471 264.33H214.211C216.52 264.33 218.735 265.319 220.368 267.081C222.001 268.843 222.919 271.232 222.919 273.724V364.571C222.921 365.806 222.698 367.03 222.261 368.172C221.825 369.314 221.184 370.352 220.375 371.226C219.566 372.101 218.605 372.795 217.547 373.268C216.49 373.741 215.356 373.985 214.211 373.985ZM82.2471 266.993C80.5974 266.993 79.0153 267.7 77.8489 268.959C76.6824 270.217 76.0271 271.924 76.0271 273.704V364.571C76.0271 366.35 76.6824 368.057 77.8489 369.315C79.0153 370.574 80.5974 371.281 82.2471 371.281H214.211C215.86 371.281 217.442 370.574 218.609 369.315C219.775 368.057 220.431 366.35 220.431 364.571V273.724C220.431 271.944 219.775 270.237 218.609 268.979C217.442 267.721 215.86 267.014 214.211 267.014L82.2471 266.993Z" fill="#2E2E2E"/>
<path d="M202.355 333.054H146.463C143.787 333.054 141.617 335.394 141.617 338.281V340.18C141.617 343.067 143.787 345.407 146.463 345.407H202.355C205.032 345.407 207.201 343.067 207.201 340.18V338.281C207.201 335.394 205.032 333.054 202.355 333.054Z" fill="#FFEECF"/>
<path d="M204.464 301.792H144.354C144.024 301.792 143.708 301.65 143.474 301.399C143.241 301.147 143.11 300.806 143.11 300.45C143.11 300.094 143.241 299.752 143.474 299.501C143.708 299.249 144.024 299.108 144.354 299.108H204.464C204.794 299.108 205.11 299.249 205.344 299.501C205.577 299.752 205.708 300.094 205.708 300.45C205.708 300.806 205.577 301.147 205.344 301.399C205.11 301.65 204.794 301.792 204.464 301.792Z" fill="#2E2E2E"/>
<path d="M195.998 316.466H144.372C144.042 316.466 143.726 316.325 143.493 316.073C143.259 315.822 143.128 315.48 143.128 315.124C143.128 314.769 143.259 314.427 143.493 314.176C143.726 313.924 144.042 313.782 144.372 313.782H195.998C196.328 313.782 196.645 313.924 196.878 314.176C197.111 314.427 197.242 314.769 197.242 315.124C197.242 315.48 197.111 315.822 196.878 316.073C196.645 316.325 196.328 316.466 195.998 316.466Z" fill="#2E2E2E"/>
<path d="M345.154 569.958H244.608V546.506H345.154C346.543 546.506 347.875 547.102 348.857 548.161C349.84 549.221 350.391 550.658 350.391 552.156V564.301C350.392 565.044 350.257 565.779 349.995 566.465C349.732 567.152 349.346 567.775 348.86 568.301C348.373 568.826 347.796 569.243 347.16 569.527C346.524 569.812 345.842 569.958 345.154 569.958Z" fill="#2E2E2E"/>
<path d="M255.959 569.958H138.115C135.918 569.98 133.774 569.237 132.001 567.838C130.228 566.439 128.921 564.46 128.275 562.195L99.4204 456.659C97.5544 449.822 102.462 443.011 109.26 443.011H220.399C222.693 442.982 224.927 443.791 226.74 445.307C228.552 446.823 229.836 448.955 230.382 451.358L255.959 569.958Z" fill="#2E2E2E"/>
<path d="M170.372 534.106C179.389 534.106 186.699 526.22 186.699 516.492C186.699 506.765 179.389 498.879 170.372 498.879C161.355 498.879 154.044 506.765 154.044 516.492C154.044 526.22 161.355 534.106 170.372 534.106Z" fill="#D36582"/>
<path d="M166.783 503.971C166.505 503.971 166.234 503.869 166.015 503.683C165.797 503.497 165.642 503.237 165.577 502.945L163.623 494.316C163.585 494.144 163.578 493.966 163.602 493.792C163.627 493.618 163.684 493.45 163.769 493.3C163.94 492.995 164.217 492.776 164.538 492.692C164.859 492.607 165.197 492.664 165.48 492.849C165.762 493.034 165.965 493.332 166.043 493.678L167.996 502.307C168.035 502.479 168.042 502.657 168.017 502.831C167.993 503.006 167.936 503.173 167.851 503.324C167.766 503.475 167.655 503.606 167.523 503.71C167.391 503.814 167.241 503.89 167.082 503.931C166.984 503.958 166.884 503.971 166.783 503.971Z" fill="#6DC8C2"/>
<path d="M571.655 569.716H78.5711C78.2412 569.716 77.9248 569.575 77.6915 569.323C77.4582 569.072 77.3271 568.73 77.3271 568.374C77.3271 568.018 77.4582 567.677 77.6915 567.425C77.9248 567.174 78.2412 567.032 78.5711 567.032H571.655C571.985 567.032 572.302 567.174 572.535 567.425C572.768 567.677 572.899 568.018 572.899 568.374C572.899 568.73 572.768 569.072 572.535 569.323C572.302 569.575 571.985 569.716 571.655 569.716Z" fill="black"/>
<path d="M321.387 134.93C317.197 134.937 313.099 133.603 309.613 131.096C306.126 128.59 303.406 125.024 301.798 120.849C300.191 116.675 299.767 112.08 300.58 107.646C301.394 103.212 303.409 99.1376 306.369 95.9389C309.33 92.7403 313.104 90.5609 317.213 89.6766C321.322 88.7923 325.582 89.2428 329.454 90.9711C333.326 92.6994 336.635 95.6278 338.964 99.3858C341.293 103.144 342.535 107.562 342.535 112.083C342.527 118.134 340.298 123.935 336.334 128.217C332.371 132.499 326.997 134.913 321.387 134.93ZM321.387 91.9191C317.697 91.9191 314.089 93.0997 311.021 95.3116C307.952 97.5236 305.56 100.667 304.148 104.346C302.736 108.024 302.366 112.072 303.086 115.976C303.806 119.881 305.583 123.468 308.193 126.283C310.802 129.099 314.127 131.016 317.747 131.793C321.367 132.569 325.119 132.171 328.528 130.647C331.938 129.123 334.852 126.543 336.903 123.233C338.953 119.922 340.047 116.031 340.047 112.049C340.034 106.715 338.064 101.603 334.568 97.8307C331.071 94.0587 326.332 91.9333 321.387 91.9191Z" fill="white"/>
<path d="M322.343 0H320.657C318.085 0 316 3.10747 316 6.94074V64.3092C316 68.1425 318.085 71.25 320.657 71.25H322.343C324.915 71.25 327 68.1425 327 64.3092V6.94074C327 3.10747 324.915 0 322.343 0Z" fill="black"/>
<path d="M320.479 56.4382C307.311 56.6528 294.441 60.6921 283.221 68.1312C272.002 75.5704 262.848 86.1343 256.724 98.7114C256.514 99.1402 256.41 99.6204 256.422 100.105C256.435 100.59 256.564 101.063 256.796 101.479C257.028 101.894 257.356 102.238 257.748 102.476C258.14 102.714 258.582 102.839 259.032 102.838H383.774C384.223 102.838 384.664 102.712 385.055 102.473C385.446 102.235 385.773 101.891 386.005 101.476C386.237 101.061 386.365 100.588 386.377 100.104C386.389 99.6193 386.285 99.1397 386.075 98.7114C379.804 85.8377 370.362 75.0797 358.789 67.6214C347.216 60.1631 333.96 56.2934 320.479 56.4382Z" fill="#FFEECF"/>
<path d="M283.072 104.621C274.887 104.621 268.213 98.6561 268.113 98.5823C267.861 98.3527 267.703 98.0244 267.675 97.6695C267.647 97.3146 267.751 96.9623 267.964 96.69C268.177 96.4178 268.481 96.2478 268.81 96.2176C269.139 96.1874 269.466 96.2994 269.718 96.529C270.265 97.0255 283.203 108.527 294.25 96.6095L295.002 95.7976L295.867 96.4686C296.489 96.9517 311.056 108.198 321.811 96.6028L322.538 95.811L323.397 96.4418C325.845 98.1363 328.526 99.4044 331.34 100.199C337.155 101.783 341.97 100.575 345.646 96.6028L346.417 95.7708L347.281 96.482C347.86 96.9584 361.631 108.064 372.261 96.6028C372.497 96.371 372.807 96.2461 373.126 96.254C373.446 96.2619 373.75 96.4019 373.976 96.645C374.202 96.8882 374.333 97.2159 374.341 97.5603C374.35 97.9047 374.235 98.2393 374.021 98.495C363.485 109.862 350.155 101.749 346.653 99.2667C342.436 103.293 336.931 104.514 330.655 102.783C327.913 101.999 325.286 100.807 322.849 99.2398C312.275 109.62 298.809 101.662 295.276 99.2398C291.227 103.259 286.979 104.621 283.072 104.621Z" fill="#FB6D6D"/>
<path d="M247.805 534.71C247.537 534.703 247.279 534.602 247.068 534.424C246.858 534.245 246.706 533.998 246.636 533.719C246.566 533.44 246.582 533.144 246.68 532.876C246.779 532.607 246.955 532.38 247.183 532.228C251.226 529.544 255.418 527.047 259.623 524.732C265.221 521.679 270.987 518.888 276.821 516.439C277.129 516.31 277.471 516.318 277.773 516.461C278.075 516.605 278.312 516.872 278.432 517.204C278.552 517.536 278.544 517.905 278.411 518.231C278.278 518.557 278.03 518.813 277.723 518.942C271.963 521.357 266.253 524.108 260.748 527.128C256.587 529.409 252.457 531.899 248.458 534.509C248.262 534.642 248.036 534.712 247.805 534.71Z" fill="black"/>
<path d="M87.2604 496.087L94.4693 466.644H53.5728L60.0665 496.409C52.6911 499.881 46.6551 505.997 42.9815 513.72C39.3078 521.443 38.2225 530.299 39.9094 538.787C41.5963 547.275 45.9516 554.873 52.2374 560.293C58.5231 565.713 66.3526 568.622 74.399 568.527C82.4454 568.431 90.2138 565.338 96.3878 559.77C102.562 554.203 106.761 546.504 108.275 537.978C109.789 529.452 108.524 520.624 104.694 512.989C100.864 505.354 94.7047 499.383 87.2604 496.087Z" fill="#C9A690"/>
<path d="M74.0179 569.857C65.8127 569.85 57.8542 566.83 51.4521 561.293C45.05 555.757 40.5857 548.034 38.7938 539.396C37.002 530.758 37.9894 521.719 41.5935 513.767C45.1976 505.815 51.2037 499.424 58.6234 495.645L51.9991 465.302H96.0802L88.7406 495.309C96.2897 498.951 102.452 505.276 106.199 513.229C109.945 521.182 111.049 530.281 109.326 539.006C107.603 547.732 103.157 555.555 96.7307 561.17C90.3047 566.785 82.2874 569.851 74.0179 569.857ZM55.1402 467.986L61.5157 497.195L60.564 497.637C53.4496 500.985 47.6269 506.883 44.0825 514.332C40.5382 521.781 39.4904 530.323 41.1166 538.51C42.7429 546.697 46.9431 554.026 53.0056 559.255C59.068 564.483 66.6198 567.289 74.3809 567.198C82.142 567.107 89.6352 564.123 95.5905 558.753C101.546 553.383 105.597 545.958 107.057 537.734C108.517 529.51 107.297 520.995 103.603 513.631C99.9087 506.267 93.968 500.508 86.7876 497.329L85.7799 496.879L92.8521 467.986H55.1402Z" fill="#2E2E2E"/>
<path d="M74.0058 470.301C86.2282 470.301 96.1365 468.035 96.1365 465.241C96.1365 462.447 86.2282 460.182 74.0058 460.182C61.7833 460.182 51.875 462.447 51.875 465.241C51.875 468.035 61.7833 470.301 74.0058 470.301Z" fill="#2E2E2E"/>
<path d="M67.9848 469.314C67.731 469.313 67.4835 469.229 67.2756 469.071C67.0676 468.914 66.9093 468.692 66.8217 468.435C59.2706 446.225 43.6646 428.175 43.5091 428.021C43.3968 427.893 43.309 427.742 43.2507 427.577C43.1924 427.412 43.1648 427.237 43.1694 427.06C43.1741 426.884 43.2108 426.71 43.2777 426.549C43.3445 426.388 43.44 426.243 43.5589 426.122C43.6777 426.001 43.8175 425.906 43.9703 425.843C44.1231 425.78 44.2859 425.75 44.4493 425.755C44.6128 425.76 44.7737 425.8 44.923 425.872C45.0722 425.944 45.2068 426.047 45.3191 426.176C45.4809 426.363 61.4289 444.776 69.1542 467.509C69.2612 467.84 69.2443 468.202 69.1072 468.519C68.9701 468.836 68.7236 469.083 68.4202 469.207C68.2819 469.27 68.1346 469.306 67.9848 469.314Z" fill="#4EA46B"/>
<path d="M77.9491 469.495C77.6191 469.495 77.3027 469.354 77.0694 469.102C76.8361 468.851 76.7051 468.509 76.7051 468.153V448.936C76.7051 448.58 76.8361 448.239 77.0694 447.987C77.3027 447.735 77.6191 447.594 77.9491 447.594C78.279 447.594 78.5954 447.735 78.8287 447.987C79.062 448.239 79.1931 448.58 79.1931 448.936V468.153C79.1931 468.509 79.062 468.851 78.8287 469.102C78.5954 469.354 78.279 469.495 77.9491 469.495Z" fill="#4EA46B"/>
<path d="M50.7118 414.587H45.4062C45.3066 414.292 45.1947 414.003 45.0765 413.722L48.9391 410.031C49.3481 409.651 49.683 409.188 49.9245 408.667C50.166 408.146 50.3091 407.579 50.3457 406.998C50.3823 406.417 50.3115 405.834 50.1375 405.283C49.9635 404.732 49.6898 404.224 49.3322 403.788C48.9745 403.352 48.5402 402.997 48.0543 402.744C47.5685 402.49 47.0408 402.343 46.5019 402.312C45.9631 402.28 45.4238 402.364 44.9153 402.56C44.4069 402.755 43.9394 403.057 43.5402 403.449L39.4723 407.334C39.4101 407.394 39.3603 407.468 39.2981 407.535C39.0431 407.407 38.7819 407.293 38.5144 407.186V401.865C38.4732 400.728 38.0257 399.653 37.2655 398.864C36.5054 398.076 35.4918 397.635 34.4372 397.635C33.3826 397.635 32.369 398.076 31.6088 398.864C30.8487 399.653 30.4011 400.728 30.36 401.865V407.186C29.983 407.335 29.6134 407.505 29.2528 407.696C29.1383 407.543 29.0136 407.4 28.8796 407.267L24.7806 403.449C23.9556 402.739 22.9081 402.402 21.8577 402.508C20.8074 402.614 19.8359 403.155 19.1471 404.017C18.4583 404.879 18.1058 405.995 18.1634 407.131C18.2211 408.268 18.6844 409.336 19.4563 410.112L23.574 413.943C23.6065 413.974 23.6419 414.001 23.6797 414.024C23.6051 414.211 23.5429 414.406 23.4744 414.601H18.3616C17.2865 414.606 16.2569 415.069 15.4972 415.89C14.7375 416.711 14.3094 417.822 14.3062 418.982C14.3062 420.149 14.7352 421.267 15.4991 422.092C16.2629 422.918 17.2992 423.382 18.3803 423.384H23.4433L23.5677 423.746H23.5304L19.4563 427.631C18.6868 428.416 18.2302 429.493 18.183 430.634C18.1359 431.776 18.5019 432.892 19.2036 433.747C19.9054 434.603 20.888 435.13 21.9438 435.219C22.9996 435.307 24.0458 434.949 24.8615 434.221L28.9294 430.336L29.0165 430.235C29.4613 430.494 29.9227 430.718 30.3973 430.906V436.18C30.4385 437.317 30.886 438.392 31.6462 439.181C32.4063 439.97 33.4199 440.41 34.4745 440.41C35.5291 440.41 36.5427 439.97 37.3028 439.181C38.063 438.392 38.5105 437.317 38.5517 436.18V430.96C38.8316 430.846 39.1115 430.725 39.3852 430.584L43.3784 434.295C44.2008 435.054 45.2689 435.429 46.3479 435.338C47.4269 435.248 48.4284 434.699 49.1319 433.811C49.8355 432.924 50.1836 431.772 50.0996 430.608C50.0156 429.444 49.5064 428.364 48.6841 427.605L45.1387 424.303C45.2631 424.001 45.3751 423.693 45.4808 423.384H50.7118C51.794 423.384 52.8318 422.92 53.597 422.095C54.3622 421.269 54.7921 420.15 54.7921 418.982C54.7905 417.816 54.3599 416.698 53.5948 415.874C52.8298 415.05 51.7929 414.587 50.7118 414.587Z" fill="#C7B8F8"/>
<path d="M50.7118 414.587H45.4062C45.3066 414.292 45.1947 414.003 45.0765 413.722L48.9391 410.031C49.3481 409.651 49.683 409.188 49.9245 408.667C50.166 408.146 50.3091 407.579 50.3457 406.998C50.3823 406.417 50.3115 405.834 50.1375 405.283C49.9635 404.732 49.6898 404.224 49.3322 403.788C48.9745 403.352 48.5402 402.997 48.0543 402.744C47.5685 402.49 47.0408 402.343 46.5019 402.312C45.9631 402.28 45.4238 402.364 44.9153 402.56C44.4069 402.755 43.9394 403.057 43.5402 403.449L39.4723 407.334C39.4101 407.394 39.3603 407.468 39.2981 407.535C39.0431 407.407 38.7819 407.293 38.5144 407.186V401.865C38.4732 400.728 38.0257 399.653 37.2655 398.864C36.5054 398.076 35.4918 397.635 34.4372 397.635C33.3826 397.635 32.369 398.076 31.6088 398.864C30.8487 399.653 30.4011 400.728 30.36 401.865V407.186C29.983 407.335 29.6134 407.505 29.2528 407.696C29.1383 407.543 29.0136 407.4 28.8796 407.267L24.7806 403.449C23.9556 402.739 22.9081 402.402 21.8577 402.508C20.8074 402.614 19.8359 403.155 19.1471 404.017C18.4583 404.879 18.1058 405.995 18.1634 407.131C18.2211 408.268 18.6844 409.336 19.4563 410.112L23.574 413.943C23.6065 413.974 23.6419 414.001 23.6797 414.024C23.6051 414.211 23.5429 414.406 23.4744 414.601H18.3616C17.2865 414.606 16.2569 415.069 15.4972 415.89C14.7375 416.711 14.3094 417.822 14.3062 418.982C14.3062 420.149 14.7352 421.267 15.4991 422.092C16.2629 422.918 17.2992 423.382 18.3803 423.384H23.4433L23.5677 423.746H23.5304L19.4563 427.631C18.6868 428.416 18.2302 429.493 18.183 430.634C18.1359 431.776 18.5019 432.892 19.2036 433.747C19.9054 434.603 20.888 435.13 21.9438 435.219C22.9996 435.307 24.0458 434.949 24.8615 434.221L28.9294 430.336L29.0165 430.235C29.4613 430.494 29.9227 430.718 30.3973 430.906V436.18C30.4385 437.317 30.886 438.392 31.6462 439.181C32.4063 439.97 33.4199 440.41 34.4745 440.41C35.5291 440.41 36.5427 439.97 37.3028 439.181C38.063 438.392 38.5105 437.317 38.5517 436.18V430.96C38.8316 430.846 39.1115 430.725 39.3852 430.584L43.3784 434.295C44.2008 435.054 45.2689 435.429 46.3479 435.338C47.4269 435.248 48.4284 434.699 49.1319 433.811C49.8355 432.924 50.1836 431.772 50.0996 430.608C50.0156 429.444 49.5064 428.364 48.6841 427.605L45.1387 424.303C45.2631 424.001 45.3751 423.693 45.4808 423.384H50.7118C51.794 423.384 52.8318 422.92 53.597 422.095C54.3622 421.269 54.7921 420.15 54.7921 418.982C54.7905 417.816 54.3599 416.698 53.5948 415.874C52.8298 415.05 51.7929 414.587 50.7118 414.587Z" fill="#C7B8F8"/>
<path d="M50.7118 414.587H45.4062C45.3066 414.292 45.1947 414.003 45.0765 413.722L48.9391 410.031C49.3481 409.651 49.683 409.188 49.9245 408.667C50.166 408.146 50.3091 407.579 50.3457 406.998C50.3823 406.417 50.3115 405.834 50.1375 405.283C49.9635 404.732 49.6898 404.224 49.3322 403.788C48.9745 403.352 48.5402 402.997 48.0543 402.744C47.5685 402.49 47.0408 402.343 46.5019 402.312C45.9631 402.28 45.4238 402.364 44.9153 402.56C44.4069 402.755 43.9394 403.057 43.5402 403.449L39.4723 407.334C39.4101 407.394 39.3603 407.468 39.2981 407.535C39.0431 407.407 38.7819 407.293 38.5144 407.186V401.865C38.4732 400.728 38.0257 399.653 37.2655 398.864C36.5054 398.076 35.4918 397.635 34.4372 397.635C33.3826 397.635 32.369 398.076 31.6088 398.864C30.8487 399.653 30.4011 400.728 30.36 401.865V407.186C29.983 407.335 29.6134 407.505 29.2528 407.696C29.1383 407.543 29.0136 407.4 28.8796 407.267L24.7806 403.449C23.9556 402.739 22.9081 402.402 21.8577 402.508C20.8074 402.614 19.8359 403.155 19.1471 404.017C18.4583 404.879 18.1058 405.995 18.1634 407.131C18.2211 408.268 18.6844 409.336 19.4563 410.112L23.574 413.943C23.6065 413.974 23.6419 414.001 23.6797 414.024C23.6051 414.211 23.5429 414.406 23.4744 414.601H18.3616C17.2865 414.606 16.2569 415.069 15.4972 415.89C14.7375 416.711 14.3094 417.822 14.3062 418.982C14.3062 420.149 14.7352 421.267 15.4991 422.092C16.2629 422.918 17.2992 423.382 18.3803 423.384H23.4433L23.5677 423.746H23.5304L19.4563 427.631C18.6868 428.416 18.2302 429.493 18.183 430.634C18.1359 431.776 18.5019 432.892 19.2036 433.747C19.9054 434.603 20.888 435.13 21.9438 435.219C22.9996 435.307 24.0458 434.949 24.8615 434.221L28.9294 430.336L29.0165 430.235C29.4613 430.494 29.9227 430.718 30.3973 430.906V436.18C30.4385 437.317 30.886 438.392 31.6462 439.181C32.4063 439.97 33.4199 440.41 34.4745 440.41C35.5291 440.41 36.5427 439.97 37.3028 439.181C38.063 438.392 38.5105 437.317 38.5517 436.18V430.96C38.8316 430.846 39.1115 430.725 39.3852 430.584L43.3784 434.295C44.2008 435.054 45.2689 435.429 46.3479 435.338C47.4269 435.248 48.4284 434.699 49.1319 433.811C49.8355 432.924 50.1836 431.772 50.0996 430.608C50.0156 429.444 49.5064 428.364 48.6841 427.605L45.1387 424.303C45.2631 424.001 45.3751 423.693 45.4808 423.384H50.7118C51.794 423.384 52.8318 422.92 53.597 422.095C54.3622 421.269 54.7921 420.15 54.7921 418.982C54.7905 417.816 54.3599 416.698 53.5948 415.874C52.8298 415.05 51.7929 414.587 50.7118 414.587Z" fill="#C7B8F8"/>
<path d="M50.7118 414.587H45.4062C45.3066 414.292 45.1947 414.003 45.0765 413.722L48.9391 410.031C49.3481 409.651 49.683 409.188 49.9245 408.667C50.166 408.146 50.3091 407.579 50.3457 406.998C50.3823 406.417 50.3115 405.834 50.1375 405.283C49.9635 404.732 49.6898 404.224 49.3322 403.788C48.9745 403.352 48.5402 402.997 48.0543 402.744C47.5685 402.49 47.0408 402.343 46.5019 402.312C45.9631 402.28 45.4238 402.364 44.9153 402.56C44.4069 402.755 43.9394 403.057 43.5402 403.449L39.4723 407.334C39.4101 407.394 39.3603 407.468 39.2981 407.535C39.0431 407.407 38.7819 407.293 38.5144 407.186V401.865C38.4732 400.728 38.0257 399.653 37.2655 398.864C36.5054 398.076 35.4918 397.635 34.4372 397.635C33.3826 397.635 32.369 398.076 31.6088 398.864C30.8487 399.653 30.4011 400.728 30.36 401.865V407.186C29.983 407.335 29.6134 407.505 29.2528 407.696C29.1383 407.543 29.0136 407.4 28.8796 407.267L24.7806 403.449C23.9556 402.739 22.9081 402.402 21.8577 402.508C20.8074 402.614 19.8359 403.155 19.1471 404.017C18.4583 404.879 18.1058 405.995 18.1634 407.131C18.2211 408.268 18.6844 409.336 19.4563 410.112L23.574 413.943C23.6065 413.974 23.6419 414.001 23.6797 414.024C23.6051 414.211 23.5429 414.406 23.4744 414.601H18.3616C17.2865 414.606 16.2569 415.069 15.4972 415.89C14.7375 416.711 14.3094 417.822 14.3062 418.982C14.3062 420.149 14.7352 421.267 15.4991 422.092C16.2629 422.918 17.2992 423.382 18.3803 423.384H23.4433L23.5677 423.746H23.5304L19.4563 427.631C18.6868 428.416 18.2302 429.493 18.183 430.634C18.1359 431.776 18.5019 432.892 19.2036 433.747C19.9054 434.603 20.888 435.13 21.9438 435.219C22.9996 435.307 24.0458 434.949 24.8615 434.221L28.9294 430.336L29.0165 430.235C29.4613 430.494 29.9227 430.718 30.3973 430.906V436.18C30.4385 437.317 30.886 438.392 31.6462 439.181C32.4063 439.97 33.4199 440.41 34.4745 440.41C35.5291 440.41 36.5427 439.97 37.3028 439.181C38.063 438.392 38.5105 437.317 38.5517 436.18V430.96C38.8316 430.846 39.1115 430.725 39.3852 430.584L43.3784 434.295C44.2008 435.054 45.2689 435.429 46.3479 435.338C47.4269 435.248 48.4284 434.699 49.1319 433.811C49.8355 432.924 50.1836 431.772 50.0996 430.608C50.0156 429.444 49.5064 428.364 48.6841 427.605L45.1387 424.303C45.2631 424.001 45.3751 423.693 45.4808 423.384H50.7118C51.794 423.384 52.8318 422.92 53.597 422.095C54.3622 421.269 54.7921 420.15 54.7921 418.982C54.7905 417.816 54.3599 416.698 53.5948 415.874C52.8298 415.05 51.7929 414.587 50.7118 414.587Z" fill="#C7B8F8"/>
<path d="M50.7118 414.587H45.4062C45.3066 414.292 45.1947 414.003 45.0765 413.722L48.9391 410.031C49.3481 409.651 49.683 409.188 49.9245 408.667C50.166 408.146 50.3091 407.579 50.3457 406.998C50.3823 406.417 50.3115 405.834 50.1375 405.283C49.9635 404.732 49.6898 404.224 49.3322 403.788C48.9745 403.352 48.5402 402.997 48.0543 402.744C47.5685 402.49 47.0408 402.343 46.5019 402.312C45.9631 402.28 45.4238 402.364 44.9153 402.56C44.4069 402.755 43.9394 403.057 43.5402 403.449L39.4723 407.334C39.4101 407.394 39.3603 407.468 39.2981 407.535C39.0431 407.407 38.7819 407.293 38.5144 407.186V401.865C38.4732 400.728 38.0257 399.653 37.2655 398.864C36.5054 398.076 35.4918 397.635 34.4372 397.635C33.3826 397.635 32.369 398.076 31.6088 398.864C30.8487 399.653 30.4011 400.728 30.36 401.865V407.186C29.983 407.335 29.6134 407.505 29.2528 407.696C29.1383 407.543 29.0136 407.4 28.8796 407.267L24.7806 403.449C23.9556 402.739 22.9081 402.402 21.8577 402.508C20.8074 402.614 19.8359 403.155 19.1471 404.017C18.4583 404.879 18.1058 405.995 18.1634 407.131C18.2211 408.268 18.6844 409.336 19.4563 410.112L23.574 413.943C23.6065 413.974 23.6419 414.001 23.6797 414.024C23.6051 414.211 23.5429 414.406 23.4744 414.601H18.3616C17.2865 414.606 16.2569 415.069 15.4972 415.89C14.7375 416.711 14.3094 417.822 14.3062 418.982C14.3062 420.149 14.7352 421.267 15.4991 422.092C16.2629 422.918 17.2992 423.382 18.3803 423.384H23.4433L23.5677 423.746H23.5304L19.4563 427.631C18.6868 428.416 18.2302 429.493 18.183 430.634C18.1359 431.776 18.5019 432.892 19.2036 433.747C19.9054 434.603 20.888 435.13 21.9438 435.219C22.9996 435.307 24.0458 434.949 24.8615 434.221L28.9294 430.336L29.0165 430.235C29.4613 430.494 29.9227 430.718 30.3973 430.906V436.18C30.4385 437.317 30.886 438.392 31.6462 439.181C32.4063 439.97 33.4199 440.41 34.4745 440.41C35.5291 440.41 36.5427 439.97 37.3028 439.181C38.063 438.392 38.5105 437.317 38.5517 436.18V430.96C38.8316 430.846 39.1115 430.725 39.3852 430.584L43.3784 434.295C44.2008 435.054 45.2689 435.429 46.3479 435.338C47.4269 435.248 48.4284 434.699 49.1319 433.811C49.8355 432.924 50.1836 431.772 50.0996 430.608C50.0156 429.444 49.5064 428.364 48.6841 427.605L45.1387 424.303C45.2631 424.001 45.3751 423.693 45.4808 423.384H50.7118C51.794 423.384 52.8318 422.92 53.597 422.095C54.3622 421.269 54.7921 420.15 54.7921 418.982C54.7905 417.816 54.3599 416.698 53.5948 415.874C52.8298 415.05 51.7929 414.587 50.7118 414.587Z" fill="#C7B8F8"/>
<path d="M50.7118 414.587H45.4062C45.3066 414.292 45.1947 414.003 45.0765 413.722L48.9391 410.031C49.3481 409.651 49.683 409.188 49.9245 408.667C50.166 408.146 50.3091 407.579 50.3457 406.998C50.3823 406.417 50.3115 405.834 50.1375 405.283C49.9635 404.732 49.6898 404.224 49.3322 403.788C48.9745 403.352 48.5402 402.997 48.0543 402.744C47.5685 402.49 47.0408 402.343 46.5019 402.312C45.9631 402.28 45.4238 402.364 44.9153 402.56C44.4069 402.755 43.9394 403.057 43.5402 403.449L39.4723 407.334C39.4101 407.394 39.3603 407.468 39.2981 407.535C39.0431 407.407 38.7819 407.293 38.5144 407.186V401.865C38.4732 400.728 38.0257 399.653 37.2655 398.864C36.5054 398.076 35.4918 397.635 34.4372 397.635C33.3826 397.635 32.369 398.076 31.6088 398.864C30.8487 399.653 30.4011 400.728 30.36 401.865V407.186C29.983 407.335 29.6134 407.505 29.2528 407.696C29.1383 407.543 29.0136 407.4 28.8796 407.267L24.7806 403.449C23.9556 402.739 22.9081 402.402 21.8577 402.508C20.8074 402.614 19.8359 403.155 19.1471 404.017C18.4583 404.879 18.1058 405.995 18.1634 407.131C18.2211 408.268 18.6844 409.336 19.4563 410.112L23.574 413.943C23.6065 413.974 23.6419 414.001 23.6797 414.024C23.6051 414.211 23.5429 414.406 23.4744 414.601H18.3616C17.2865 414.606 16.2569 415.069 15.4972 415.89C14.7375 416.711 14.3094 417.822 14.3062 418.982C14.3062 420.149 14.7352 421.267 15.4991 422.092C16.2629 422.918 17.2992 423.382 18.3803 423.384H23.4433L23.5677 423.746H23.5304L19.4563 427.631C18.6868 428.416 18.2302 429.493 18.183 430.634C18.1359 431.776 18.5019 432.892 19.2036 433.747C19.9054 434.603 20.888 435.13 21.9438 435.219C22.9996 435.307 24.0458 434.949 24.8615 434.221L28.9294 430.336L29.0165 430.235C29.4613 430.494 29.9227 430.718 30.3973 430.906V436.18C30.4385 437.317 30.886 438.392 31.6462 439.181C32.4063 439.97 33.4199 440.41 34.4745 440.41C35.5291 440.41 36.5427 439.97 37.3028 439.181C38.063 438.392 38.5105 437.317 38.5517 436.18V430.96C38.8316 430.846 39.1115 430.725 39.3852 430.584L43.3784 434.295C44.2008 435.054 45.2689 435.429 46.3479 435.338C47.4269 435.248 48.4284 434.699 49.1319 433.811C49.8355 432.924 50.1836 431.772 50.0996 430.608C50.0156 429.444 49.5064 428.364 48.6841 427.605L45.1387 424.303C45.2631 424.001 45.3751 423.693 45.4808 423.384H50.7118C51.794 423.384 52.8318 422.92 53.597 422.095C54.3622 421.269 54.7921 420.15 54.7921 418.982C54.7905 417.816 54.3599 416.698 53.5948 415.874C52.8298 415.05 51.7929 414.587 50.7118 414.587Z" fill="#C7B8F8"/>
<path d="M50.7118 414.587H45.4062C45.3066 414.292 45.1947 414.003 45.0765 413.722L48.9391 410.031C49.3481 409.651 49.683 409.188 49.9245 408.667C50.166 408.146 50.3091 407.579 50.3457 406.998C50.3823 406.417 50.3115 405.834 50.1375 405.283C49.9635 404.732 49.6898 404.224 49.3322 403.788C48.9745 403.352 48.5402 402.997 48.0543 402.744C47.5685 402.49 47.0408 402.343 46.5019 402.312C45.9631 402.28 45.4238 402.364 44.9153 402.56C44.4069 402.755 43.9394 403.057 43.5402 403.449L39.4723 407.334C39.4101 407.394 39.3603 407.468 39.2981 407.535C39.0431 407.407 38.7819 407.293 38.5144 407.186V401.865C38.4732 400.728 38.0257 399.653 37.2655 398.864C36.5054 398.076 35.4918 397.635 34.4372 397.635C33.3826 397.635 32.369 398.076 31.6088 398.864C30.8487 399.653 30.4011 400.728 30.36 401.865V407.186C29.983 407.335 29.6134 407.505 29.2528 407.696C29.1383 407.543 29.0136 407.4 28.8796 407.267L24.7806 403.449C23.9556 402.739 22.9081 402.402 21.8577 402.508C20.8074 402.614 19.8359 403.155 19.1471 404.017C18.4583 404.879 18.1058 405.995 18.1634 407.131C18.2211 408.268 18.6844 409.336 19.4563 410.112L23.574 413.943C23.6065 413.974 23.6419 414.001 23.6797 414.024C23.6051 414.211 23.5429 414.406 23.4744 414.601H18.3616C17.2865 414.606 16.2569 415.069 15.4972 415.89C14.7375 416.711 14.3094 417.822 14.3062 418.982C14.3062 420.149 14.7352 421.267 15.4991 422.092C16.2629 422.918 17.2992 423.382 18.3803 423.384H23.4433L23.5677 423.746H23.5304L19.4563 427.631C18.6868 428.416 18.2302 429.493 18.183 430.634C18.1359 431.776 18.5019 432.892 19.2036 433.747C19.9054 434.603 20.888 435.13 21.9438 435.219C22.9996 435.307 24.0458 434.949 24.8615 434.221L28.9294 430.336L29.0165 430.235C29.4613 430.494 29.9227 430.718 30.3973 430.906V436.18C30.4385 437.317 30.886 438.392 31.6462 439.181C32.4063 439.97 33.4199 440.41 34.4745 440.41C35.5291 440.41 36.5427 439.97 37.3028 439.181C38.063 438.392 38.5105 437.317 38.5517 436.18V430.96C38.8316 430.846 39.1115 430.725 39.3852 430.584L43.3784 434.295C44.2008 435.054 45.2689 435.429 46.3479 435.338C47.4269 435.248 48.4284 434.699 49.1319 433.811C49.8355 432.924 50.1836 431.772 50.0996 430.608C50.0156 429.444 49.5064 428.364 48.6841 427.605L45.1387 424.303C45.2631 424.001 45.3751 423.693 45.4808 423.384H50.7118C51.794 423.384 52.8318 422.92 53.597 422.095C54.3622 421.269 54.7921 420.15 54.7921 418.982C54.7905 417.816 54.3599 416.698 53.5948 415.874C52.8298 415.05 51.7929 414.587 50.7118 414.587Z" fill="#C7B8F8"/>
<path d="M94.1274 430.792H88.8467C88.7471 430.497 88.6352 430.215 88.5108 429.933L92.3796 426.243C93.1492 425.458 93.6057 424.381 93.6529 423.24C93.7 422.099 93.3341 420.982 92.6323 420.127C91.9305 419.271 90.9479 418.744 89.8922 418.655C88.8364 418.567 87.7901 418.925 86.9744 419.653L82.9066 423.538C82.8454 423.602 82.7872 423.669 82.7324 423.74C82.4774 423.612 82.2099 423.498 81.9425 423.391V418.07C81.9013 416.933 81.4537 415.858 80.6936 415.069C79.9335 414.28 78.9198 413.84 77.8653 413.84C76.8107 413.84 75.797 414.28 75.0369 415.069C74.2768 415.858 73.8292 416.933 73.788 418.07V423.391C73.4148 423.538 73.0479 423.713 72.6871 423.901C72.5709 423.75 72.4463 423.606 72.3139 423.471L68.1963 419.64C67.7945 419.236 67.3214 418.924 66.8051 418.722C66.2889 418.52 65.7402 418.433 65.192 418.465C64.6437 418.498 64.1071 418.649 63.6144 418.911C63.1217 419.172 62.6829 419.538 62.3244 419.987C61.9659 420.435 61.695 420.957 61.528 421.522C61.361 422.086 61.3012 422.681 61.3523 423.27C61.4035 423.86 61.5644 424.433 61.8255 424.954C62.0866 425.475 62.4425 425.934 62.8719 426.303L66.9834 430.134C67.0192 430.164 67.0566 430.19 67.0953 430.215C67.0207 430.403 66.9523 430.597 66.8901 430.792H61.7772C60.6967 430.792 59.6604 431.255 58.8964 432.079C58.1324 432.904 57.7031 434.021 57.7031 435.187C57.7031 436.353 58.1322 437.472 58.896 438.297C59.6599 439.123 60.6961 439.587 61.7772 439.589H66.8403C66.8776 439.71 66.9212 439.837 66.9647 439.958C66.9647 439.958 66.9647 439.958 66.9274 439.958L62.8533 443.843C62.4319 444.219 62.0849 444.683 61.8331 445.207C61.5812 445.731 61.4297 446.305 61.3874 446.893C61.345 447.482 61.4129 448.073 61.5868 448.633C61.7607 449.192 62.0372 449.709 62.3998 450.151C62.7624 450.593 63.2037 450.951 63.6974 451.206C64.1911 451.46 64.7272 451.605 65.2738 451.631C65.8204 451.657 66.3663 451.565 66.879 451.359C67.3918 451.153 67.8609 450.838 68.2585 450.432L72.3263 446.547L72.4134 446.453C72.8579 446.708 73.3171 446.932 73.788 447.124V452.432C73.8292 453.569 74.2768 454.644 75.0369 455.433C75.797 456.221 76.8107 456.662 77.8653 456.662C78.9198 456.662 79.9335 456.221 80.6936 455.433C81.4537 454.644 81.9013 453.569 81.9425 452.432V447.131C82.2286 447.017 82.5085 446.896 82.7822 446.755L86.7692 450.466C87.1743 450.843 87.6445 451.131 88.1527 451.313C88.6609 451.494 89.1974 451.566 89.7313 451.524C90.2653 451.482 90.7864 451.327 91.2648 451.068C91.7432 450.808 92.1696 450.45 92.5196 450.013C92.8696 449.576 93.1364 449.069 93.3047 448.52C93.473 447.972 93.5396 447.393 93.5006 446.817C93.4616 446.241 93.3178 445.679 93.0775 445.163C92.8371 444.647 92.5049 444.187 92.0997 443.809L88.5481 440.508C88.6787 440.206 88.7907 439.898 88.8964 439.589H94.1274C95.2085 439.587 96.2448 439.123 97.0087 438.297C97.7725 437.472 98.2016 436.353 98.2016 435.187C98.2016 434.61 98.0962 434.038 97.8914 433.505C97.6867 432.972 97.3866 432.487 97.0083 432.079C96.63 431.671 96.1808 431.347 95.6865 431.127C95.1922 430.906 94.6625 430.792 94.1274 430.792Z" fill="#C7B8F8"/>
<path d="M94.1274 430.792H88.8467C88.7471 430.497 88.6352 430.215 88.5108 429.933L92.3796 426.243C93.1492 425.458 93.6057 424.381 93.6529 423.24C93.7 422.099 93.3341 420.982 92.6323 420.127C91.9305 419.271 90.9479 418.744 89.8922 418.655C88.8364 418.567 87.7901 418.925 86.9744 419.653L82.9066 423.538C82.8454 423.602 82.7872 423.669 82.7324 423.74C82.4774 423.612 82.2099 423.498 81.9425 423.391V418.07C81.9013 416.933 81.4537 415.858 80.6936 415.069C79.9335 414.28 78.9198 413.84 77.8653 413.84C76.8107 413.84 75.797 414.28 75.0369 415.069C74.2768 415.858 73.8292 416.933 73.788 418.07V423.391C73.4148 423.538 73.0479 423.713 72.6871 423.901C72.5709 423.75 72.4463 423.606 72.3139 423.471L68.1963 419.64C67.7945 419.236 67.3214 418.924 66.8051 418.722C66.2889 418.52 65.7402 418.433 65.192 418.465C64.6437 418.498 64.1071 418.649 63.6144 418.911C63.1217 419.172 62.6829 419.538 62.3244 419.987C61.9659 420.435 61.695 420.957 61.528 421.522C61.361 422.086 61.3012 422.681 61.3523 423.27C61.4035 423.86 61.5644 424.433 61.8255 424.954C62.0866 425.475 62.4425 425.934 62.8719 426.303L66.9834 430.134C67.0192 430.164 67.0566 430.19 67.0953 430.215C67.0207 430.403 66.9523 430.597 66.8901 430.792H61.7772C60.6967 430.792 59.6604 431.255 58.8964 432.079C58.1324 432.904 57.7031 434.021 57.7031 435.187C57.7031 436.353 58.1322 437.472 58.896 438.297C59.6599 439.123 60.6961 439.587 61.7772 439.589H66.8403C66.8776 439.71 66.9212 439.837 66.9647 439.958C66.9647 439.958 66.9647 439.958 66.9274 439.958L62.8533 443.843C62.4319 444.219 62.0849 444.683 61.8331 445.207C61.5812 445.731 61.4297 446.305 61.3874 446.893C61.345 447.482 61.4129 448.073 61.5868 448.633C61.7607 449.192 62.0372 449.709 62.3998 450.151C62.7624 450.593 63.2037 450.951 63.6974 451.206C64.1911 451.46 64.7272 451.605 65.2738 451.631C65.8204 451.657 66.3663 451.565 66.879 451.359C67.3918 451.153 67.8609 450.838 68.2585 450.432L72.3263 446.547L72.4134 446.453C72.8579 446.708 73.3171 446.932 73.788 447.124V452.432C73.8292 453.569 74.2768 454.644 75.0369 455.433C75.797 456.221 76.8107 456.662 77.8653 456.662C78.9198 456.662 79.9335 456.221 80.6936 455.433C81.4537 454.644 81.9013 453.569 81.9425 452.432V447.131C82.2286 447.017 82.5085 446.896 82.7822 446.755L86.7692 450.466C87.1743 450.843 87.6445 451.131 88.1527 451.313C88.6609 451.494 89.1974 451.566 89.7313 451.524C90.2653 451.482 90.7864 451.327 91.2648 451.068C91.7432 450.808 92.1696 450.45 92.5196 450.013C92.8696 449.576 93.1364 449.069 93.3047 448.52C93.473 447.972 93.5396 447.393 93.5006 446.817C93.4616 446.241 93.3178 445.679 93.0775 445.163C92.8371 444.647 92.5049 444.187 92.0997 443.809L88.5481 440.508C88.6787 440.206 88.7907 439.898 88.8964 439.589H94.1274C95.2085 439.587 96.2448 439.123 97.0087 438.297C97.7725 437.472 98.2016 436.353 98.2016 435.187C98.2016 434.61 98.0962 434.038 97.8914 433.505C97.6867 432.972 97.3866 432.487 97.0083 432.079C96.63 431.671 96.1808 431.347 95.6865 431.127C95.1922 430.906 94.6625 430.792 94.1274 430.792Z" fill="#C7B8F8"/>
<path d="M94.1274 430.792H88.8467C88.7471 430.497 88.6352 430.215 88.5108 429.933L92.3796 426.243C93.1492 425.458 93.6057 424.381 93.6529 423.24C93.7 422.099 93.3341 420.982 92.6323 420.127C91.9305 419.271 90.9479 418.744 89.8922 418.655C88.8364 418.567 87.7901 418.925 86.9744 419.653L82.9066 423.538C82.8454 423.602 82.7872 423.669 82.7324 423.74C82.4774 423.612 82.2099 423.498 81.9425 423.391V418.07C81.9013 416.933 81.4537 415.858 80.6936 415.069C79.9335 414.28 78.9198 413.84 77.8653 413.84C76.8107 413.84 75.797 414.28 75.0369 415.069C74.2768 415.858 73.8292 416.933 73.788 418.07V423.391C73.4148 423.538 73.0479 423.713 72.6871 423.901C72.5709 423.75 72.4463 423.606 72.3139 423.471L68.1963 419.64C67.7945 419.236 67.3214 418.924 66.8051 418.722C66.2889 418.52 65.7402 418.433 65.192 418.465C64.6437 418.498 64.1071 418.649 63.6144 418.911C63.1217 419.172 62.6829 419.538 62.3244 419.987C61.9659 420.435 61.695 420.957 61.528 421.522C61.361 422.086 61.3012 422.681 61.3523 423.27C61.4035 423.86 61.5644 424.433 61.8255 424.954C62.0866 425.475 62.4425 425.934 62.8719 426.303L66.9834 430.134C67.0192 430.164 67.0566 430.19 67.0953 430.215C67.0207 430.403 66.9523 430.597 66.8901 430.792H61.7772C60.6967 430.792 59.6604 431.255 58.8964 432.079C58.1324 432.904 57.7031 434.021 57.7031 435.187C57.7031 436.353 58.1322 437.472 58.896 438.297C59.6599 439.123 60.6961 439.587 61.7772 439.589H66.8403C66.8776 439.71 66.9212 439.837 66.9647 439.958C66.9647 439.958 66.9647 439.958 66.9274 439.958L62.8533 443.843C62.4319 444.219 62.0849 444.683 61.8331 445.207C61.5812 445.731 61.4297 446.305 61.3874 446.893C61.345 447.482 61.4129 448.073 61.5868 448.633C61.7607 449.192 62.0372 449.709 62.3998 450.151C62.7624 450.593 63.2037 450.951 63.6974 451.206C64.1911 451.46 64.7272 451.605 65.2738 451.631C65.8204 451.657 66.3663 451.565 66.879 451.359C67.3918 451.153 67.8609 450.838 68.2585 450.432L72.3263 446.547L72.4134 446.453C72.8579 446.708 73.3171 446.932 73.788 447.124V452.432C73.8292 453.569 74.2768 454.644 75.0369 455.433C75.797 456.221 76.8107 456.662 77.8653 456.662C78.9198 456.662 79.9335 456.221 80.6936 455.433C81.4537 454.644 81.9013 453.569 81.9425 452.432V447.131C82.2286 447.017 82.5085 446.896 82.7822 446.755L86.7692 450.466C87.1743 450.843 87.6445 451.131 88.1527 451.313C88.6609 451.494 89.1974 451.566 89.7313 451.524C90.2653 451.482 90.7864 451.327 91.2648 451.068C91.7432 450.808 92.1696 450.45 92.5196 450.013C92.8696 449.576 93.1364 449.069 93.3047 448.52C93.473 447.972 93.5396 447.393 93.5006 446.817C93.4616 446.241 93.3178 445.679 93.0775 445.163C92.8371 444.647 92.5049 444.187 92.0997 443.809L88.5481 440.508C88.6787 440.206 88.7907 439.898 88.8964 439.589H94.1274C95.2085 439.587 96.2448 439.123 97.0087 438.297C97.7725 437.472 98.2016 436.353 98.2016 435.187C98.2016 434.61 98.0962 434.038 97.8914 433.505C97.6867 432.972 97.3866 432.487 97.0083 432.079C96.63 431.671 96.1808 431.347 95.6865 431.127C95.1922 430.906 94.6625 430.792 94.1274 430.792Z" fill="#C7B8F8"/>
<path d="M94.1274 430.792H88.8467C88.7471 430.497 88.6352 430.215 88.5108 429.933L92.3796 426.243C93.1492 425.458 93.6057 424.381 93.6529 423.24C93.7 422.099 93.3341 420.982 92.6323 420.127C91.9305 419.271 90.9479 418.744 89.8922 418.655C88.8364 418.567 87.7901 418.925 86.9744 419.653L82.9066 423.538C82.8454 423.602 82.7872 423.669 82.7324 423.74C82.4774 423.612 82.2099 423.498 81.9425 423.391V418.07C81.9013 416.933 81.4537 415.858 80.6936 415.069C79.9335 414.28 78.9198 413.84 77.8653 413.84C76.8107 413.84 75.797 414.28 75.0369 415.069C74.2768 415.858 73.8292 416.933 73.788 418.07V423.391C73.4148 423.538 73.0479 423.713 72.6871 423.901C72.5709 423.75 72.4463 423.606 72.3139 423.471L68.1963 419.64C67.7945 419.236 67.3214 418.924 66.8051 418.722C66.2889 418.52 65.7402 418.433 65.192 418.465C64.6437 418.498 64.1071 418.649 63.6144 418.911C63.1217 419.172 62.6829 419.538 62.3244 419.987C61.9659 420.435 61.695 420.957 61.528 421.522C61.361 422.086 61.3012 422.681 61.3523 423.27C61.4035 423.86 61.5644 424.433 61.8255 424.954C62.0866 425.475 62.4425 425.934 62.8719 426.303L66.9834 430.134C67.0192 430.164 67.0566 430.19 67.0953 430.215C67.0207 430.403 66.9523 430.597 66.8901 430.792H61.7772C60.6967 430.792 59.6604 431.255 58.8964 432.079C58.1324 432.904 57.7031 434.021 57.7031 435.187C57.7031 436.353 58.1322 437.472 58.896 438.297C59.6599 439.123 60.6961 439.587 61.7772 439.589H66.8403C66.8776 439.71 66.9212 439.837 66.9647 439.958C66.9647 439.958 66.9647 439.958 66.9274 439.958L62.8533 443.843C62.4319 444.219 62.0849 444.683 61.8331 445.207C61.5812 445.731 61.4297 446.305 61.3874 446.893C61.345 447.482 61.4129 448.073 61.5868 448.633C61.7607 449.192 62.0372 449.709 62.3998 450.151C62.7624 450.593 63.2037 450.951 63.6974 451.206C64.1911 451.46 64.7272 451.605 65.2738 451.631C65.8204 451.657 66.3663 451.565 66.879 451.359C67.3918 451.153 67.8609 450.838 68.2585 450.432L72.3263 446.547L72.4134 446.453C72.8579 446.708 73.3171 446.932 73.788 447.124V452.432C73.8292 453.569 74.2768 454.644 75.0369 455.433C75.797 456.221 76.8107 456.662 77.8653 456.662C78.9198 456.662 79.9335 456.221 80.6936 455.433C81.4537 454.644 81.9013 453.569 81.9425 452.432V447.131C82.2286 447.017 82.5085 446.896 82.7822 446.755L86.7692 450.466C87.1743 450.843 87.6445 451.131 88.1527 451.313C88.6609 451.494 89.1974 451.566 89.7313 451.524C90.2653 451.482 90.7864 451.327 91.2648 451.068C91.7432 450.808 92.1696 450.45 92.5196 450.013C92.8696 449.576 93.1364 449.069 93.3047 448.52C93.473 447.972 93.5396 447.393 93.5006 446.817C93.4616 446.241 93.3178 445.679 93.0775 445.163C92.8371 444.647 92.5049 444.187 92.0997 443.809L88.5481 440.508C88.6787 440.206 88.7907 439.898 88.8964 439.589H94.1274C95.2085 439.587 96.2448 439.123 97.0087 438.297C97.7725 437.472 98.2016 436.353 98.2016 435.187C98.2016 434.61 98.0962 434.038 97.8914 433.505C97.6867 432.972 97.3866 432.487 97.0083 432.079C96.63 431.671 96.1808 431.347 95.6865 431.127C95.1922 430.906 94.6625 430.792 94.1274 430.792Z" fill="#C7B8F8"/>
<path d="M94.1274 430.792H88.8467C88.7471 430.497 88.6352 430.215 88.5108 429.933L92.3796 426.243C93.1492 425.458 93.6057 424.381 93.6529 423.24C93.7 422.099 93.3341 420.982 92.6323 420.127C91.9305 419.271 90.9479 418.744 89.8922 418.655C88.8364 418.567 87.7901 418.925 86.9744 419.653L82.9066 423.538C82.8454 423.602 82.7872 423.669 82.7324 423.74C82.4774 423.612 82.2099 423.498 81.9425 423.391V418.07C81.9013 416.933 81.4537 415.858 80.6936 415.069C79.9335 414.28 78.9198 413.84 77.8653 413.84C76.8107 413.84 75.797 414.28 75.0369 415.069C74.2768 415.858 73.8292 416.933 73.788 418.07V423.391C73.4148 423.538 73.0479 423.713 72.6871 423.901C72.5709 423.75 72.4463 423.606 72.3139 423.471L68.1963 419.64C67.7945 419.236 67.3214 418.924 66.8051 418.722C66.2889 418.52 65.7402 418.433 65.192 418.465C64.6437 418.498 64.1071 418.649 63.6144 418.911C63.1217 419.172 62.6829 419.538 62.3244 419.987C61.9659 420.435 61.695 420.957 61.528 421.522C61.361 422.086 61.3012 422.681 61.3523 423.27C61.4035 423.86 61.5644 424.433 61.8255 424.954C62.0866 425.475 62.4425 425.934 62.8719 426.303L66.9834 430.134C67.0192 430.164 67.0566 430.19 67.0953 430.215C67.0207 430.403 66.9523 430.597 66.8901 430.792H61.7772C60.6967 430.792 59.6604 431.255 58.8964 432.079C58.1324 432.904 57.7031 434.021 57.7031 435.187C57.7031 436.353 58.1322 437.472 58.896 438.297C59.6599 439.123 60.6961 439.587 61.7772 439.589H66.8403C66.8776 439.71 66.9212 439.837 66.9647 439.958C66.9647 439.958 66.9647 439.958 66.9274 439.958L62.8533 443.843C62.4319 444.219 62.0849 444.683 61.8331 445.207C61.5812 445.731 61.4297 446.305 61.3874 446.893C61.345 447.482 61.4129 448.073 61.5868 448.633C61.7607 449.192 62.0372 449.709 62.3998 450.151C62.7624 450.593 63.2037 450.951 63.6974 451.206C64.1911 451.46 64.7272 451.605 65.2738 451.631C65.8204 451.657 66.3663 451.565 66.879 451.359C67.3918 451.153 67.8609 450.838 68.2585 450.432L72.3263 446.547L72.4134 446.453C72.8579 446.708 73.3171 446.932 73.788 447.124V452.432C73.8292 453.569 74.2768 454.644 75.0369 455.433C75.797 456.221 76.8107 456.662 77.8653 456.662C78.9198 456.662 79.9335 456.221 80.6936 455.433C81.4537 454.644 81.9013 453.569 81.9425 452.432V447.131C82.2286 447.017 82.5085 446.896 82.7822 446.755L86.7692 450.466C87.1743 450.843 87.6445 451.131 88.1527 451.313C88.6609 451.494 89.1974 451.566 89.7313 451.524C90.2653 451.482 90.7864 451.327 91.2648 451.068C91.7432 450.808 92.1696 450.45 92.5196 450.013C92.8696 449.576 93.1364 449.069 93.3047 448.52C93.473 447.972 93.5396 447.393 93.5006 446.817C93.4616 446.241 93.3178 445.679 93.0775 445.163C92.8371 444.647 92.5049 444.187 92.0997 443.809L88.5481 440.508C88.6787 440.206 88.7907 439.898 88.8964 439.589H94.1274C95.2085 439.587 96.2448 439.123 97.0087 438.297C97.7725 437.472 98.2016 436.353 98.2016 435.187C98.2016 434.61 98.0962 434.038 97.8914 433.505C97.6867 432.972 97.3866 432.487 97.0083 432.079C96.63 431.671 96.1808 431.347 95.6865 431.127C95.1922 430.906 94.6625 430.792 94.1274 430.792Z" fill="#C7B8F8"/>
<path d="M94.1274 430.792H88.8467C88.7471 430.497 88.6352 430.215 88.5108 429.933L92.3796 426.243C93.1492 425.458 93.6057 424.381 93.6529 423.24C93.7 422.099 93.3341 420.982 92.6323 420.127C91.9305 419.271 90.9479 418.744 89.8922 418.655C88.8364 418.567 87.7901 418.925 86.9744 419.653L82.9066 423.538C82.8454 423.602 82.7872 423.669 82.7324 423.74C82.4774 423.612 82.2099 423.498 81.9425 423.391V418.07C81.9013 416.933 81.4537 415.858 80.6936 415.069C79.9335 414.28 78.9198 413.84 77.8653 413.84C76.8107 413.84 75.797 414.28 75.0369 415.069C74.2768 415.858 73.8292 416.933 73.788 418.07V423.391C73.4148 423.538 73.0479 423.713 72.6871 423.901C72.5709 423.75 72.4463 423.606 72.3139 423.471L68.1963 419.64C67.7945 419.236 67.3214 418.924 66.8051 418.722C66.2889 418.52 65.7402 418.433 65.192 418.465C64.6437 418.498 64.1071 418.649 63.6144 418.911C63.1217 419.172 62.6829 419.538 62.3244 419.987C61.9659 420.435 61.695 420.957 61.528 421.522C61.361 422.086 61.3012 422.681 61.3523 423.27C61.4035 423.86 61.5644 424.433 61.8255 424.954C62.0866 425.475 62.4425 425.934 62.8719 426.303L66.9834 430.134C67.0192 430.164 67.0566 430.19 67.0953 430.215C67.0207 430.403 66.9523 430.597 66.8901 430.792H61.7772C60.6967 430.792 59.6604 431.255 58.8964 432.079C58.1324 432.904 57.7031 434.021 57.7031 435.187C57.7031 436.353 58.1322 437.472 58.896 438.297C59.6599 439.123 60.6961 439.587 61.7772 439.589H66.8403C66.8776 439.71 66.9212 439.837 66.9647 439.958C66.9647 439.958 66.9647 439.958 66.9274 439.958L62.8533 443.843C62.4319 444.219 62.0849 444.683 61.8331 445.207C61.5812 445.731 61.4297 446.305 61.3874 446.893C61.345 447.482 61.4129 448.073 61.5868 448.633C61.7607 449.192 62.0372 449.709 62.3998 450.151C62.7624 450.593 63.2037 450.951 63.6974 451.206C64.1911 451.46 64.7272 451.605 65.2738 451.631C65.8204 451.657 66.3663 451.565 66.879 451.359C67.3918 451.153 67.8609 450.838 68.2585 450.432L72.3263 446.547L72.4134 446.453C72.8579 446.708 73.3171 446.932 73.788 447.124V452.432C73.8292 453.569 74.2768 454.644 75.0369 455.433C75.797 456.221 76.8107 456.662 77.8653 456.662C78.9198 456.662 79.9335 456.221 80.6936 455.433C81.4537 454.644 81.9013 453.569 81.9425 452.432V447.131C82.2286 447.017 82.5085 446.896 82.7822 446.755L86.7692 450.466C87.1743 450.843 87.6445 451.131 88.1527 451.313C88.6609 451.494 89.1974 451.566 89.7313 451.524C90.2653 451.482 90.7864 451.327 91.2648 451.068C91.7432 450.808 92.1696 450.45 92.5196 450.013C92.8696 449.576 93.1364 449.069 93.3047 448.52C93.473 447.972 93.5396 447.393 93.5006 446.817C93.4616 446.241 93.3178 445.679 93.0775 445.163C92.8371 444.647 92.5049 444.187 92.0997 443.809L88.5481 440.508C88.6787 440.206 88.7907 439.898 88.8964 439.589H94.1274C95.2085 439.587 96.2448 439.123 97.0087 438.297C97.7725 437.472 98.2016 436.353 98.2016 435.187C98.2016 434.61 98.0962 434.038 97.8914 433.505C97.6867 432.972 97.3866 432.487 97.0083 432.079C96.63 431.671 96.1808 431.347 95.6865 431.127C95.1922 430.906 94.6625 430.792 94.1274 430.792Z" fill="#C7B8F8"/>
<path d="M94.1274 430.792H88.8467C88.7471 430.497 88.6352 430.215 88.5108 429.933L92.3796 426.243C93.1492 425.458 93.6057 424.381 93.6529 423.24C93.7 422.099 93.3341 420.982 92.6323 420.127C91.9305 419.271 90.9479 418.744 89.8922 418.655C88.8364 418.567 87.7901 418.925 86.9744 419.653L82.9066 423.538C82.8454 423.602 82.7872 423.669 82.7324 423.74C82.4774 423.612 82.2099 423.498 81.9425 423.391V418.07C81.9013 416.933 81.4537 415.858 80.6936 415.069C79.9335 414.28 78.9198 413.84 77.8653 413.84C76.8107 413.84 75.797 414.28 75.0369 415.069C74.2768 415.858 73.8292 416.933 73.788 418.07V423.391C73.4148 423.538 73.0479 423.713 72.6871 423.901C72.5709 423.75 72.4463 423.606 72.3139 423.471L68.1963 419.64C67.7945 419.236 67.3214 418.924 66.8051 418.722C66.2889 418.52 65.7402 418.433 65.192 418.465C64.6437 418.498 64.1071 418.649 63.6144 418.911C63.1217 419.172 62.6829 419.538 62.3244 419.987C61.9659 420.435 61.695 420.957 61.528 421.522C61.361 422.086 61.3012 422.681 61.3523 423.27C61.4035 423.86 61.5644 424.433 61.8255 424.954C62.0866 425.475 62.4425 425.934 62.8719 426.303L66.9834 430.134C67.0192 430.164 67.0566 430.19 67.0953 430.215C67.0207 430.403 66.9523 430.597 66.8901 430.792H61.7772C60.6967 430.792 59.6604 431.255 58.8964 432.079C58.1324 432.904 57.7031 434.021 57.7031 435.187C57.7031 436.353 58.1322 437.472 58.896 438.297C59.6599 439.123 60.6961 439.587 61.7772 439.589H66.8403C66.8776 439.71 66.9212 439.837 66.9647 439.958C66.9647 439.958 66.9647 439.958 66.9274 439.958L62.8533 443.843C62.4319 444.219 62.0849 444.683 61.8331 445.207C61.5812 445.731 61.4297 446.305 61.3874 446.893C61.345 447.482 61.4129 448.073 61.5868 448.633C61.7607 449.192 62.0372 449.709 62.3998 450.151C62.7624 450.593 63.2037 450.951 63.6974 451.206C64.1911 451.46 64.7272 451.605 65.2738 451.631C65.8204 451.657 66.3663 451.565 66.879 451.359C67.3918 451.153 67.8609 450.838 68.2585 450.432L72.3263 446.547L72.4134 446.453C72.8579 446.708 73.3171 446.932 73.788 447.124V452.432C73.8292 453.569 74.2768 454.644 75.0369 455.433C75.797 456.221 76.8107 456.662 77.8653 456.662C78.9198 456.662 79.9335 456.221 80.6936 455.433C81.4537 454.644 81.9013 453.569 81.9425 452.432V447.131C82.2286 447.017 82.5085 446.896 82.7822 446.755L86.7692 450.466C87.1743 450.843 87.6445 451.131 88.1527 451.313C88.6609 451.494 89.1974 451.566 89.7313 451.524C90.2653 451.482 90.7864 451.327 91.2648 451.068C91.7432 450.808 92.1696 450.45 92.5196 450.013C92.8696 449.576 93.1364 449.069 93.3047 448.52C93.473 447.972 93.5396 447.393 93.5006 446.817C93.4616 446.241 93.3178 445.679 93.0775 445.163C92.8371 444.647 92.5049 444.187 92.0997 443.809L88.5481 440.508C88.6787 440.206 88.7907 439.898 88.8964 439.589H94.1274C95.2085 439.587 96.2448 439.123 97.0087 438.297C97.7725 437.472 98.2016 436.353 98.2016 435.187C98.2016 434.61 98.0962 434.038 97.8914 433.505C97.6867 432.972 97.3866 432.487 97.0083 432.079C96.63 431.671 96.1808 431.347 95.6865 431.127C95.1922 430.906 94.6625 430.792 94.1274 430.792Z" fill="#C7B8F8"/>
<path d="M34.5396 424.854C37.5213 424.854 39.9385 422.246 39.9385 419.029C39.9385 415.813 37.5213 413.205 34.5396 413.205C31.5578 413.205 29.1406 415.813 29.1406 419.029C29.1406 422.246 31.5578 424.854 34.5396 424.854Z" fill="white"/>
<path d="M77.9551 441.374C80.9369 441.374 83.3541 438.766 83.3541 435.549C83.3541 432.333 80.9369 429.725 77.9551 429.725C74.9733 429.725 72.5562 432.333 72.5562 435.549C72.5562 438.766 74.9733 441.374 77.9551 441.374Z" fill="white"/>
<path d="M85.046 540.837C83.0235 540.837 81.0465 540.19 79.3649 538.977C77.6833 537.765 76.3727 536.042 75.5987 534.027C74.8247 532.011 74.6222 529.793 75.0168 527.653C75.4114 525.513 76.3853 523.548 77.8153 522.005C79.2454 520.462 81.0675 519.412 83.0511 518.986C85.0347 518.56 87.0907 518.779 88.9592 519.614C90.8277 520.449 92.4247 521.862 93.5483 523.677C94.6719 525.491 95.2717 527.623 95.2717 529.805C95.2684 532.73 94.19 535.534 92.273 537.602C90.356 539.67 87.757 540.833 85.046 540.837ZM85.046 521.458C83.5156 521.458 82.0196 521.947 80.7472 522.865C79.4747 523.782 78.483 525.086 77.8973 526.611C77.3117 528.136 77.1584 529.814 77.457 531.434C77.7556 533.053 78.4925 534.54 79.5746 535.708C80.6568 536.875 82.0355 537.67 83.5364 537.992C85.0374 538.314 86.5932 538.149 88.0071 537.517C89.421 536.885 90.6294 535.815 91.4796 534.443C92.3299 533.07 92.7837 531.456 92.7837 529.805C92.7787 527.593 91.962 525.473 90.5119 523.909C89.0619 522.344 87.0966 521.463 85.046 521.458Z" fill="#2E2E2E"/>
<path d="M68.9361 559.188C67.5349 559.188 66.1652 558.74 65.0002 557.9C63.8351 557.06 62.9271 555.867 62.3908 554.47C61.8546 553.074 61.7143 551.537 61.9877 550.055C62.2611 548.572 62.9358 547.21 63.9266 546.141C64.9174 545.072 66.1797 544.345 67.554 544.05C68.9283 543.755 70.3528 543.906 71.6473 544.485C72.9418 545.063 74.0483 546.043 74.8268 547.299C75.6052 548.556 76.0207 550.034 76.0207 551.546C76.0191 553.572 75.2721 555.515 73.9439 556.948C72.6156 558.381 70.8146 559.186 68.9361 559.188ZM68.9361 546.587C68.027 546.587 67.1383 546.878 66.3824 547.423C65.6265 547.967 65.0374 548.742 64.6895 549.648C64.3416 550.554 64.2505 551.551 64.4279 552.513C64.6052 553.475 65.043 554.358 65.6859 555.052C66.3287 555.745 67.1477 556.218 68.0394 556.409C68.931 556.6 69.8553 556.502 70.6952 556.127C71.5351 555.751 72.253 555.116 72.7581 554.3C73.2631 553.485 73.5327 552.526 73.5327 551.546C73.5311 550.231 73.0463 548.971 72.1846 548.041C71.3229 547.112 70.1547 546.589 68.9361 546.587Z" fill="#2E2E2E"/>
<ellipse cx="110.695" cy="323.414" rx="23.4807" ry="25.3306" fill="#FFEECF"/>
<path d="M498.525 314.026V297.898H502.845V314.026H498.525ZM492.621 308.122V303.802H508.749V308.122H492.621Z" fill="#F8F8F8"/>
</g>
<defs>
<clipPath id="clip0_119_72">
<rect width="622" height="570" rx="41" fill="white"/>
</clipPath>
</defs>
</svg>
